<svg width="258" height="58" viewBox="0 0 258 58" fill="none" xmlns="http://www.w3.org/2000/svg">
<path fill-rule="evenodd" clip-rule="evenodd" d="M257.035 46.0103C256.794 45.133 256.191 45.7179 255.829 45.5717C255.709 45.133 255.347 45.133 254.986 45.133C254.383 45.2792 253.901 45.2792 253.298 45.133C253.298 44.9868 253.298 44.9868 253.298 44.8406C253.539 44.4019 253.298 44.2557 252.936 44.1095C252.575 44.1095 252.213 43.9633 251.851 43.8171C251.008 43.5246 251.008 43.5246 250.405 44.2557H250.164C248.958 43.8171 247.753 43.3784 246.427 43.6709C246.427 43.6709 246.306 43.5246 246.186 43.5246C246.668 43.086 247.15 42.6474 247.391 42.0625C247.632 41.4776 247.873 41.3314 248.476 41.6238C249.802 42.0625 250.405 41.6238 250.164 40.3079C250.164 40.1617 250.164 40.1617 250.164 40.0155C250.525 40.0155 250.766 40.1617 251.128 40.1617C253.057 40.4541 252.575 40.8928 253.057 38.8457C253.177 38.5533 253.177 38.2609 253.298 37.9684C253.419 37.676 253.539 37.9684 253.66 37.9684C254.142 38.1147 254.624 38.5533 254.745 37.5298C254.865 37.5298 254.986 37.5298 255.227 37.5298C255.588 37.5298 255.95 37.676 256.312 37.3836C256.191 36.5063 255.588 36.5063 254.986 36.6525L255.106 36.7987C255.106 36.7987 254.986 36.7987 254.986 36.6525C254.745 36.6525 254.383 36.6525 254.142 36.6525C254.021 36.3601 253.901 36.6525 253.66 36.6525C253.419 36.5063 253.177 36.5063 253.057 36.5063C253.057 36.3601 253.298 36.0676 253.057 35.9214C252.816 35.7752 252.575 35.7752 252.334 36.0676C251.731 36.0676 251.128 36.0676 250.405 36.0676C250.043 35.629 250.525 33.7282 249.079 35.1903H248.717C248.235 34.3131 247.873 35.1903 247.391 35.3366C247.27 35.3366 247.27 35.3366 247.15 35.3366C246.186 35.4828 245.101 35.0441 244.257 35.7752C244.016 35.9214 243.533 35.7752 243.172 35.629C241.605 35.0441 239.917 35.1903 238.35 35.4828C237.265 35.7752 236.662 35.629 236.059 34.6055C236.301 34.6055 236.662 34.6055 236.903 34.6055C237.265 35.1903 237.627 35.1903 237.988 34.6055C239.073 34.7517 240.038 34.1668 241.122 34.6055C241.725 34.6055 241.846 34.0206 241.966 33.582C241.966 33.2895 242.087 32.9971 242.449 33.1433C243.413 33.4358 243.654 32.7047 243.895 31.9736C244.739 31.8274 245.462 31.2425 246.186 30.8039C246.788 29.9266 247.632 29.6342 248.597 29.3417C248.597 29.3417 248.717 29.3417 248.717 29.1955H248.838C248.838 29.1955 248.838 29.1955 248.958 29.1955C249.199 29.7804 249.44 30.0728 250.043 29.4879C250.164 29.4879 250.164 29.4879 250.284 29.4879C250.766 29.4879 251.369 29.4879 250.887 28.6106C250.766 28.4644 250.766 28.3182 250.646 28.172C250.164 27.7334 249.561 27.5871 248.958 27.7334C248.114 27.7334 247.27 27.7334 246.427 27.5871C244.257 27.1485 244.257 27.1485 245.221 24.9553C245.703 24.809 246.186 25.1015 246.668 24.6628C246.788 24.6628 246.909 24.6628 247.029 24.6628C247.391 24.5166 247.512 24.2242 247.873 23.9317C248.114 23.7855 248.355 23.7855 248.476 23.6393C248.838 24.078 249.199 24.5166 249.561 23.6393C249.681 23.6393 249.681 23.6393 249.802 23.6393C250.164 23.6393 250.646 23.6393 251.008 23.4931C251.249 23.4931 251.49 23.3469 251.49 22.9082C251.369 22.6158 251.249 22.4696 250.887 22.6158C250.525 22.762 250.164 22.6158 249.802 22.4696C249.802 22.3234 249.802 22.1772 250.043 22.0309C251.008 21.7385 252.092 21.2999 252.334 19.9839C252.454 19.9839 252.454 19.9839 252.575 19.9839C253.298 20.2764 253.66 19.5453 254.021 19.1066C254.142 18.9604 254.383 18.8142 254.383 18.668C254.142 18.2293 253.66 18.2293 253.177 18.2293C252.936 17.7907 252.454 18.0831 252.092 17.9369C251.61 17.9369 251.128 18.0831 250.646 17.6445C250.284 17.2058 249.802 17.4983 249.44 17.352C249.199 16.7672 248.717 17.2058 248.355 17.0596C248.235 17.0596 248.235 17.0596 248.114 17.0596C247.753 16.9134 247.15 17.2058 246.547 17.0596C246.427 16.4747 246.065 16.7672 245.703 16.7672C245.583 16.7672 245.583 16.7672 245.462 16.7672C245.221 16.621 244.98 16.4747 244.859 16.3285C244.618 16.3285 244.377 16.3285 244.257 16.3285C244.016 16.3285 243.895 16.1823 243.654 16.1823C242.328 16.3285 241.122 16.0361 239.796 15.4512C239.435 15.305 238.953 15.305 238.591 15.1588C238.109 15.0126 237.747 15.1588 237.265 14.8664C237.024 14.7202 236.903 14.5739 236.662 14.4277C236.18 13.9891 235.577 14.2815 234.974 14.1353C234.974 13.5504 234.733 13.5504 234.251 13.6966C233.407 13.8429 232.563 13.6966 231.599 13.258C230.514 12.8194 229.429 12.5269 228.224 12.8193C227.259 13.4042 226.295 12.6731 225.331 12.8193C224.607 11.7958 223.643 12.5269 222.799 12.3807C222.317 12.2345 221.714 12.0883 221.111 12.0883C220.509 11.6496 219.906 11.9421 219.183 11.7958C217.374 11.5034 215.566 11.211 213.758 10.9185C213.637 10.6261 213.396 10.3337 213.035 10.4799C212.552 10.7723 211.95 10.6261 211.467 10.6261V10.7723V10.9185C211.467 10.7723 211.588 10.7723 211.467 10.6261C211.226 10.3337 210.985 10.4799 210.624 10.3337C209.9 9.6026 208.936 10.0413 208.092 9.89504C207.971 9.89504 207.971 9.89504 207.851 9.89504C207.007 9.45639 206.163 9.74882 205.319 9.6026C205.199 9.6026 205.199 9.6026 205.078 9.6026C204.596 9.16396 204.114 9.45639 203.632 9.31017C203.511 9.31017 203.511 9.31017 203.391 9.31017C203.029 8.72531 202.667 8.43288 202.065 8.72531C201.823 8.87153 201.341 9.01774 201.221 8.87153C200.256 7.84802 199.171 8.28666 198.086 8.43288C197.966 8.14045 197.725 8.14045 197.484 8.14045C196.64 7.7018 195.675 7.99423 194.832 7.84802C194.711 7.84802 194.711 7.7018 194.591 7.7018C192.059 7.7018 189.527 6.38586 186.996 6.97072C186.875 6.97072 186.755 6.97072 186.634 6.97072C186.152 6.09343 185.429 6.23964 184.705 6.38586C183.982 6.53207 183.259 6.53207 182.536 6.38586C180.366 6.23964 178.437 5.21613 176.146 5.36235C174.7 5.50856 173.253 5.21613 171.927 5.801C171.686 5.801 171.445 5.94721 171.204 5.801C171.083 5.65478 170.963 5.65478 170.842 5.50856C170.36 5.21613 169.878 4.63127 169.396 4.63127C167.467 4.48505 165.659 3.90019 163.73 4.04641C162.645 4.19262 161.681 3.90019 160.596 3.60776C159.993 3.46154 159.149 3.46154 158.787 4.33884C158.787 4.33884 158.667 4.33884 158.546 4.33884C158.426 3.90019 158.185 3.60776 157.823 3.46154C157.22 3.31533 156.618 3.0229 156.135 3.16911C154.93 3.31533 153.724 3.46154 152.519 3.16911C152.278 3.16911 152.037 3.46154 151.796 3.60776C151.675 3.60776 151.554 3.60776 151.434 3.60776C150.47 2.73047 149.505 3.16911 148.541 3.60776C148.179 3.31533 147.817 3.60776 147.456 3.46154H147.335C146.733 3.46154 146.25 3.31533 145.648 3.31533C145.527 3.31533 145.406 3.31533 145.286 3.31533C143.719 3.31533 142.152 1.99939 140.464 2.58425C140.343 2.58425 140.343 2.58425 140.223 2.58425C139.017 2.58425 137.932 1.41453 136.606 2.29182C136.365 2.43803 136.124 2.29182 135.883 2.1456C134.919 1.85317 134.075 1.26831 132.99 1.56074C132.749 1.56074 132.508 1.56074 132.267 1.41452C131.664 0.975878 131.302 1.12209 130.941 1.70696C130.458 2.29182 129.976 2.43804 129.253 1.99939C128.65 1.70696 127.927 1.56074 127.686 2.58425C127.445 2.58425 127.204 2.43804 127.083 2.43804C127.083 1.99939 127.927 1.99939 127.445 1.56074C127.083 1.70696 126.842 2.43804 126.601 2.58425L126.48 2.73047C125.878 2.43804 125.395 2.1456 124.793 2.43804C124.431 2.58425 123.949 2.58425 123.708 2.29182C123.225 1.85317 122.623 1.99939 122.14 1.99939C121.176 1.99939 120.212 3.0229 119.368 1.85317C119.368 1.70696 119.127 1.85317 119.006 1.85317C118.403 1.85317 117.68 1.85317 117.077 1.85317C116.354 1.70696 115.51 0.391015 114.787 1.85317C114.666 1.85317 114.546 1.85317 114.305 1.85317C114.064 1.70696 113.943 1.26831 113.581 1.70696C113.34 1.99939 113.099 1.85317 112.738 1.85317C112.497 1.85317 112.135 1.85317 111.894 1.85317C111.291 1.12209 110.809 1.12209 110.206 1.85317C109.965 1.85317 109.603 1.85317 109.362 1.85317C109.242 1.56074 109.001 1.56074 108.76 1.41452C107.795 0.975878 106.951 1.41452 105.987 1.41452C104.42 1.41452 102.732 1.41452 101.165 1.41452C101.165 0.829662 100.683 0.537231 100.201 0.537231C98.1512 0.391015 96.2224 0.244799 94.1731 0.537231C93.2087 0.683446 92.1237 1.12209 91.0388 0.391015C90.9183 0.244799 90.6772 0.391015 90.5566 0.537231C89.9539 1.12209 89.3511 0.683446 88.9895 0.391015C87.9045 -0.340063 87.0607 0.0985837 86.2168 0.537231C86.0963 0.537231 86.0963 0.537231 85.9757 0.537231C85.373 0.683446 84.7702 0.829662 84.1675 0.391015C84.047 0.244799 83.8059 0.391015 83.5648 0.537231C83.3237 0.829662 82.8415 0.683446 82.4798 0.829662C81.0332 1.12209 79.3455 0.537231 77.8989 1.12209C77.0551 1.41452 76.0907 0.975878 75.3674 1.41452C73.9208 0.975878 72.3537 1.12209 70.7865 1.12209C68.4961 0.829662 66.3262 1.26831 64.1563 1.99939C63.5536 2.1456 62.9509 1.85317 62.4687 2.29182C62.2276 2.29182 62.107 2.1456 61.9865 1.85317C62.107 1.12209 61.8659 0.683446 61.3837 1.12209C60.6604 1.70696 59.9371 1.70696 59.0933 1.70696C57.5261 1.70696 55.959 2.43803 54.2713 1.70696C54.1508 1.70696 54.0302 1.70696 54.0302 1.70696C53.3069 2.43803 52.5836 1.99939 51.9809 1.85317C50.8959 1.70696 49.6905 1.85317 48.6055 1.99939C48.0028 1.99939 47.5206 2.1456 47.2795 1.41452C47.1589 1.70696 47.1589 1.85317 47.0384 1.99939C46.5562 2.87668 46.3151 2.87668 45.8329 1.99939C45.4712 1.56074 45.2301 1.70696 44.989 1.99939C44.3863 2.29182 43.663 2.58425 42.9397 2.58425C41.3726 2.58425 39.926 1.99939 38.3588 2.43804C37.0328 2.73047 35.5862 2.43804 34.2602 2.58425C33.0547 2.73047 31.8492 3.60776 30.5231 3.31533C30.4026 3.31533 30.282 3.31533 30.1615 3.31533C29.6793 3.31533 29.1971 3.31533 28.7149 3.16911C27.7505 2.87668 27.1478 3.16911 26.7861 4.19262C26.545 4.19262 26.4245 4.19262 26.1834 4.19262C26.1834 4.33884 26.1834 4.33884 26.1834 4.48505C26.1834 4.33884 26.1834 4.33884 26.1834 4.19262C25.7012 4.48505 25.219 4.33884 24.9779 4.33884C24.2546 3.90019 24.3751 4.48505 24.2546 4.9237C23.8929 5.21613 24.134 5.36235 24.2546 5.65478C25.3395 6.09343 25.5806 7.7018 27.1478 7.55558C26.1834 8.14045 25.219 8.14045 24.3751 8.43288C23.1696 8.87153 21.9642 8.87153 20.8792 9.45639C20.397 9.45639 20.0354 9.45639 19.6737 9.45639C19.3121 9.45639 19.4326 9.74882 19.4326 9.89504C18.8299 10.3337 18.2271 10.9185 17.986 11.6496C17.986 11.7958 17.8655 11.9421 17.7449 12.0883C17.5038 12.0883 17.3833 12.0883 17.1422 12.0883C16.7805 11.6496 16.5394 12.0883 16.1778 12.2345C15.9367 12.2345 15.6956 12.3807 15.6956 12.6731C15.8161 12.9656 15.9367 12.9656 16.1778 12.9656C16.4189 12.9656 16.66 12.9656 16.7805 12.6731C17.1422 12.6731 17.5038 12.6731 17.8655 12.6731C18.3477 13.258 18.9504 13.1118 19.5532 13.1118C20.5176 13.1118 21.3614 13.6966 22.2052 13.6966V13.5504V13.6966C22.2052 13.9891 22.3258 14.1353 22.6874 14.1353C22.6874 14.2815 22.9285 14.4277 23.0491 14.5739C23.2902 15.305 23.1696 15.5974 22.4463 15.5974C22.0847 15.5974 21.7231 15.4512 21.3614 15.8899H21.2409C20.7587 15.8899 20.2765 15.4512 20.1559 16.1823C20.1559 16.621 20.6381 16.4747 20.8792 16.4747C20.9998 17.0596 22.4463 16.7672 21.482 17.7907C20.2765 18.0831 18.8299 18.3755 17.8655 19.2528C17.0216 19.9839 16.1778 20.1301 15.2134 20.2764C14.3696 20.4226 14.1285 20.5688 14.7312 21.4461C12.923 21.4461 11.3558 21.5923 9.90924 22.0309C9.66814 22.0309 9.30649 22.0309 9.06539 22.0309C8.94484 22.0309 8.94484 21.8847 8.82429 21.8847C7.3777 22.0309 5.93112 22.3234 4.48453 21.8847C3.88178 21.7385 3.88178 22.4696 3.76123 22.762C3.64068 23.0544 3.15848 23.4931 3.88178 23.6393H4.00233C4.84617 23.9317 5.56947 24.6628 6.41331 24.2242C6.53386 24.2242 6.77496 24.2242 6.89551 24.3704C8.22155 25.3939 9.90924 25.1015 11.3558 24.9553C14.4901 24.9553 17.7449 24.5166 20.8792 24.5166C23.2902 24.5166 25.7012 24.2242 27.9916 24.5166C27.9916 24.3704 27.9916 24.3704 27.9916 24.2242C27.9916 24.2242 27.9916 24.3704 27.9916 24.5166C27.9916 24.5166 28.1122 24.5166 28.2327 24.5166C28.5944 24.9553 28.956 25.3939 29.4382 25.6863C30.4026 26.2712 31.1259 27.5871 32.4519 26.8561C32.693 26.8561 32.5725 27.4409 32.8136 27.5871C32.5725 27.5871 32.3314 27.5871 32.3314 27.8796C32.4519 28.3182 32.8136 28.0258 33.0547 28.172C31.6081 28.7569 31.4875 28.7569 32.3314 29.7804V29.9266L32.4519 29.7804C31.7286 29.9266 31.0053 29.6342 30.5231 30.0728C28.956 29.6342 27.5094 30.5114 25.9423 30.3652C25.8217 30.3652 25.8217 30.5114 25.7012 30.5114C25.219 30.8039 24.7368 30.8039 24.2546 30.8039C23.2902 31.0963 22.2052 30.9501 21.3614 31.6812C20.5176 31.8274 19.6737 30.9501 18.8299 31.3887C18.3477 30.9501 17.8655 31.2425 17.3833 31.2425C17.1422 31.2425 17.0216 31.3887 16.7805 31.3887C14.7312 31.2425 12.5613 31.0963 10.512 31.2425C10.512 31.3887 10.512 31.3887 10.512 31.535V31.3887C9.90924 31.0963 9.30649 31.535 8.82429 31.8274C8.46265 32.1198 7.6188 32.4123 7.98045 32.9971C8.46265 33.7282 9.18594 34.3131 10.0298 33.7282C10.1503 33.7282 10.1503 33.7282 10.2709 33.7282C9.90924 34.4593 9.30649 34.4593 8.70375 34.1668C8.101 33.8744 7.6188 33.7282 7.13661 34.4593C6.77496 34.8979 6.05166 35.0441 5.56947 35.0441C4.84617 34.8979 4.12288 34.0206 4.00233 35.629C4.00233 35.629 3.76123 35.629 3.64068 35.629C2.91739 35.629 2.91739 35.0441 2.67629 34.4593C2.43519 35.0441 2.19409 35.3366 1.95299 35.7752C1.83244 36.0676 1.95299 36.5063 2.19409 36.6525C2.79684 36.7987 2.79684 37.0912 2.79684 37.676C2.79684 38.2609 3.15848 38.8457 3.64068 38.992C4.24343 38.992 4.72562 38.5533 4.84617 37.9684C5.08727 37.5298 5.20782 37.676 5.56947 37.676C6.53386 38.1147 7.01606 39.1382 7.73935 39.4306C8.101 39.5768 8.46265 39.5768 8.46265 40.1617C8.46265 40.4541 8.3421 40.6003 8.101 40.6003C7.73935 40.7465 7.49825 40.6003 7.13661 40.1617C6.41331 39.4306 5.32837 39.5768 4.60507 40.6003C4.36398 40.8928 4.36398 41.4776 4.00233 41.6238C3.39958 42.0625 2.79684 41.9163 2.31464 41.3314C2.07354 41.1852 1.4708 41.1852 1.71189 41.6238C2.07354 42.7936 1.10915 42.5011 0.626953 42.7936C1.2297 43.086 1.83244 42.9398 2.19409 43.3784C2.43519 43.8171 2.91739 43.8171 3.27903 43.5246C3.76123 43.086 2.91739 42.9398 2.91739 42.5011C3.88178 42.7936 4.72562 43.086 5.56947 42.3549C5.93111 42.3549 6.41331 42.3549 6.77496 42.3549C6.65441 43.3784 5.44892 42.3549 5.20782 43.3784C6.05166 42.9398 6.65441 43.3784 7.25716 43.6709C7.73935 43.8171 8.3421 43.8171 8.70375 43.5246C9.30649 43.086 9.78869 43.2322 10.3914 43.2322C10.6325 43.2322 10.9942 43.086 11.2353 43.086C11.4764 43.3784 11.7175 43.2322 11.9586 43.3784C12.0791 43.3784 12.1997 43.3784 12.0791 43.5246C12.0791 43.5246 11.9586 43.5246 11.838 43.5246C11.7175 44.1095 12.3202 43.8171 12.4408 44.1095C11.7175 44.9868 11.838 46.1565 12.6819 46.449C13.5257 46.7414 14.4901 47.0338 15.4545 47.18C16.1778 47.3263 17.0216 47.9111 17.7449 46.8876C17.8655 46.8876 17.986 46.8876 18.1066 46.8876C18.3477 47.0338 18.7093 47.3263 18.9504 47.4725C19.3121 47.6187 19.5532 47.7649 19.3121 48.0573C18.5888 48.9346 19.4326 48.6422 19.6737 48.6422C19.7943 48.7884 19.9148 48.7884 20.0354 48.9346C20.5176 48.9346 20.6381 50.543 21.482 49.3733C21.7231 49.3733 21.8436 49.3733 22.0847 49.3733C22.6874 49.8119 23.2902 49.5195 24.0135 49.5195C23.8929 49.9581 23.5313 49.6657 23.4107 49.9581C24.7368 50.8354 24.7368 50.8354 24.8573 49.8119C25.0984 49.9581 25.4601 49.9581 25.7012 49.8119C26.1834 49.9581 26.6656 49.9581 27.1478 49.8119C27.2683 49.8119 27.2683 49.8119 27.3889 49.8119C27.7505 50.2506 28.3533 49.9581 28.8355 50.1044C29.6793 50.2506 30.5231 50.2506 31.367 50.543C31.0053 50.543 30.6437 50.543 30.282 50.543C30.1615 50.543 29.7998 50.543 29.7998 50.6892C29.6793 50.9816 30.0409 50.9816 30.1615 50.9816C30.6437 50.9816 31.0053 50.9816 31.4875 50.9816C31.6081 51.1279 31.7286 51.1279 31.9697 51.1279C33.6574 50.8354 35.3451 51.2741 36.9122 51.4203C37.0328 51.4203 37.0328 51.4203 37.1533 51.4203C37.6355 51.4203 38.1177 51.4203 38.5999 51.4203C39.0821 52.59 39.926 52.59 40.8904 52.2976C40.7698 52.0052 40.6493 51.7127 40.4082 51.4203C40.7698 51.4203 41.1315 51.4203 41.4931 51.4203C41.3726 52.0052 42.2164 52.0052 41.9753 52.7362C42.4575 52.4438 42.5781 52.0052 42.6986 51.7127C43.4219 51.7127 44.1452 51.7127 44.7479 51.7127C44.989 51.4203 46.074 52.2976 45.3507 50.9816C45.8329 50.9816 46.3151 50.9816 46.7973 50.9816C46.9178 51.2741 46.5562 51.5665 46.6767 51.5665C47.4 51.5665 48.0028 52.2976 48.7261 51.8589C49.4494 51.8589 50.0521 51.8589 50.7754 51.8589C51.4987 51.8589 52.222 51.8589 52.8247 51.8589C54.0302 52.2976 54.633 52.0052 54.633 51.1279C55.3563 51.1279 56.0796 51.4203 56.9234 50.9816C57.0439 50.9816 57.1645 50.9816 57.285 50.9816C57.4056 51.2741 57.7672 51.4203 58.0083 51.4203C59.0933 51.4203 59.0933 51.4203 58.7316 52.7362C59.5755 51.4203 59.696 52.8824 60.1782 52.8824C60.2988 52.4438 60.2988 52.1514 60.6604 51.8589C61.5043 51.7127 62.2276 52.1514 63.0714 52.1514C63.192 51.8589 63.0714 51.8589 62.8303 51.7127C62.9509 51.8589 63.0714 51.8589 63.0714 52.1514C63.5536 52.4438 64.0358 52.8824 64.518 52.1514C64.7591 52.1514 64.8796 52.1514 65.1207 52.1514C65.2413 52.4438 65.4824 52.7362 65.844 52.4438C66.3262 52.1514 66.6879 51.7127 66.6879 50.9816C67.2906 50.543 67.8934 50.8354 68.6167 50.9816C68.6167 51.4203 67.6523 52.0052 68.6167 52.2976C69.0989 52.4438 69.8222 52.59 70.4249 51.8589C70.666 51.5665 70.9071 51.5665 71.1482 51.8589C71.6304 52.7362 72.4742 52.2976 73.077 52.59C73.4386 52.59 73.6797 52.2976 73.6797 51.8589C73.6797 51.5665 73.5592 51.2741 73.5592 50.9816C73.6797 50.6892 73.9208 50.8354 74.1619 50.6892C74.2825 50.3968 74.5236 50.2506 74.7647 50.1044C75.0058 50.1044 75.3674 50.1044 75.6085 50.1044C75.6085 49.9581 75.6085 49.9581 75.488 49.8119C75.488 49.8119 75.488 49.8119 75.6085 49.8119C75.6085 49.9581 75.6085 49.9581 75.6085 50.1044C75.9702 50.6892 75.9702 50.543 76.5729 50.2506C76.9346 50.1044 77.4167 50.1044 77.8989 50.1044C78.5017 50.1044 77.8989 50.543 78.0195 50.6892C78.14 51.1279 78.3811 50.9816 78.6222 50.9816C78.9839 50.9816 79.4661 51.1279 79.7072 50.8354C79.9483 50.543 79.3455 50.3968 79.4661 50.1044C79.8277 50.1044 80.3099 50.1044 80.7921 50.1044C80.1894 50.3968 80.3099 50.3968 80.3099 50.543C80.551 51.2741 81.0332 50.8354 81.3949 50.6892C81.7565 50.3968 81.9976 50.2506 82.4798 50.3968C82.962 50.543 83.4442 50.6892 83.9264 50.3968C84.047 50.2506 84.288 50.2506 84.4086 50.3968C84.7702 51.2741 85.2524 50.6892 85.6141 50.543C85.8552 50.3968 86.0963 50.2506 86.4579 50.2506C87.6634 50.2506 88.8689 50.543 90.195 50.543C90.6772 50.543 90.9183 50.8354 90.6772 51.2741C90.4361 51.7127 90.5566 52.4438 89.9539 52.7362C90.7977 52.8824 91.4005 53.3211 92.0032 52.8824C92.4854 52.59 92.7265 52.7362 93.2087 52.8824C94.4142 53.3211 95.6197 52.7362 96.8252 52.59C96.9457 52.59 96.9457 52.4438 97.0663 52.2976C97.1868 52.1514 97.3074 52.0052 97.4279 52.2976C97.9101 52.8824 98.6334 52.1514 99.2361 52.4438C100.321 53.0287 100.442 52.8825 100.321 51.5665C100.321 51.4203 100.201 51.1279 100.08 50.9816C100.683 50.8354 101.285 50.543 101.888 50.9816C102.009 50.9816 102.129 50.9816 102.37 50.8354C102.25 50.8354 102.009 50.8354 101.888 50.9816C102.129 51.2741 102.491 51.4203 102.732 51.4203C104.058 51.5665 105.264 51.5665 106.59 51.7127C106.831 51.7127 107.072 51.4203 107.192 51.8589C107.313 52.2976 106.951 52.2976 106.71 52.4438C106.71 52.4438 106.469 52.4438 106.469 52.7362C107.192 53.0287 107.795 53.3211 108.639 52.7362C108.398 52.7362 107.916 52.8824 107.916 52.4438C107.795 52.1514 108.036 52.0052 108.277 51.8589C108.518 51.7127 108.639 51.4203 108.88 51.1279C109.001 51.2741 109.001 51.2741 109.121 51.4203C109.121 51.5665 108.76 51.7127 108.88 52.0052C109.242 51.8589 109.362 51.7127 109.483 51.4203C109.603 51.1279 110.086 51.2741 110.327 50.9816C111.05 50.9816 111.653 52.0052 112.617 51.5665C112.738 51.4203 112.979 51.8589 112.979 52.1514C112.979 52.59 112.617 52.59 112.255 52.59C112.014 52.59 111.653 52.1514 111.653 52.7362C111.653 53.1749 112.014 52.8824 112.255 52.8824C112.617 52.8824 113.099 52.8824 113.461 52.8824C113.581 53.1749 113.823 53.3211 114.064 53.3211C115.149 53.3211 116.234 53.3211 117.319 53.4673C117.921 53.6135 118.645 53.4673 119.127 52.8824C119.368 52.7362 119.729 52.7362 119.971 52.8824C119.729 53.7597 119.247 54.0522 118.524 54.3446C117.921 54.637 117.439 55.2219 117.801 55.953C118.042 56.5378 119.609 57.1227 119.971 56.8303C120.091 56.6841 120.332 56.5378 120.332 56.3916C120.091 55.3681 121.176 54.9295 121.297 54.0522C121.297 53.7597 121.538 53.6135 121.779 53.6135C122.382 53.6135 122.864 53.4673 123.467 53.4673C124.069 53.4673 124.793 53.4673 125.154 54.3446C125.516 55.0757 126.36 55.0757 126.721 54.3446C126.962 53.7597 127.324 53.7597 127.686 53.7597C128.288 53.7597 128.771 53.7597 129.373 53.6135C129.856 53.4673 130.217 53.7597 129.976 54.3446C129.856 54.9295 129.856 55.5143 129.856 56.0992C129.856 56.5378 129.735 56.8303 130.217 57.1227C130.579 57.2689 130.82 56.9765 131.061 56.6841C131.302 56.3916 131.423 56.2454 131.664 56.6841C131.905 56.9765 132.146 57.2689 132.387 56.8303C132.628 56.5378 132.869 55.953 132.628 55.5143C132.508 55.2219 132.387 54.7833 132.026 54.7833C131.664 54.9295 131.302 54.9295 131.423 54.3446C131.423 53.7597 131.784 53.6135 132.146 53.6135C132.749 53.7597 133.231 53.7597 133.834 53.7597C134.316 53.7597 134.678 53.906 134.919 54.3446C135.521 55.3681 136.004 55.2219 136.606 54.1984C136.968 53.6135 137.571 52.8825 138.174 53.1749C139.5 53.7597 141.308 53.906 142.393 53.0287C142.634 52.8825 142.754 52.8825 142.875 53.0287C144.442 54.4908 146.009 53.3211 147.576 52.8824C148.059 52.7362 148.059 52.59 148.42 53.1749C148.661 53.7597 149.143 53.906 149.385 53.1749C149.505 53.1749 149.626 53.1749 149.746 53.1749C149.746 53.6135 150.228 53.7597 150.47 53.6135C151.072 53.3211 151.554 53.6135 152.037 53.6135C152.881 53.7597 153.724 53.6135 154.568 53.3211C155.774 53.0287 156.618 53.906 157.341 54.9295C158.064 55.5143 158.426 55.2219 158.908 54.3446C159.27 53.4673 159.872 53.0287 160.957 53.4673C161.922 53.7597 163.127 54.3446 163.971 53.4673C164.574 52.8825 164.935 53.1749 165.418 53.3211C166.623 53.906 167.829 54.1984 169.034 53.3211C169.275 53.1749 169.516 53.0287 169.757 53.3211C170.119 53.6135 170.601 53.6135 170.963 53.7597C171.566 53.906 172.048 53.4673 172.53 53.4673C173.615 53.4673 174.82 53.7597 175.905 53.6135C176.629 53.4673 177.473 54.0522 178.196 53.1749C178.316 52.8825 178.437 53.0287 178.678 53.1749C178.799 53.7597 179.16 53.6135 179.401 53.4673C179.763 53.3211 180.125 53.1749 180.607 53.4673C181.571 53.906 182.656 54.0522 183.621 53.1749C184.344 54.0522 184.585 54.0522 185.308 53.1749C185.549 53.1749 185.79 53.1749 186.152 53.1749C186.273 53.906 186.755 53.7597 187.237 53.906C188.201 53.906 189.045 53.6135 190.01 53.7597C190.974 53.906 191.336 53.6135 191.336 52.59C191.577 52.59 191.697 52.59 191.938 52.59C192.059 52.7362 192.18 52.7362 192.3 52.4438C192.3 52.4438 192.3 52.4438 192.3 52.59C192.18 52.59 192.059 52.59 191.818 52.59C191.818 52.8824 191.818 53.1749 192.059 53.1749C192.3 53.1749 192.541 53.0287 192.662 52.7362C192.541 52.59 192.541 52.59 192.421 52.4438C192.421 52.59 192.421 52.7362 192.541 52.7362C192.903 52.7362 193.385 52.7362 193.747 52.7362C194.229 53.7597 196.399 54.1984 197.002 53.3211C197.122 53.1749 197.122 53.0287 197.122 52.8824C197.243 52.8824 197.363 52.8824 197.484 52.8824C197.604 53.4673 198.328 53.906 197.845 54.637C197.725 54.9295 198.086 55.3681 198.569 55.3681C199.654 55.5143 200.739 55.0757 201.582 54.637C202.547 54.1984 203.391 54.3446 204.114 54.7833C204.837 55.2219 205.44 55.3681 206.043 54.4908C206.645 53.7597 207.128 54.0522 207.369 54.9295C207.489 55.2219 207.489 55.6605 207.489 56.0992C207.369 56.6841 207.248 57.1227 207.971 57.2689C208.574 57.2689 209.056 56.8303 209.056 56.2454C209.177 55.2219 209.418 54.9295 210.262 54.7833C210.503 54.7833 210.865 54.4908 211.106 54.9295C211.226 55.3681 210.744 55.2219 210.503 55.3681C210.141 55.5143 210.141 55.8068 210.141 56.0992C210.141 56.3916 210.262 56.5378 210.624 56.6841C210.865 56.6841 211.226 56.6841 211.226 56.5378C211.347 55.953 211.95 55.6605 211.95 55.2219C212.07 54.637 212.191 54.4908 212.793 54.4908C213.276 54.4908 213.517 54.9295 213.517 55.3681C213.517 55.8068 213.758 55.953 214.119 56.0992C214.481 56.0992 214.722 55.953 214.722 55.5143C214.963 54.4908 215.566 54.4908 216.169 55.2219C216.53 55.6605 216.772 55.953 217.374 55.5143C217.615 55.3681 217.857 55.3681 218.218 55.5143C218.941 55.8068 219.303 55.3681 219.424 54.4908C219.424 54.0522 219.544 53.6135 219.665 53.3211C219.785 53.3211 219.785 53.3211 219.906 53.3211C220.267 54.0522 220.75 54.1984 221.352 53.906C221.835 53.7597 222.317 53.6135 222.799 54.0522C223.884 54.7833 224.005 54.7833 224.366 53.4673C224.607 53.4673 224.848 53.4673 224.969 53.4673C224.969 53.906 225.21 54.3446 224.969 54.9295C224.848 55.2219 224.969 55.6605 225.21 55.6605C226.054 55.6605 226.657 56.5378 227.38 56.3916C228.344 56.2454 229.55 56.5378 230.153 55.2219C230.273 55.0757 230.394 54.7833 230.755 54.7833C230.755 55.2219 230.635 55.8068 231.358 55.8068C232.081 55.8068 231.961 55.2219 232.081 54.4908C232.322 55.5143 232.684 55.953 233.407 55.8068C234.251 55.6605 234.854 56.0992 234.974 57.1227C235.095 57.5614 235.336 57.7076 235.818 57.7076C236.18 57.7076 236.542 57.7076 236.662 57.1227C236.783 56.6841 237.024 56.2454 237.144 55.8068C237.265 55.5143 237.385 55.3681 237.627 55.3681C238.47 55.2219 239.555 56.3916 239.676 57.2689C239.676 57.7076 239.917 57.8538 240.279 57.8538C240.52 57.8538 240.761 57.7076 241.002 57.7076C242.328 58 242.328 58 242.207 56.5378C242.207 56.3916 242.207 56.2454 242.328 56.0992C242.449 55.953 242.69 56.0992 242.81 56.2454C242.931 56.3916 242.931 56.6841 243.172 56.8303C243.775 57.7076 244.98 57.8538 245.583 56.9765C245.944 56.5378 246.065 56.9765 246.186 57.1227C246.547 57.4151 246.909 57.8538 247.391 57.1227C247.632 56.6841 247.873 56.9765 247.873 57.4151C247.873 57.7076 247.994 58 248.355 58C248.717 58 248.717 57.7076 248.717 57.4151C248.717 56.5378 249.32 56.2454 250.164 56.2454C250.887 56.2454 252.454 56.3916 252.213 55.5143C251.851 54.1984 253.177 54.1984 252.936 53.3211C252.936 53.3211 252.936 53.3211 252.936 53.1749C252.936 52.59 252.816 51.8589 253.78 52.2976C254.142 52.4438 254.383 52.1514 254.383 51.7127C254.383 51.2741 253.901 51.2741 253.66 50.9816C254.021 50.8354 254.383 50.6892 254.745 50.6892C255.106 50.6892 255.468 50.6892 255.829 50.543C256.191 50.543 256.673 50.3968 256.553 49.9581C256.312 49.0808 257.035 48.6422 257.276 48.0573C257.397 47.9111 257.517 47.7649 257.758 47.6187C257.879 47.3263 257.999 47.0338 257.999 46.8876C257.517 45.5717 257.276 45.8641 257.035 46.0103ZM20.9998 48.0573C20.9998 48.0573 20.8792 48.0573 20.9998 48.0573V48.0573ZM35.3451 27.7334C35.3451 27.7334 35.4657 27.7334 35.3451 27.7334C35.4657 27.7334 35.3451 27.7334 35.3451 27.7334ZM29.5587 8.57909C29.5587 8.57909 29.5587 8.72531 29.5587 8.57909C29.5587 8.72531 29.5587 8.72531 29.5587 8.57909C29.4382 8.72531 29.5587 8.72531 29.5587 8.57909ZM28.956 5.94721C28.956 5.801 28.8355 5.801 28.956 5.94721C28.8355 5.801 28.8355 5.801 28.956 5.94721C28.956 5.801 28.956 5.801 28.956 5.94721ZM14.0079 40.1617C14.1285 40.1617 14.1285 40.1617 14.249 40.0155C14.249 40.1617 14.1285 40.1617 14.0079 40.1617ZM31.367 7.11694C31.6081 7.26315 31.8492 7.11694 31.9697 7.11694C31.6081 7.11694 31.2464 7.26315 30.8848 7.40937C31.1259 7.55558 31.367 7.40937 31.367 7.11694ZM212.793 13.4042C212.793 13.4042 212.914 13.4042 212.793 13.4042C212.793 13.5504 212.673 13.5504 212.673 13.6966C212.793 13.6966 212.793 13.5504 212.793 13.4042ZM149.143 49.9581H149.023C149.143 49.9581 149.143 49.9581 149.143 49.9581ZM144.563 9.16396C144.563 9.16396 144.683 9.16396 144.563 9.16396V9.16396ZM207.489 13.6966L207.61 13.8429C207.61 13.8429 207.489 13.8429 207.489 13.6966ZM172.53 49.6657C172.409 49.6657 172.53 49.6657 172.53 49.6657C172.409 49.6657 172.409 49.6657 172.53 49.6657C172.651 49.6657 172.771 49.6657 172.892 49.6657C172.771 49.6657 172.651 49.6657 172.53 49.6657ZM100.562 5.801C100.442 5.801 100.562 5.801 100.562 5.801V5.801ZM103.335 6.97072C103.214 6.97072 103.094 6.97072 102.973 6.97072C103.214 6.82451 103.214 6.82451 103.335 6.97072ZM139.982 8.87153C140.102 8.87153 140.102 8.87153 140.223 8.87153C140.223 8.87153 140.102 8.87153 139.982 8.87153ZM31.6081 39.1382C31.7286 39.1382 31.8492 39.1382 31.9697 39.1382H31.8492C31.7286 39.1382 31.7286 39.1382 31.6081 39.1382ZM54.7535 7.40937H54.8741C54.8741 7.40937 54.8741 7.40937 54.7535 7.40937ZM152.037 9.6026C152.037 9.6026 151.916 9.6026 152.037 9.6026C151.916 9.6026 151.916 9.6026 151.916 9.6026C151.916 9.6026 151.916 9.6026 152.037 9.6026ZM225.331 26.2712C225.692 26.2712 225.692 26.125 225.692 25.8325H225.813C225.813 25.9788 225.572 26.125 225.331 26.2712ZM37.8766 14.7202C37.9972 14.7202 37.9972 14.7202 37.9972 14.8664C37.8766 14.8664 37.8766 14.8664 37.7561 14.8664C37.8766 14.7202 37.7561 14.7202 37.8766 14.7202ZM43.663 7.84802C43.663 7.84802 43.5424 7.84802 43.663 7.84802C43.5424 7.84802 43.663 7.84802 43.663 7.84802ZM109.242 8.72531H109.362C109.362 8.72531 109.362 8.72531 109.242 8.72531C109.362 8.72531 109.242 8.72531 109.242 8.72531ZM128.409 8.28666C128.409 8.28666 128.288 8.28666 128.409 8.28666C128.288 8.28666 128.288 8.28666 128.409 8.28666C128.288 8.28666 128.409 8.28666 128.409 8.28666ZM161.681 11.5034C161.681 11.6496 161.801 11.5034 161.681 11.5034C161.801 11.6496 161.681 11.6496 161.681 11.5034C161.681 11.6496 161.681 11.5034 161.681 11.5034ZM110.568 12.3807C110.568 12.3807 110.688 12.3807 110.809 12.3807C110.929 12.3807 111.05 12.3807 111.171 12.3807C110.929 12.3807 110.688 12.3807 110.447 12.5269C110.447 12.5269 110.568 12.5269 110.568 12.3807ZM203.029 14.5739C203.029 14.5739 203.15 14.5739 203.15 14.7202C203.029 14.5739 203.029 14.5739 203.029 14.5739ZM214.602 46.5952C214.602 46.5952 214.722 46.5952 214.602 46.5952C214.722 46.5952 214.722 46.7414 214.602 46.5952C214.602 46.5952 214.602 46.7414 214.602 46.5952ZM52.222 39.2844C52.222 39.1382 52.222 39.1382 52.1014 38.992C52.222 38.992 52.222 39.1382 52.222 39.2844C52.222 39.1382 52.222 39.1382 52.222 39.2844ZM201.341 17.6445C201.341 17.4983 201.341 17.4983 201.341 17.6445C201.341 17.4983 201.341 17.4983 201.341 17.6445ZM218.7 47.0338C218.7 47.0338 218.821 47.0338 218.7 47.0338C218.7 47.18 218.7 47.18 218.7 47.0338ZM211.829 22.762C211.829 22.9082 211.829 22.9082 211.829 22.762C211.708 22.762 211.829 22.762 211.829 22.762ZM214.361 38.5533C214.361 38.5533 214.481 38.5533 214.361 38.5533C214.481 38.5533 214.481 38.5533 214.361 38.5533ZM210.744 37.8222C210.744 37.9684 210.744 38.2609 210.865 38.4071C210.624 38.2609 210.503 38.1147 210.744 37.8222C210.624 37.8222 210.624 37.8222 210.744 37.8222ZM214.481 43.6709C214.481 43.6709 214.361 43.6709 214.481 43.6709V43.6709ZM214.963 38.5533C214.963 38.4071 214.963 38.4071 214.963 38.5533C215.084 38.4071 214.963 38.4071 214.963 38.5533ZM104.781 16.0361C104.781 16.1823 104.661 16.1823 104.661 16.3285C104.781 16.1823 104.781 16.0361 104.781 16.0361ZM92.7265 16.0361C92.6059 16.1823 92.3648 16.3285 92.2443 16.4747C92.3648 16.3285 92.4854 16.1823 92.7265 16.0361ZM101.888 25.5401C101.768 25.5401 101.768 25.5401 101.768 25.5401H101.888ZM157.582 25.6863C157.461 25.6863 157.461 25.8325 157.341 25.8325V25.6863C157.461 25.6863 157.582 25.6863 157.582 25.6863ZM169.034 24.6628C169.155 24.5166 169.155 24.6628 169.034 24.6628C169.155 24.6628 169.155 24.6628 169.034 24.6628C169.155 24.6628 169.034 24.6628 169.034 24.6628ZM165.538 32.1198C165.659 31.9736 165.418 31.8274 165.418 31.6812C165.538 31.8274 165.538 31.9736 165.538 32.1198C165.659 32.1198 165.538 32.1198 165.538 32.1198ZM161.922 35.9214C161.922 36.0676 161.922 36.0676 161.922 35.9214C161.922 36.0676 161.801 36.0676 161.922 35.9214C161.801 36.0676 161.922 36.0676 161.922 35.9214ZM170.722 36.5063C170.842 36.6525 170.842 36.7987 170.842 36.9449C170.842 36.7987 170.722 36.5063 170.722 36.5063ZM171.445 23.4931H171.325H171.445ZM169.757 23.4931C169.757 23.6393 169.757 23.4931 169.757 23.4931C169.637 23.4931 169.757 23.4931 169.757 23.4931ZM166.382 21.8847C166.261 21.8847 166.261 21.8847 166.382 21.8847C166.261 21.8847 166.261 21.8847 166.382 21.8847C166.261 21.8847 166.261 21.8847 166.382 21.8847ZM168.552 41.3314C168.552 41.4776 168.552 41.4776 168.552 41.3314C168.552 41.4776 168.552 41.4776 168.552 41.3314C168.552 41.4776 168.552 41.4776 168.552 41.3314ZM185.67 33.582C185.549 33.582 185.549 33.4358 185.429 33.582H185.308C185.429 33.582 185.549 33.582 185.67 33.582ZM181.451 29.4879C181.33 29.4879 181.33 29.4879 181.451 29.4879C181.33 29.4879 181.451 29.4879 181.451 29.4879ZM197.725 33.2895C197.725 33.2895 197.725 33.4358 197.725 33.2895C197.725 33.4358 197.725 33.4358 197.725 33.2895ZM206.404 19.3991H206.525V19.5453C206.525 19.5453 206.525 19.5453 206.404 19.3991ZM181.812 23.3469C181.812 23.3469 181.812 23.4931 181.812 23.3469V23.3469ZM162.042 22.1772C162.163 22.3234 162.163 22.1772 162.283 22.3234C162.163 22.3234 162.042 22.1772 161.922 22.1772C161.922 22.1772 162.042 22.0309 162.042 22.1772ZM159.149 21.2999C159.27 21.2999 159.39 21.2999 159.511 21.2999C159.511 21.4461 159.27 21.2999 159.149 21.2999ZM117.439 19.6915C117.56 19.5453 117.68 19.6915 117.68 19.5453C117.56 19.6915 117.439 19.6915 117.439 19.6915ZM135.763 17.6445C135.642 17.6445 135.401 17.4983 135.28 17.352C135.401 17.4983 135.521 17.4983 135.763 17.6445ZM132.869 16.3285C133.11 16.3285 133.11 16.4747 133.231 16.4747C133.11 16.4747 132.99 16.4747 132.869 16.3285ZM114.666 19.6915C114.787 19.6915 114.908 19.8377 115.028 19.8377C114.908 19.8377 114.787 19.6915 114.666 19.6915ZM123.708 19.5453C123.708 19.5453 123.828 19.5453 123.949 19.5453C123.828 19.5453 123.708 19.6915 123.708 19.8377C123.708 19.6915 123.587 19.5453 123.708 19.5453ZM133.472 21.8847C133.593 21.8847 133.593 22.0309 133.472 21.8847C133.593 22.0309 133.593 22.0309 133.472 21.8847C133.593 22.0309 133.593 21.8847 133.472 21.8847ZM180.245 34.6055C180.125 34.7517 180.125 34.6055 180.245 34.6055C180.125 34.6055 180.245 34.6055 180.245 34.6055ZM183.379 32.9971C183.379 32.8509 183.259 32.9971 183.259 32.8509C183.259 32.9971 183.379 32.9971 183.379 32.9971ZM203.873 18.668C203.873 18.668 203.993 18.668 203.873 18.668C203.993 18.668 203.993 18.668 203.873 18.668ZM200.256 18.3755C200.377 18.2293 200.497 18.2293 200.497 18.3755C200.377 18.2293 200.377 18.2293 200.256 18.3755ZM163.368 18.0831C163.248 18.0831 163.248 18.0831 163.368 18.0831C163.248 18.0831 163.368 18.0831 163.368 18.0831ZM112.135 19.1066C112.014 19.1066 111.894 19.1066 111.894 19.1066C111.894 19.1066 112.014 19.1066 112.135 19.1066ZM93.4498 11.9421C93.3292 11.9421 93.2087 11.7958 93.0881 11.7958H93.2087C93.3292 11.7958 93.3292 11.9421 93.4498 11.9421ZM134.798 29.6342C134.798 30.0728 135.16 30.219 135.521 30.3652C135.28 30.219 135.039 29.9266 134.798 29.6342ZM153.965 31.2425C153.845 31.3887 153.845 31.3887 153.724 31.535C153.604 31.3887 153.483 31.3887 153.483 31.2425C153.483 31.2425 153.724 31.2425 153.965 31.2425ZM201.462 31.3887C201.341 31.3887 201.1 31.2425 201.1 31.0963C201.221 31.2425 201.462 31.2425 201.582 31.3887C201.582 31.3887 201.582 31.3887 201.462 31.3887ZM218.339 43.6709C218.339 43.8171 218.339 43.9633 218.339 44.1095C218.459 43.9633 218.459 43.8171 218.339 43.6709ZM217.857 22.762C217.977 22.762 217.977 22.762 217.977 22.6158C218.098 22.762 217.977 22.762 217.857 22.762C217.977 22.762 217.977 22.762 217.857 22.762ZM218.941 20.8612C218.941 20.715 218.941 20.715 218.941 20.8612V20.8612ZM223.643 22.1772H223.522C223.643 22.1772 223.643 22.1772 223.643 22.1772ZM143.719 16.621C143.719 16.621 143.839 16.621 143.719 16.621C143.839 16.621 143.719 16.621 143.719 16.621ZM117.077 10.1875C117.077 10.0413 117.077 10.1875 117.077 10.1875V10.1875ZM107.795 16.7672C107.795 16.7672 107.795 16.621 107.795 16.7672C107.916 16.621 107.916 16.621 108.036 16.621C107.916 16.7672 107.795 16.7672 107.795 16.7672ZM92.2443 10.9185C92.1237 10.9185 92.0032 10.9185 92.0032 10.7723C92.3648 10.7723 92.6059 10.7723 92.9676 10.6261C92.6059 10.9185 92.4854 11.0648 92.2443 10.9185ZM75.3674 18.3755C75.3674 18.2293 75.3674 18.2293 75.3674 18.3755C75.3674 18.2293 75.3674 18.2293 75.3674 18.3755C75.3674 18.2293 75.3674 18.2293 75.3674 18.3755ZM48.8466 31.0963C48.7261 31.0963 48.7261 31.0963 48.8466 31.0963V31.0963ZM54.0302 39.1382C54.0302 39.1382 54.1508 39.1382 54.1508 39.2844C54.1508 39.1382 54.0302 39.1382 54.0302 39.1382ZM65.3618 14.8664C65.3618 14.8664 65.3618 14.7202 65.3618 14.8664C65.3618 14.7202 65.3618 14.7202 65.3618 14.8664C65.3618 14.7202 65.4824 14.8664 65.3618 14.8664ZM55.8385 15.4512C55.8385 15.4512 55.959 15.4512 55.8385 15.4512H55.7179H55.8385ZM49.2083 38.6995C49.2083 38.6995 49.0877 38.6995 49.2083 38.6995C49.0877 38.6995 49.2083 38.6995 49.2083 38.6995ZM143.478 34.6055C143.598 34.6055 143.478 34.6055 143.478 34.6055V34.6055ZM143.478 34.6055C143.478 34.4593 143.478 34.1668 143.478 34.0206C143.478 34.1668 143.357 34.3131 143.478 34.6055ZM163.127 41.6238C163.007 41.6238 163.007 41.4776 162.886 41.4776C163.007 41.6238 163.127 41.4776 163.127 41.6238ZM210.382 42.9398C210.382 42.9398 210.262 42.9398 210.382 42.9398C210.262 43.086 210.262 43.086 210.382 42.9398C210.262 42.9398 210.262 42.9398 210.382 42.9398ZM212.07 46.1565C211.95 46.1565 212.07 46.1565 212.07 46.1565V46.1565ZM220.991 42.0625C221.111 41.9163 221.473 41.9163 221.594 42.0625C221.594 42.0625 221.594 42.0625 221.714 42.0625C221.352 41.9163 221.111 41.9163 220.991 42.0625ZM221.473 37.9684C221.473 38.1147 221.473 38.1147 221.473 37.9684C221.473 38.1147 221.473 38.1147 221.473 37.9684C221.473 38.1147 221.473 37.9684 221.473 37.9684ZM213.396 31.9736C213.396 31.8274 213.396 31.8274 213.396 31.9736C213.396 31.8274 213.396 31.8274 213.396 31.9736C213.396 31.8274 213.396 31.8274 213.396 31.9736C213.396 31.8274 213.396 31.9736 213.396 31.9736ZM170.481 14.1353H170.36C170.481 13.9891 170.481 13.9891 170.481 14.1353C170.481 13.9891 170.481 13.9891 170.481 14.1353ZM165.177 16.4747C165.056 16.4747 165.177 16.4747 165.177 16.4747V16.4747ZM158.305 13.258C158.426 13.258 158.546 13.4042 158.667 13.5504C158.546 13.5504 158.426 13.5504 158.305 13.258ZM113.22 13.1118C113.22 12.9656 113.34 12.9656 113.461 12.9656C113.34 12.9656 113.34 12.9656 113.22 13.1118ZM66.929 27.2947C67.0495 27.2947 67.0495 27.2947 66.929 27.2947C67.0495 27.2947 67.0495 27.4409 66.929 27.2947C66.929 27.4409 66.929 27.4409 66.929 27.5871C66.929 27.4409 67.0495 27.4409 66.929 27.2947ZM78.7428 17.0596C78.6222 17.2058 78.6222 17.2058 78.7428 17.0596C78.6222 17.2058 78.6222 17.0596 78.7428 17.0596C78.6222 17.0596 78.6222 17.2058 78.7428 17.0596C78.7428 16.9134 78.9839 16.621 78.9839 16.7672C78.8633 16.9134 78.6222 16.7672 78.7428 17.0596ZM89.9539 31.3887C89.8333 31.3887 89.8333 31.535 89.7128 31.3887C89.8333 31.3887 89.8333 31.3887 89.9539 31.3887ZM103.455 27.1485C103.576 27.1485 103.696 27.1485 103.696 27.2947C103.455 27.1485 103.335 27.1485 103.094 27.0023C103.214 27.0023 103.455 27.0023 103.455 27.1485ZM161.56 44.5482C161.56 44.4019 161.56 44.4019 161.56 44.5482C161.56 44.4019 161.681 44.4019 161.681 44.4019C161.681 44.4019 161.681 44.5482 161.56 44.5482ZM205.199 38.6995C205.319 38.6995 205.199 38.6995 205.199 38.6995C205.199 38.8457 205.199 38.8457 205.199 38.6995ZM209.056 40.1617C208.695 40.3079 208.574 40.6003 208.454 40.8928C208.695 40.6003 208.815 40.4541 209.056 40.1617ZM207.971 43.6709C207.971 43.6709 208.092 43.6709 207.971 43.6709C208.092 43.6709 207.971 43.6709 207.971 43.6709ZM222.92 41.9163C222.92 41.9163 223.04 41.9163 223.04 41.7701C223.04 41.9163 222.92 41.9163 222.92 41.9163ZM216.651 32.5585C216.651 32.5585 216.772 32.4123 216.772 32.266C216.772 32.4123 216.651 32.4123 216.651 32.5585ZM211.588 27.1485C211.708 27.1485 211.708 27.1485 211.588 27.1485H211.467C211.588 27.1485 211.588 27.1485 211.588 27.1485ZM218.58 26.125C218.7 26.125 218.7 26.2712 218.821 26.2712C218.7 26.2712 218.7 26.2712 218.58 26.125ZM201.341 17.352C201.341 17.352 201.221 17.352 201.341 17.352C201.221 17.352 201.221 17.352 201.341 17.352ZM117.921 8.87153C117.921 8.87153 117.801 8.87153 117.921 8.87153C117.801 8.87153 117.801 8.87153 117.921 8.87153ZM99.7183 11.3572H99.8389C99.8389 11.211 99.8389 11.211 99.7183 11.3572ZM45.7123 9.89504C45.7123 9.89504 45.8329 9.89504 45.8329 9.74882C45.8329 9.74882 45.7123 9.74882 45.7123 9.89504ZM47.4 9.16396H47.5206H47.4ZM99.8389 27.4409C99.7183 27.4409 99.7183 27.4409 99.8389 27.4409C99.7183 27.4409 99.7183 27.4409 99.8389 27.4409ZM222.92 42.2087C222.92 42.3549 222.92 42.3549 222.92 42.2087C222.92 42.3549 222.92 42.2087 222.92 42.2087ZM236.542 25.9788C236.542 25.9788 236.421 25.9788 236.542 25.9788C236.421 25.9788 236.542 25.9788 236.542 25.9788ZM222.196 16.621C222.196 16.621 222.076 16.7672 222.196 16.621C222.076 16.621 222.076 16.621 222.196 16.621ZM198.81 15.4512C198.81 15.5974 198.81 15.5974 198.81 15.4512V15.4512ZM182.897 14.8664C182.897 14.8664 183.018 14.8664 182.897 14.8664C183.018 14.8664 182.897 14.8664 182.897 14.8664ZM179.04 12.5269C179.16 12.5269 179.16 12.5269 179.281 12.5269C179.16 12.6731 179.04 12.6731 179.04 12.5269ZM169.155 12.8193C169.155 12.6731 169.155 12.8193 169.155 12.8193C169.275 12.8193 169.155 12.8193 169.155 12.8193ZM110.929 9.31017C111.171 9.31017 111.291 9.31017 111.532 9.31017C111.653 9.31017 111.894 9.31017 112.014 9.31017C111.653 9.31017 111.291 9.31017 110.929 9.31017ZM50.4137 9.45639C50.5343 9.45639 50.4137 9.6026 50.4137 9.45639V9.45639ZM120.212 47.4725C120.212 47.6187 120.212 47.6187 120.212 47.4725C120.212 47.6187 120.212 47.6187 120.212 47.4725C120.212 47.6187 120.212 47.6187 120.212 47.4725C120.212 47.6187 120.212 47.6187 120.212 47.4725C120.212 47.6187 120.212 47.4725 120.212 47.4725ZM136.245 37.0912C136.245 37.5298 136.004 37.8222 136.245 38.2609C136.365 37.8222 136.245 37.5298 136.245 37.0912ZM181.21 47.9111C181.21 47.9111 181.089 48.0573 181.21 47.9111C181.089 48.0573 180.968 48.0573 180.968 48.0573C180.968 47.9111 181.089 47.9111 181.21 47.9111ZM212.311 48.0573H212.191C212.191 48.0573 212.191 48.0573 212.311 48.0573ZM214.722 47.7649C214.843 47.7649 214.843 47.7649 214.963 47.7649C214.963 47.7649 214.963 47.7649 214.963 47.9111C214.722 47.7649 214.722 47.7649 214.722 47.7649ZM221.714 47.7649C221.835 47.7649 221.835 47.6187 221.955 47.6187C221.835 47.7649 221.835 47.7649 221.714 47.7649ZM225.813 44.1095C225.813 44.2557 225.933 44.1095 225.813 44.1095C225.933 44.2557 225.933 44.1095 225.813 44.1095C225.813 44.2557 225.813 44.1095 225.813 44.1095ZM223.522 26.7098C223.643 26.7098 223.643 26.7098 223.763 26.7098C223.643 26.7098 223.643 26.7098 223.522 26.7098ZM214.361 14.5739C214.481 14.5739 214.481 14.5739 214.361 14.5739C214.481 14.5739 214.361 14.5739 214.361 14.5739ZM211.347 14.8664C211.347 14.8664 211.226 14.8664 211.347 14.8664V14.8664ZM172.048 13.258H172.168C172.168 13.258 172.168 13.258 172.048 13.258ZM115.149 8.14045C114.908 7.7018 114.425 7.7018 114.064 7.55558C114.425 7.55558 114.908 7.7018 115.149 8.14045ZM63.4331 9.45639L63.5536 9.31017C63.5536 9.31017 63.5536 9.45639 63.4331 9.45639ZM34.8629 9.01774C34.7424 9.01774 34.7424 9.01774 34.8629 9.01774C34.7424 9.01774 34.7424 9.01774 34.8629 9.01774ZM43.663 32.5585C43.663 32.7047 43.663 32.7047 43.7835 32.8509C43.663 32.8509 43.663 32.8509 43.5424 32.8509C43.663 32.7047 43.663 32.7047 43.663 32.5585ZM139.379 48.496C139.5 48.496 139.62 48.496 139.741 48.496C139.5 48.496 139.379 48.496 139.379 48.496C139.258 48.496 139.138 48.496 139.017 48.496C139.138 48.496 139.258 48.496 139.379 48.496ZM145.165 44.5482C145.165 44.5482 145.165 44.6944 145.165 44.5482V44.5482ZM208.333 49.0808C208.333 49.2271 208.333 49.2271 208.333 49.0808C208.333 49.2271 208.333 49.2271 208.333 49.0808ZM225.451 48.6422H225.572C225.572 48.7884 225.572 48.7884 225.451 48.6422C225.451 48.7884 225.451 48.7884 225.451 48.6422ZM229.068 26.7098C228.947 26.7098 228.947 26.7098 229.068 26.7098C228.947 26.7098 228.947 26.7098 228.947 26.7098C228.947 26.7098 228.947 26.5636 229.068 26.7098C228.947 26.7098 228.947 26.7098 229.068 26.7098ZM226.777 17.352C226.777 17.2058 226.777 17.352 226.777 17.352V17.352ZM173.494 12.5269C173.374 12.5269 173.374 12.5269 173.494 12.5269C173.374 12.5269 173.374 12.5269 173.494 12.5269C173.374 12.5269 173.374 12.5269 173.494 12.5269ZM94.8964 6.97072C94.8964 6.82451 94.8964 6.97072 94.8964 6.97072V6.82451C94.8964 6.82451 94.8964 6.82451 94.8964 6.97072ZM94.5347 6.23964H94.6553C94.5347 6.23964 94.5347 6.23964 94.5347 6.23964ZM84.1675 6.53207C84.1675 6.53207 84.288 6.53207 84.1675 6.53207V6.53207ZM33.8985 40.7465C33.8985 40.7465 34.0191 40.7465 33.8985 40.7465C34.0191 40.7465 33.8985 40.7465 33.8985 40.7465ZM97.1868 38.992C97.1868 39.1382 97.1868 39.1382 97.3074 39.1382H97.1868C97.0663 38.992 97.1868 39.1382 97.1868 38.992ZM124.431 42.0625C124.431 42.0625 124.431 41.9163 124.431 42.0625V42.0625ZM137.932 48.6422C137.812 48.6422 137.812 48.7884 137.812 48.9346C137.812 48.9346 137.932 48.7884 137.932 48.6422ZM149.987 48.6422C149.987 48.7884 149.867 48.6422 149.987 48.6422C149.867 48.7884 149.867 48.6422 149.987 48.6422C149.867 48.6422 149.987 48.6422 149.987 48.6422ZM178.557 50.3968C178.557 50.2506 178.437 50.2506 178.437 50.1044C178.557 50.1044 178.557 50.2506 178.678 50.3968C178.557 50.3968 178.557 50.3968 178.557 50.3968ZM217.736 48.7884C217.736 48.7884 217.615 48.7884 217.615 48.6422C217.615 48.6422 217.615 48.7884 217.736 48.7884ZM242.087 46.0103C241.966 46.0103 241.846 46.0103 241.846 46.0103C241.846 46.0103 241.846 46.0103 241.966 46.0103C241.966 46.0103 241.966 45.8641 242.087 46.0103ZM237.385 23.3469C237.265 23.3469 237.265 23.2007 237.385 23.3469C237.265 23.2007 237.265 23.2007 237.385 23.3469C237.385 23.2007 237.385 23.2007 237.385 23.3469ZM134.678 7.7018C134.678 7.7018 134.798 7.7018 134.798 7.84802C134.798 7.84802 134.678 7.84802 134.678 7.7018ZM131.664 7.40937H131.784C131.784 7.40937 131.784 7.40937 131.664 7.40937C131.784 7.40937 131.664 7.40937 131.664 7.40937ZM101.285 7.11694C101.406 7.11694 101.406 7.11694 101.285 7.11694C101.406 7.11694 101.406 7.11694 101.285 7.11694C101.406 7.11694 101.406 7.11694 101.285 7.11694ZM98.2717 5.94721C98.2717 5.94721 98.1512 5.94721 98.2717 5.94721C98.1512 5.94721 98.2717 5.94721 98.2717 5.94721ZM51.9809 7.11694C52.1014 6.97072 51.9809 6.97072 51.8603 6.97072C51.9809 6.97072 52.1014 6.97072 52.222 6.97072C52.1014 7.11694 52.1014 7.11694 51.9809 7.11694ZM49.0877 6.23964C49.0877 6.23964 49.2083 6.23964 49.0877 6.23964C49.2083 6.23964 49.2083 6.23964 49.0877 6.23964C49.2083 6.23964 49.0877 6.23964 49.0877 6.23964ZM42.337 6.53207V6.67829V6.53207ZM33.5369 32.7047C33.5369 32.5585 33.5369 32.7047 33.5369 32.7047C33.5369 32.5585 33.5369 32.5585 33.5369 32.7047C33.5369 32.5585 33.5369 32.5585 33.5369 32.7047C33.5369 32.5585 33.5369 32.5585 33.5369 32.7047ZM25.8217 36.5063C25.9423 36.5063 26.0628 36.6525 26.0628 36.7987C26.0628 36.6525 26.0628 36.5063 25.8217 36.5063ZM32.2108 47.3263C32.3314 47.3263 32.3314 47.3263 32.4519 47.3263C32.3314 47.3263 32.4519 47.4725 32.4519 47.4725C32.3314 47.4725 32.2108 47.4725 32.2108 47.3263ZM199.171 49.2271C199.292 49.2271 199.292 49.2271 199.412 49.2271C199.412 49.2271 199.412 49.2271 199.292 49.2271C199.412 49.2271 199.292 49.2271 199.171 49.2271C199.292 49.2271 199.292 49.2271 199.171 49.2271ZM230.273 49.2271C230.153 49.2271 230.032 49.2271 229.911 49.2271C230.032 49.2271 230.153 49.2271 230.273 49.2271ZM229.67 37.2374C229.791 37.2374 229.791 37.2374 229.67 37.2374C229.791 37.2374 229.791 37.2374 229.67 37.2374ZM239.796 22.762C239.796 22.762 239.796 22.9082 239.796 22.762C239.796 22.9082 239.796 22.762 239.796 22.762ZM218.58 14.5739C218.459 14.5739 218.459 14.5739 218.58 14.5739V14.5739ZM200.739 11.9421C200.618 11.9421 200.618 11.9421 200.739 11.9421C200.618 11.9421 200.618 11.9421 200.739 11.9421C200.618 11.9421 200.618 11.9421 200.739 11.9421ZM181.451 10.4799C181.451 10.4799 181.571 10.4799 181.451 10.4799C181.571 10.4799 181.571 10.4799 181.451 10.4799ZM144.201 7.55558C144.201 7.7018 144.322 7.7018 144.201 7.55558C144.201 7.7018 144.201 7.7018 144.201 7.55558ZM134.195 7.40937C134.195 7.40937 134.316 7.40937 134.436 7.40937C134.436 7.40937 134.316 7.40937 134.195 7.40937ZM133.713 6.38586C133.713 6.53207 133.713 6.38586 133.713 6.38586V6.38586ZM102.009 5.06992C102.009 5.06992 101.888 5.06992 102.009 5.06992C102.009 4.9237 102.009 4.9237 102.009 4.77749C101.888 4.9237 101.888 4.9237 102.009 5.06992ZM66.3262 6.38586C66.4468 6.38586 66.4468 6.38586 66.3262 6.38586C66.4468 6.38586 66.3262 6.38586 66.3262 6.38586ZM38.2383 5.36235C38.2383 5.36235 38.3588 5.36235 38.2383 5.36235C38.3588 5.36235 38.3588 5.36235 38.2383 5.36235C38.3588 5.36235 38.3588 5.36235 38.2383 5.36235ZM26.0628 18.9604C26.1834 18.9604 26.1834 18.9604 26.0628 18.9604C26.1834 19.1066 26.1834 19.1066 26.1834 19.2528C26.1834 19.1066 26.1834 18.9604 26.0628 18.9604ZM33.5369 18.8142C33.8985 18.5218 34.1396 18.668 34.3807 18.9604C34.0191 18.8142 33.778 18.8142 33.5369 18.8142ZM36.43 26.8561C36.43 26.7098 36.3095 26.7098 36.3095 26.5636C36.3095 26.7098 36.3095 26.7098 36.43 26.8561ZM22.2052 38.6995C22.0847 38.6995 22.0847 38.6995 22.2052 38.6995C22.0847 38.6995 22.0847 38.6995 22.2052 38.6995C22.0847 38.6995 22.0847 38.6995 22.2052 38.6995ZM232.925 30.219C232.925 30.3652 232.925 30.3652 232.925 30.219C232.805 30.219 232.684 30.219 232.684 30.219C232.805 30.219 232.925 30.219 232.925 30.219ZM243.172 28.172C243.172 28.172 243.051 28.3182 242.931 28.0258C242.931 28.172 243.051 28.172 243.172 28.172ZM147.094 6.82451C147.094 6.97072 147.094 6.97072 147.094 6.82451C147.094 6.97072 147.094 6.97072 147.094 6.82451C147.094 6.97072 147.094 6.82451 147.094 6.82451ZM134.557 6.67829C134.557 6.67829 134.678 6.67829 134.557 6.67829C134.678 6.67829 134.678 6.67829 134.557 6.67829C134.678 6.67829 134.678 6.67829 134.557 6.67829ZM116.957 5.21613C117.198 5.21613 117.319 5.21613 117.56 5.21613C117.319 5.21613 117.077 5.21613 116.957 5.21613ZM32.0903 4.9237C32.0903 4.9237 32.0903 4.77749 32.0903 4.9237C32.0903 4.77749 32.2108 4.9237 32.0903 4.9237C32.2108 4.9237 32.0903 4.9237 32.0903 4.9237ZM27.1478 19.6915C27.0272 19.6915 26.9067 19.6915 26.9067 19.6915C26.9067 19.6915 27.0272 19.6915 27.1478 19.6915ZM16.4189 41.3314C16.4189 41.4776 16.4189 41.4776 16.4189 41.3314C16.2983 41.3314 16.4189 41.3314 16.4189 41.3314ZM29.6793 48.3498C29.6793 48.3498 29.5587 48.2035 29.6793 48.2035C29.6793 48.0573 29.6793 48.2035 29.6793 48.3498C29.6793 48.2035 29.6793 48.2035 29.6793 48.3498ZM108.277 49.3733C108.398 49.3733 108.398 49.3733 108.277 49.3733C108.398 49.3733 108.277 49.3733 108.277 49.3733ZM108.76 49.3733C108.76 49.3733 108.639 49.3733 108.76 49.3733C108.639 49.3733 108.639 49.3733 108.76 49.3733ZM160.957 49.5195C161.078 49.5195 161.198 49.5195 161.198 49.5195C161.319 49.6657 161.56 49.6657 161.801 49.6657C161.319 49.6657 160.957 49.6657 160.355 49.6657C160.596 49.6657 160.837 49.5195 160.957 49.5195ZM232.925 49.2271C232.925 49.2271 232.805 49.2271 232.925 49.2271C232.805 49.2271 232.925 49.2271 232.925 49.2271ZM250.405 50.6892C250.646 50.3968 250.525 50.2506 250.405 49.9581C250.525 50.2506 250.525 50.543 250.405 50.6892ZM240.52 39.1382C240.64 39.1382 240.64 39.1382 240.52 39.1382C240.64 39.1382 240.64 39.1382 240.52 39.1382C240.64 39.1382 240.64 39.1382 240.52 39.1382ZM244.257 28.4644C244.257 28.4644 244.257 28.3182 244.257 28.4644C244.257 28.3182 244.257 28.3182 244.257 28.4644C244.377 28.3182 244.377 28.4644 244.257 28.4644ZM189.045 11.3572C189.045 11.5034 189.045 11.5034 189.045 11.3572C189.286 11.3572 189.407 11.3572 189.648 11.211H189.769C189.648 11.3572 189.286 11.211 189.045 11.3572C189.045 11.5034 189.045 11.5034 189.045 11.3572C189.045 11.5034 189.045 11.5034 189.045 11.3572ZM173.494 7.55558C173.494 7.7018 173.615 7.7018 173.494 7.55558C173.494 7.7018 173.494 7.7018 173.494 7.55558C173.494 7.55558 173.494 7.7018 173.494 7.55558ZM25.5806 14.1353C25.4601 14.2815 25.4601 14.4277 25.4601 14.7202C25.5806 14.4277 25.5806 14.2815 25.5806 14.1353C25.4601 14.1353 25.5806 14.1353 25.5806 14.1353ZM26.0628 15.305C25.9423 15.305 26.0628 15.305 26.0628 15.305V15.305ZM28.3533 20.1301C28.5944 20.1301 28.7149 20.2764 28.7149 20.5688C28.7149 20.4226 28.4738 20.2764 28.3533 20.1301ZM13.8874 42.9398C14.0079 42.9398 14.0079 42.9398 13.8874 42.9398C14.0079 42.9398 14.0079 42.9398 13.8874 42.9398ZM15.9367 42.6474C15.9367 42.5011 15.9367 42.6474 15.9367 42.6474V42.6474ZM23.4107 23.3469H23.5313C23.5313 23.2007 23.5313 23.3469 23.4107 23.3469ZM28.8355 21.0074C28.8355 21.0074 28.7149 21.0074 28.8355 21.0074C28.7149 21.0074 28.8355 21.0074 28.8355 21.0074ZM16.9011 44.2557C16.7805 43.9633 16.5394 43.8171 16.2983 43.6709C16.5394 43.8171 16.7805 43.9633 16.9011 44.2557ZM114.546 50.6892C114.425 50.6892 114.425 50.6892 114.305 50.8354C113.943 51.1279 113.943 50.8354 113.943 50.6892C114.064 50.6892 114.305 50.8354 114.546 50.6892ZM127.686 51.7127C127.806 51.7127 127.686 51.7127 127.686 51.7127V51.7127ZM246.547 29.6342C246.668 29.4879 246.668 29.4879 246.668 29.3417C246.668 29.4879 246.547 29.4879 246.547 29.6342ZM239.314 16.9134V17.0596C239.314 17.0596 239.194 17.0596 239.314 16.9134C239.314 17.0596 239.314 17.0596 239.314 16.9134ZM89.3511 1.41452H89.2306C89.11 1.41452 89.2306 1.41452 89.3511 1.41452C89.2306 1.41452 89.2306 1.41452 89.3511 1.41452ZM19.071 10.9185C18.9504 11.0648 19.071 11.0648 19.071 10.9185C18.9504 11.0648 19.071 11.0648 19.071 10.9185C18.9504 10.9185 19.071 10.9185 19.071 10.9185ZM27.1478 30.5114C27.1478 30.6577 27.1478 30.6577 27.1478 30.5114C27.1478 30.6577 27.1478 30.6577 27.1478 30.5114ZM62.7098 51.5665C62.7098 51.7127 62.7098 51.5665 62.7098 51.5665V51.5665ZM170.601 51.7127H170.722C170.722 51.7127 170.722 51.7127 170.601 51.7127ZM192.059 51.8589C192.18 51.8589 192.18 51.8589 192.059 51.8589C192.18 51.8589 192.18 51.8589 192.059 51.8589C192.18 51.8589 192.18 51.8589 192.059 51.8589Z" fill="#FFECEC"/>
</svg>
