<svg width="166" height="52" viewBox="0 0 166 52" fill="none" xmlns="http://www.w3.org/2000/svg">
<path fill-rule="evenodd" clip-rule="evenodd" d="M165.378 41.2168C165.223 40.4309 164.835 40.9548 164.602 40.8238C164.525 40.4309 164.292 40.4309 164.059 40.4309C163.671 40.5619 163.36 40.5619 162.972 40.4309C162.972 40.2999 162.972 40.2999 162.972 40.1689C163.127 39.776 162.972 39.645 162.739 39.514C162.506 39.514 162.273 39.383 162.041 39.252C161.497 38.9901 161.497 38.9901 161.109 39.645H160.954C160.178 39.252 159.401 38.8591 158.547 39.1211C158.547 39.1211 158.47 38.9901 158.392 38.9901C158.703 38.5971 159.013 38.2042 159.168 37.6803C159.324 37.1563 159.479 37.0253 159.867 37.2873C160.721 37.6802 161.109 37.2873 160.954 36.1085C160.954 35.9775 160.954 35.9775 160.954 35.8465C161.187 35.8465 161.342 35.9775 161.575 35.9775C162.817 36.2394 162.506 36.6324 162.817 34.7986C162.894 34.5367 162.894 34.2747 162.972 34.0127C163.05 33.7508 163.127 34.0127 163.205 34.0127C163.515 34.1437 163.826 34.5367 163.904 33.6198C163.981 33.6198 164.059 33.6198 164.214 33.6198C164.447 33.6198 164.68 33.7508 164.913 33.4888C164.835 32.7029 164.447 32.7029 164.059 32.8339L164.136 32.9649C164.136 32.9649 164.059 32.9649 164.059 32.8339C163.904 32.8339 163.671 32.8339 163.515 32.8339C163.438 32.5719 163.36 32.8339 163.205 32.8339C163.05 32.7029 162.894 32.7029 162.817 32.7029C162.817 32.5719 162.972 32.31 162.817 32.179C162.662 32.048 162.506 32.048 162.351 32.31C161.963 32.31 161.575 32.31 161.109 32.31C160.876 31.917 161.187 30.2143 160.255 31.5241H160.022C159.712 30.7382 159.479 31.5241 159.168 31.6551C159.091 31.6551 159.091 31.6551 159.013 31.6551C158.392 31.786 157.693 31.3931 157.15 32.048C156.995 32.179 156.684 32.048 156.451 31.917C155.442 31.3931 154.356 31.5241 153.346 31.786C152.648 32.048 152.26 31.917 151.872 31.0001C152.027 31.0001 152.26 31.0001 152.415 31.0001C152.648 31.5241 152.881 31.5241 153.114 31.0001C153.812 31.1311 154.433 30.6072 155.132 31.0001C155.52 31.0001 155.598 30.4762 155.675 30.0833C155.675 29.8213 155.753 29.5593 155.986 29.6903C156.607 29.9523 156.762 29.2974 156.917 28.6425C157.461 28.5115 157.926 27.9876 158.392 27.5946C158.78 26.8087 159.324 26.5467 159.945 26.2848C159.945 26.2848 160.022 26.2848 160.022 26.1538H160.1C160.1 26.1538 160.1 26.1538 160.178 26.1538C160.333 26.6777 160.488 26.9397 160.876 26.4158C160.954 26.4158 160.954 26.4158 161.031 26.4158C161.342 26.4158 161.73 26.4158 161.42 25.6299C161.342 25.4989 161.342 25.3679 161.264 25.2369C160.954 24.844 160.566 24.713 160.178 24.844C159.634 24.844 159.091 24.844 158.547 24.713C157.15 24.32 157.15 24.3201 157.771 22.3553C158.082 22.2243 158.392 22.4863 158.703 22.0934C158.78 22.0934 158.858 22.0934 158.935 22.0934C159.168 21.9624 159.246 21.7004 159.479 21.4384C159.634 21.3075 159.789 21.3075 159.867 21.1765C160.1 21.5694 160.333 21.9624 160.566 21.1765C160.643 21.1765 160.643 21.1765 160.721 21.1765C160.954 21.1765 161.264 21.1765 161.497 21.0455C161.652 21.0455 161.808 20.9145 161.808 20.5216C161.73 20.2596 161.652 20.1286 161.42 20.2596C161.187 20.3906 160.954 20.2596 160.721 20.1286C160.721 19.9976 160.721 19.8666 160.876 19.7357C161.497 19.4737 162.196 19.0808 162.351 17.9019C162.429 17.9019 162.429 17.9019 162.506 17.9019C162.972 18.1639 163.205 17.509 163.438 17.116C163.515 16.985 163.671 16.8541 163.671 16.7231C163.515 16.3301 163.205 16.3301 162.894 16.3301C162.739 15.9372 162.429 16.1991 162.196 16.0682C161.885 16.0682 161.575 16.1991 161.264 15.8062C161.031 15.4132 160.721 15.6752 160.488 15.5442C160.333 15.0203 160.022 15.4132 159.789 15.2823C159.712 15.2823 159.712 15.2823 159.634 15.2823C159.401 15.1513 159.013 15.4132 158.625 15.2823C158.547 14.7583 158.314 15.0203 158.082 15.0203C158.004 15.0203 158.004 15.0203 157.926 15.0203C157.771 14.8893 157.616 14.7583 157.538 14.6274C157.383 14.6274 157.228 14.6274 157.15 14.6274C156.995 14.6274 156.917 14.4964 156.762 14.4964C155.908 14.6274 155.132 14.3654 154.278 13.8415C154.045 13.7105 153.735 13.7105 153.502 13.5795C153.191 13.4485 152.958 13.5795 152.648 13.3175C152.493 13.1865 152.415 13.0556 152.26 12.9246C151.949 12.5316 151.561 12.7936 151.173 12.6626C151.173 12.1387 151.018 12.1387 150.707 12.2697C150.164 12.4007 149.62 12.2697 148.999 11.8767C148.301 11.4838 147.602 11.2218 146.826 11.4838C146.205 12.0077 145.584 11.3528 144.963 11.4838C144.497 10.5669 143.876 11.2218 143.333 11.0908C143.022 10.9598 142.634 10.8289 142.246 10.8289C141.858 10.4359 141.47 10.6979 141.004 10.5669C139.839 10.3049 138.675 10.043 137.511 9.78101C137.433 9.51904 137.278 9.25708 137.045 9.38806C136.734 9.65003 136.346 9.51904 136.036 9.51904V9.65003V9.78101C136.036 9.65003 136.113 9.65003 136.036 9.51904C135.881 9.25708 135.725 9.38806 135.492 9.25708C135.027 8.60217 134.406 8.99511 133.862 8.86413C133.785 8.86413 133.785 8.86413 133.707 8.86413C133.164 8.47118 132.62 8.73315 132.077 8.60217C131.999 8.60217 131.999 8.60217 131.922 8.60217C131.611 8.20922 131.301 8.47118 130.99 8.3402C130.912 8.3402 130.912 8.3402 130.835 8.3402C130.602 7.81627 130.369 7.55431 129.981 7.81627C129.826 7.94726 129.515 8.07824 129.438 7.94726C128.817 7.03038 128.118 7.42333 127.419 7.55431C127.342 7.29234 127.186 7.29234 127.031 7.29234C126.488 6.8994 125.867 7.16136 125.323 7.03038C125.246 7.03038 125.246 6.8994 125.168 6.8994C123.538 6.8994 121.908 5.72055 120.278 6.24448C120.2 6.24448 120.122 6.24448 120.045 6.24448C119.734 5.45859 119.269 5.58957 118.803 5.72055C118.337 5.85154 117.871 5.85154 117.405 5.72055C116.008 5.58957 114.766 4.6727 113.291 4.80368C112.36 4.93466 111.428 4.6727 110.574 5.19662C110.419 5.19662 110.264 5.32761 110.109 5.19662C110.031 5.06564 109.953 5.06564 109.876 4.93466C109.565 4.6727 109.255 4.14877 108.944 4.14877C107.702 4.01778 106.538 3.49385 105.296 3.62484C104.597 3.75582 103.976 3.49385 103.278 3.23189C102.889 3.10091 102.346 3.10091 102.113 3.8868C102.113 3.8868 102.035 3.8868 101.958 3.8868C101.88 3.49385 101.725 3.23189 101.492 3.10091C101.104 2.96992 100.716 2.70796 100.405 2.83894C99.6291 2.96992 98.8528 3.10091 98.0766 2.83894C97.9213 2.83894 97.7661 3.10091 97.6108 3.23189C97.5332 3.23189 97.4556 3.23189 97.3779 3.23189C96.7569 2.446 96.1359 2.83894 95.5149 3.23189C95.282 2.96992 95.0491 3.23189 94.8163 3.10091H94.7386C94.3505 3.10091 94.04 2.96992 93.6519 2.96992C93.5742 2.96992 93.4966 2.96992 93.419 2.96992C92.4099 2.96992 91.4007 1.79108 90.3139 2.31501C90.2363 2.31501 90.2363 2.31501 90.1587 2.31501C89.3824 2.31501 88.6838 1.26715 87.8299 2.05305C87.6747 2.18403 87.5194 2.05305 87.3642 1.92207C86.7431 1.6601 86.1998 1.13617 85.5011 1.39814C85.3459 1.39814 85.1906 1.39814 85.0354 1.26715C84.6472 0.874207 84.4144 1.00519 84.1815 1.52912C83.871 2.05305 83.5605 2.18403 83.0947 1.79108C82.7066 1.52912 82.2408 1.39814 82.0856 2.31501C81.9303 2.31501 81.7751 2.18403 81.6974 2.18403C81.6974 1.79108 82.2408 1.79108 81.9303 1.39814C81.6974 1.52912 81.5422 2.18403 81.3869 2.31501L81.3093 2.446C80.9212 2.18403 80.6107 1.92207 80.2225 2.18403C79.9897 2.31501 79.6792 2.31501 79.5239 2.05305C79.2134 1.6601 78.8253 1.79108 78.5148 1.79108C77.8938 1.79108 77.2727 2.70796 76.7294 1.6601C76.7294 1.52912 76.5741 1.6601 76.4965 1.6601C76.1084 1.6601 75.6426 1.6601 75.2545 1.6601C74.7887 1.52912 74.2453 0.350278 73.7796 1.6601C73.7019 1.6601 73.6243 1.6601 73.4691 1.6601C73.3138 1.52912 73.2362 1.13617 73.0033 1.52912C72.8481 1.79108 72.6928 1.6601 72.4599 1.6601C72.3047 1.6601 72.0718 1.6601 71.9165 1.6601C71.5284 1.00519 71.2179 1.00519 70.8298 1.6601C70.6745 1.6601 70.4416 1.6601 70.2864 1.6601C70.2088 1.39814 70.0535 1.39814 69.8983 1.26715C69.2773 0.874207 68.7339 1.26715 68.1129 1.26715C67.1037 1.26715 66.017 1.26715 65.0078 1.26715C65.0078 0.743225 64.6973 0.48126 64.3868 0.48126C63.0672 0.350278 61.8251 0.219295 60.5055 0.48126C59.8845 0.612242 59.1858 1.00519 58.4872 0.350278C58.4096 0.219295 58.2543 0.350278 58.1767 0.48126C57.7886 1.00519 57.4004 0.612242 57.1676 0.350278C56.4689 -0.304634 55.9255 0.0883128 55.3822 0.48126C55.3045 0.48126 55.3045 0.48126 55.2269 0.48126C54.8388 0.612242 54.4506 0.743225 54.0625 0.350278C53.9849 0.219295 53.8296 0.350278 53.6744 0.48126C53.5191 0.743225 53.2086 0.612242 52.9757 0.743225C52.0442 1.00519 50.9575 0.48126 50.026 1.00519C49.4826 1.26715 48.8616 0.874207 48.3958 1.26715C47.4643 0.874207 46.4552 1.00519 45.446 1.00519C43.9711 0.743225 42.5738 1.13617 41.1766 1.79108C40.7884 1.92207 40.4003 1.6601 40.0898 2.05305C39.9346 2.05305 39.8569 1.92207 39.7793 1.6601C39.8569 1.00519 39.7017 0.612242 39.3912 1.00519C38.9254 1.52912 38.4597 1.52912 37.9163 1.52912C36.9071 1.52912 35.898 2.18403 34.8112 1.52912C34.7336 1.52912 34.656 1.52912 34.656 1.52912C34.1902 2.18403 33.7245 1.79108 33.3363 1.6601C32.6377 1.52912 31.8614 1.6601 31.1628 1.79108C30.7747 1.79108 30.4642 1.92207 30.3089 1.26715C30.2313 1.52912 30.2313 1.6601 30.1537 1.79108C29.8432 2.57698 29.6879 2.57698 29.3774 1.79108C29.1445 1.39814 28.9893 1.52912 28.834 1.79108C28.4459 2.05305 27.9801 2.31501 27.5144 2.31501C26.5052 2.31501 25.5737 1.79108 24.5646 2.18403C23.7107 2.446 22.7792 2.18403 21.9253 2.31501C21.149 2.446 20.3728 3.23189 19.5189 2.96992C19.4412 2.96992 19.3636 2.96992 19.286 2.96992C18.9755 2.96992 18.665 2.96992 18.3545 2.83894C17.7335 2.57698 17.3453 2.83894 17.1125 3.75582C16.9572 3.75582 16.8796 3.75582 16.7243 3.75582C16.7243 3.8868 16.7243 3.8868 16.7243 4.01778C16.7243 3.8868 16.7243 3.8868 16.7243 3.75582C16.4138 4.01778 16.1033 3.8868 15.9481 3.8868C15.4823 3.49385 15.5599 4.01778 15.4823 4.41073C15.2494 4.6727 15.4047 4.80368 15.4823 5.06564C16.1809 5.45859 16.3362 6.8994 17.3453 6.76841C16.7243 7.29234 16.1033 7.29234 15.5599 7.55431C14.7837 7.94725 14.0074 7.94725 13.3088 8.47118C12.9983 8.47118 12.7654 8.47118 12.5325 8.47118C12.2996 8.47118 12.3773 8.73315 12.3773 8.86413C11.9891 9.25708 11.601 9.78101 11.4457 10.4359C11.4457 10.5669 11.3681 10.6979 11.2905 10.8289C11.1352 10.8289 11.0576 10.8289 10.9024 10.8289C10.6695 10.4359 10.5142 10.8289 10.2814 10.9598C10.1261 10.9598 9.97085 11.0908 9.97085 11.3528C10.0485 11.6148 10.1261 11.6148 10.2814 11.6148C10.4366 11.6148 10.5919 11.6148 10.6695 11.3528C10.9024 11.3528 11.1352 11.3528 11.3681 11.3528C11.6786 11.8767 12.0668 11.7457 12.4549 11.7457C13.0759 11.7457 13.6193 12.2697 14.1627 12.2697V12.1387V12.2697C14.1627 12.5316 14.2403 12.6626 14.4732 12.6626C14.4732 12.7936 14.6284 12.9246 14.706 13.0556C14.8613 13.7105 14.7837 13.9724 14.3179 13.9724C14.085 13.9724 13.8522 13.8415 13.6193 14.2344H13.5417C13.2311 14.2344 12.9206 13.8415 12.843 14.4964C12.843 14.8893 13.1535 14.7583 13.3088 14.7583C13.3864 15.2823 14.3179 15.0203 13.6969 15.9372C12.9206 16.1991 11.9891 16.4611 11.3681 17.247C10.8247 17.9019 10.2814 18.0329 9.66035 18.1639C9.11696 18.2949 8.96171 18.4258 9.34984 19.2117C8.18545 19.2117 7.17631 19.3427 6.24479 19.7357C6.08954 19.7357 5.85666 19.7357 5.70141 19.7357C5.62378 19.7357 5.62378 19.6047 5.54616 19.6047C4.61464 19.7357 3.68313 19.9976 2.75162 19.6047C2.36348 19.4737 2.36348 20.1286 2.28586 20.3906C2.20823 20.6525 1.89773 21.0455 2.36348 21.1765H2.44111C2.98449 21.4384 3.45025 22.0933 3.99363 21.7004C4.07126 21.7004 4.22651 21.7004 4.30414 21.8314C5.15803 22.7483 6.24479 22.4863 7.17631 22.3553C9.19459 22.3553 11.2905 21.9624 13.3088 21.9624C14.8613 21.9624 16.4138 21.7004 17.8887 21.9624C17.8887 21.8314 17.8887 21.8314 17.8887 21.7004C17.8887 21.7004 17.8887 21.8314 17.8887 21.9624C17.8887 21.9624 17.9663 21.9624 18.044 21.9624C18.2768 22.3553 18.5097 22.7483 18.8202 23.0102C19.4412 23.5342 19.907 24.713 20.7609 24.0581C20.9161 24.0581 20.8385 24.582 20.9938 24.713C20.8385 24.713 20.6833 24.713 20.6833 24.975C20.7609 25.3679 20.9938 25.1059 21.149 25.2369C20.2175 25.7609 20.1399 25.7609 20.6833 26.6777V26.8087L20.7609 26.6777C20.2951 26.8087 19.8294 26.5467 19.5189 26.9397C18.5097 26.5467 17.5782 27.3326 16.5691 27.2017C16.4914 27.2017 16.4914 27.3326 16.4138 27.3326C16.1033 27.5946 15.7928 27.5946 15.4823 27.5946C14.8613 27.8566 14.1627 27.7256 13.6193 28.3805C13.0759 28.5115 12.5325 27.7256 11.9891 28.1185C11.6786 27.7256 11.3681 27.9876 11.0576 27.9876C10.9024 27.9876 10.8247 28.1185 10.6695 28.1185C9.34984 27.9876 7.95257 27.8566 6.63292 27.9876C6.63292 28.1185 6.63292 28.1185 6.63292 28.2495V28.1185C6.24479 27.8566 5.85666 28.2495 5.54616 28.5115C5.31328 28.7734 4.7699 29.0354 5.00277 29.5593C5.31328 30.2143 5.77904 30.7382 6.32242 30.2143C6.40005 30.2143 6.40005 30.2143 6.47767 30.2143C6.24479 30.8692 5.85666 30.8692 5.46853 30.6072C5.0804 30.3452 4.7699 30.2143 4.45939 30.8692C4.22651 31.2621 3.76076 31.3931 3.45025 31.3931C2.98449 31.2621 2.51874 30.4762 2.44111 31.917C2.44111 31.917 2.28586 31.917 2.20823 31.917C1.74248 31.917 1.74248 31.3931 1.58722 30.8692C1.43197 31.3931 1.27672 31.6551 1.12147 32.048C1.04384 32.31 1.12147 32.7029 1.27672 32.8339C1.66485 32.9649 1.66485 33.2268 1.66485 33.7508C1.66485 34.2747 1.89773 34.7986 2.20823 34.9296C2.59636 34.9296 2.90687 34.5367 2.98449 34.0127C3.13975 33.6198 3.21737 33.7508 3.45025 33.7508C4.07126 34.1437 4.38177 35.0606 4.84752 35.3226C5.0804 35.4535 5.31328 35.4535 5.31328 35.9775C5.31328 36.2394 5.23565 36.3704 5.0804 36.3704C4.84752 36.5014 4.69227 36.3704 4.45939 35.9775C3.99363 35.3226 3.295 35.4535 2.82924 36.3704C2.67399 36.6324 2.67399 37.1563 2.44111 37.2873C2.05298 37.6802 1.66485 37.5493 1.35434 37.0253C1.19909 36.8944 0.810961 36.8944 0.966214 37.2873C1.19909 38.3352 0.578083 38.0732 0.267578 38.3352C0.655709 38.5971 1.04384 38.4661 1.27672 38.8591C1.43197 39.252 1.74248 39.252 1.97535 38.9901C2.28586 38.5971 1.74248 38.4661 1.74248 38.0732C2.36348 38.3352 2.90687 38.5971 3.45025 37.9422C3.68313 37.9422 3.99363 37.9422 4.22651 37.9422C4.14889 38.8591 3.37263 37.9422 3.21737 38.8591C3.76076 38.4661 4.14889 38.8591 4.53702 39.1211C4.84752 39.252 5.23565 39.252 5.46853 38.9901C5.85666 38.5971 6.16717 38.7281 6.5553 38.7281C6.71055 38.7281 6.94343 38.5971 7.09868 38.5971C7.25393 38.8591 7.40919 38.7281 7.56444 38.8591C7.64207 38.8591 7.71969 38.8591 7.64206 38.9901C7.64206 38.9901 7.56444 38.9901 7.48681 38.9901C7.40919 39.514 7.79732 39.252 7.87494 39.514C7.40919 40.2999 7.48681 41.3478 8.0302 41.6097C8.57358 41.8717 9.19459 42.1336 9.8156 42.2646C10.2814 42.3956 10.8247 42.9195 11.2905 42.0027C11.3681 42.0027 11.4457 42.0027 11.5234 42.0027C11.6786 42.1337 11.9115 42.3956 12.0668 42.5266C12.2996 42.6576 12.4549 42.7886 12.2996 43.0505C11.8339 43.8364 12.3773 43.5745 12.5325 43.5745C12.6101 43.7054 12.6878 43.7054 12.7654 43.8364C13.0759 43.8364 13.1535 45.2772 13.6969 44.2294C13.8522 44.2294 13.9298 44.2294 14.085 44.2294C14.4732 44.6223 14.8613 44.3604 15.3271 44.3604C15.2494 44.7533 15.0166 44.4913 14.9389 44.7533C15.7928 45.5392 15.7928 45.5392 15.8704 44.6223C16.0257 44.7533 16.2586 44.7533 16.4138 44.6223C16.7243 44.7533 17.0348 44.7533 17.3453 44.6223C17.423 44.6223 17.423 44.6223 17.5006 44.6223C17.7335 45.0153 18.1216 44.7533 18.4321 44.8843C18.9755 45.0153 19.5189 45.0153 20.0623 45.2772C19.8294 45.2772 19.5965 45.2772 19.3636 45.2772C19.286 45.2772 19.0531 45.2772 19.0531 45.4082C18.9755 45.6702 19.2084 45.6702 19.286 45.6702C19.5965 45.6702 19.8294 45.6702 20.1399 45.6702C20.2175 45.8012 20.2951 45.8012 20.4504 45.8012C21.5372 45.5392 22.6239 45.9321 23.6331 46.0631C23.7107 46.0631 23.7107 46.0631 23.7883 46.0631C24.0988 46.0631 24.4093 46.0631 24.7198 46.0631C25.0303 47.111 25.5737 47.111 26.1947 46.849C26.1171 46.587 26.0395 46.3251 25.8842 46.0631C26.1171 46.0631 26.35 46.0631 26.5829 46.0631C26.5052 46.587 27.0486 46.587 26.8934 47.242C27.2039 46.98 27.2815 46.587 27.3591 46.3251C27.8249 46.3251 28.2906 46.3251 28.6788 46.3251C28.834 46.0631 29.5326 46.849 29.0669 45.6702C29.3774 45.6702 29.6879 45.6702 29.9984 45.6702C30.076 45.9321 29.8432 46.1941 29.9208 46.1941C30.3865 46.1941 30.7747 46.849 31.2404 46.4561C31.7062 46.4561 32.0943 46.4561 32.5601 46.4561C33.0258 46.4561 33.4916 46.4561 33.8797 46.4561C34.656 46.849 35.0441 46.5871 35.0441 45.8012C35.5099 45.8012 35.9756 46.0631 36.519 45.6702C36.5966 45.6702 36.6743 45.6702 36.7519 45.6702C36.8295 45.9321 37.0624 46.0631 37.2176 46.0631C37.9163 46.0631 37.9163 46.0631 37.6834 47.242C38.2268 46.0631 38.3044 47.3729 38.6149 47.3729C38.6925 46.98 38.6925 46.718 38.9254 46.4561C39.4688 46.3251 39.9346 46.718 40.4779 46.718C40.5556 46.4561 40.4779 46.4561 40.3227 46.3251C40.4003 46.4561 40.4779 46.4561 40.4779 46.718C40.7884 46.98 41.0989 47.3729 41.4095 46.718C41.5647 46.718 41.6423 46.718 41.7976 46.718C41.8752 46.98 42.0305 47.242 42.2633 46.98C42.5738 46.718 42.8067 46.3251 42.8067 45.6702C43.1949 45.2772 43.583 45.5392 44.0487 45.6702C44.0487 46.0631 43.4277 46.587 44.0487 46.849C44.3592 46.98 44.825 47.111 45.2131 46.4561C45.3684 46.1941 45.5236 46.1941 45.6789 46.4561C45.9894 47.242 46.5328 46.849 46.9209 47.111C47.1538 47.111 47.309 46.849 47.309 46.4561C47.309 46.1941 47.2314 45.9321 47.2314 45.6702C47.309 45.4082 47.4643 45.5392 47.6195 45.4082C47.6972 45.1462 47.8524 45.0153 48.0077 44.8843C48.1629 44.8843 48.3958 44.8843 48.5511 44.8843C48.5511 44.7533 48.5511 44.7533 48.4734 44.6223C48.4734 44.6223 48.4734 44.6223 48.5511 44.6223C48.5511 44.7533 48.5511 44.7533 48.5511 44.8843C48.7839 45.4082 48.7839 45.2772 49.1721 45.0153C49.4049 44.8843 49.7155 44.8843 50.026 44.8843C50.4141 44.8843 50.026 45.2772 50.1036 45.4082C50.1812 45.8012 50.3365 45.6702 50.4917 45.6702C50.7246 45.6702 51.0351 45.8012 51.1903 45.5392C51.3456 45.2772 50.9575 45.1462 51.0351 44.8843C51.268 44.8843 51.5785 44.8843 51.889 44.8843C51.5009 45.1462 51.5785 45.1462 51.5785 45.2772C51.7337 45.9321 52.0442 45.5392 52.2771 45.4082C52.51 45.1462 52.6652 45.0153 52.9757 45.1462C53.2863 45.2772 53.5968 45.4082 53.9073 45.1462C53.9849 45.0153 54.1401 45.0153 54.2178 45.1462C54.4506 45.9321 54.7612 45.4082 54.994 45.2772C55.1493 45.1462 55.3045 45.0153 55.5374 45.0153C56.3137 45.0153 57.0899 45.2772 57.9438 45.2772C58.2543 45.2772 58.4096 45.5392 58.2543 45.9321C58.0991 46.3251 58.1767 46.98 57.7886 47.242C58.332 47.3729 58.7201 47.7659 59.1082 47.3729C59.4187 47.111 59.574 47.242 59.8845 47.3729C60.6607 47.7659 61.437 47.242 62.2133 47.111C62.2909 47.111 62.2909 46.98 62.3685 46.849C62.4461 46.718 62.5238 46.587 62.6014 46.849C62.9119 47.3729 63.3777 46.718 63.7658 46.98C64.4644 47.5039 64.542 47.3729 64.4644 46.1941C64.4644 46.0631 64.3868 45.8012 64.3092 45.6702C64.6973 45.5392 65.0854 45.2772 65.4736 45.6702C65.5512 45.6702 65.6288 45.6702 65.7841 45.5392C65.7064 45.5392 65.5512 45.5392 65.4736 45.6702C65.6288 45.9321 65.8617 46.0631 66.017 46.0631C66.8708 46.1941 67.6471 46.1941 68.501 46.3251C68.6562 46.3251 68.8115 46.0631 68.8891 46.4561C68.9667 46.849 68.7339 46.849 68.5786 46.98C68.5786 46.98 68.4234 46.98 68.4234 47.242C68.8891 47.5039 69.2773 47.7659 69.8206 47.242C69.6654 47.242 69.3549 47.3729 69.3549 46.98C69.2772 46.718 69.4325 46.587 69.5877 46.4561C69.743 46.3251 69.8206 46.0631 69.9759 45.8012C70.0535 45.9321 70.0535 45.9321 70.1311 46.0631C70.1311 46.1941 69.8983 46.3251 69.9759 46.587C70.2088 46.4561 70.2864 46.3251 70.364 46.0631C70.4416 45.8012 70.7521 45.9321 70.9074 45.6702C71.3732 45.6702 71.7613 46.587 72.3823 46.1941C72.4599 46.0631 72.6152 46.4561 72.6152 46.718C72.6152 47.111 72.3823 47.111 72.1494 47.111C71.9942 47.111 71.7613 46.718 71.7613 47.242C71.7613 47.6349 71.9942 47.3729 72.1494 47.3729C72.3823 47.3729 72.6928 47.3729 72.9257 47.3729C73.0033 47.6349 73.1586 47.7659 73.3138 47.7659C74.0124 47.7659 74.7111 47.7659 75.4097 47.8969C75.7978 48.0279 76.2636 47.8969 76.5741 47.3729C76.7294 47.242 76.9622 47.242 77.1175 47.3729C76.9622 48.1588 76.6517 48.4208 76.186 48.6828C75.7978 48.9447 75.4873 49.4687 75.7202 50.1236C75.8755 50.6475 76.8846 51.1714 77.1175 50.9095C77.1951 50.7785 77.3504 50.6475 77.3504 50.5165C77.1951 49.5996 77.8938 49.2067 77.9714 48.4208C77.9714 48.1588 78.1266 48.0279 78.2819 48.0279C78.67 48.0279 78.9805 47.8969 79.3686 47.8969C79.7568 47.8969 80.2225 47.8969 80.4554 48.6828C80.6883 49.3377 81.2317 49.3377 81.4646 48.6828C81.6198 48.1588 81.8527 48.1588 82.0856 48.1588C82.4737 48.1588 82.7842 48.1588 83.1723 48.0279C83.4828 47.8969 83.7157 48.1588 83.5605 48.6828C83.4828 49.2067 83.4828 49.7306 83.4828 50.2546C83.4828 50.6475 83.4052 50.9095 83.7157 51.1714C83.9486 51.3024 84.1038 51.0405 84.2591 50.7785C84.4144 50.5165 84.492 50.3855 84.6472 50.7785C84.8025 51.0405 84.9577 51.3024 85.113 50.9095C85.2682 50.6475 85.4235 50.1236 85.2682 49.7306C85.1906 49.4687 85.113 49.0757 84.8801 49.0757C84.6472 49.2067 84.4143 49.2067 84.492 48.6828C84.492 48.1588 84.7249 48.0279 84.9577 48.0279C85.3459 48.1588 85.6564 48.1588 86.0445 48.1588C86.355 48.1588 86.5879 48.2898 86.7431 48.6828C87.1313 49.5996 87.4418 49.4687 87.8299 48.5518C88.0628 48.0279 88.4509 47.3729 88.839 47.6349C89.6929 48.1588 90.8573 48.2898 91.556 47.5039C91.7112 47.3729 91.7888 47.3729 91.8665 47.5039C92.8756 48.8138 93.8847 47.7659 94.8939 47.3729C95.2044 47.242 95.2044 47.111 95.4373 47.6349C95.5925 48.1588 95.903 48.2898 96.0583 47.6349C96.1359 47.6349 96.2135 47.6349 96.2912 47.6349C96.2912 48.0279 96.6017 48.1588 96.7569 48.0279C97.145 47.7659 97.4555 48.0279 97.7661 48.0279C98.3094 48.1588 98.8528 48.0279 99.3962 47.7659C100.172 47.5039 100.716 48.2898 101.182 49.2067C101.647 49.7306 101.88 49.4687 102.191 48.6828C102.424 47.8969 102.812 47.5039 103.51 47.8969C104.131 48.1588 104.908 48.6828 105.451 47.8969C105.839 47.3729 106.072 47.6349 106.383 47.7659C107.159 48.2898 107.935 48.5518 108.711 47.7659C108.867 47.6349 109.022 47.5039 109.177 47.7659C109.41 48.0279 109.72 48.0279 109.953 48.1588C110.341 48.2898 110.652 47.8969 110.963 47.8969C111.661 47.8969 112.437 48.1588 113.136 48.0279C113.602 47.8969 114.145 48.4208 114.611 47.6349C114.689 47.3729 114.766 47.5039 114.921 47.6349C114.999 48.1588 115.232 48.0279 115.387 47.8969C115.62 47.7659 115.853 47.6349 116.163 47.8969C116.784 48.2898 117.483 48.4208 118.104 47.6349C118.57 48.4208 118.725 48.4208 119.191 47.6349C119.346 47.6349 119.501 47.6349 119.734 47.6349C119.812 48.2898 120.122 48.1588 120.433 48.2898C121.054 48.2898 121.597 48.0279 122.218 48.1588C122.839 48.2898 123.072 48.0279 123.072 47.111C123.227 47.111 123.305 47.111 123.46 47.111C123.538 47.242 123.616 47.242 123.693 46.98C123.693 46.98 123.693 46.98 123.693 47.111C123.616 47.111 123.538 47.111 123.383 47.111C123.383 47.3729 123.383 47.6349 123.538 47.6349C123.693 47.6349 123.848 47.5039 123.926 47.242C123.848 47.111 123.848 47.111 123.771 46.98C123.771 47.111 123.771 47.242 123.848 47.242C124.081 47.242 124.392 47.242 124.625 47.242C124.935 48.1588 126.332 48.5518 126.721 47.7659C126.798 47.6349 126.798 47.5039 126.798 47.3729C126.876 47.3729 126.953 47.3729 127.031 47.3729C127.109 47.8969 127.575 48.2898 127.264 48.9447C127.186 49.2067 127.419 49.5996 127.73 49.5996C128.428 49.7306 129.127 49.3377 129.67 48.9447C130.291 48.5518 130.835 48.6828 131.301 49.0757C131.766 49.4687 132.154 49.5996 132.543 48.8138C132.931 48.1588 133.241 48.4208 133.396 49.2067C133.474 49.4687 133.474 49.8616 133.474 50.2546C133.396 50.7785 133.319 51.1714 133.785 51.3024C134.173 51.3024 134.483 50.9095 134.483 50.3855C134.561 49.4687 134.716 49.2067 135.26 49.0757C135.415 49.0757 135.648 48.8138 135.803 49.2067C135.881 49.5996 135.57 49.4687 135.415 49.5996C135.182 49.7306 135.182 49.9926 135.182 50.2546C135.182 50.5165 135.259 50.6475 135.492 50.7785C135.648 50.7785 135.881 50.7785 135.881 50.6475C135.958 50.1236 136.346 49.8616 136.346 49.4687C136.424 48.9447 136.502 48.8138 136.89 48.8138C137.2 48.8138 137.355 49.2067 137.355 49.5996C137.355 49.9926 137.511 50.1236 137.744 50.2546C137.976 50.2546 138.132 50.1236 138.132 49.7306C138.287 48.8137 138.675 48.8138 139.063 49.4687C139.296 49.8616 139.451 50.1236 139.839 49.7306C139.995 49.5996 140.15 49.5996 140.383 49.7306C140.849 49.9926 141.081 49.5996 141.159 48.8138C141.159 48.4208 141.237 48.0279 141.314 47.7659C141.392 47.7659 141.392 47.7659 141.47 47.7659C141.702 48.4208 142.013 48.5518 142.401 48.2898C142.712 48.1588 143.022 48.0279 143.333 48.4208C144.031 49.0757 144.109 49.0757 144.342 47.8969C144.497 47.8969 144.652 47.8969 144.73 47.8969C144.73 48.2898 144.885 48.6828 144.73 49.2067C144.652 49.4687 144.73 49.8616 144.885 49.8616C145.429 49.8616 145.817 50.6475 146.282 50.5165C146.903 50.3855 147.68 50.6475 148.068 49.4687C148.145 49.3377 148.223 49.0757 148.456 49.0757C148.456 49.4687 148.378 49.9926 148.844 49.9926C149.31 49.9926 149.232 49.4687 149.31 48.8138C149.465 49.7306 149.698 50.1236 150.164 49.9926C150.707 49.8616 151.095 50.2546 151.173 51.1714C151.25 51.5644 151.406 51.6954 151.716 51.6954C151.949 51.6954 152.182 51.6954 152.26 51.1714C152.337 50.7785 152.493 50.3855 152.57 49.9926C152.648 49.7306 152.725 49.5996 152.881 49.5996C153.424 49.4687 154.123 50.5165 154.2 51.3024C154.2 51.6954 154.356 51.8263 154.588 51.8263C154.744 51.8263 154.899 51.6954 155.054 51.6954C155.908 51.9573 155.908 51.9573 155.83 50.6475C155.83 50.5165 155.83 50.3855 155.908 50.2546C155.986 50.1236 156.141 50.2546 156.219 50.3855C156.296 50.5165 156.296 50.7785 156.451 50.9095C156.84 51.6954 157.616 51.8263 158.004 51.0405C158.237 50.6475 158.314 51.0405 158.392 51.1714C158.625 51.4334 158.858 51.8263 159.168 51.1714C159.324 50.7785 159.479 51.0405 159.479 51.4334C159.479 51.6954 159.557 51.9573 159.789 51.9573C160.022 51.9573 160.022 51.6954 160.022 51.4334C160.022 50.6475 160.41 50.3855 160.954 50.3855C161.42 50.3855 162.429 50.5165 162.273 49.7306C162.041 48.5518 162.894 48.5518 162.739 47.7659C162.739 47.7659 162.739 47.7659 162.739 47.6349C162.739 47.111 162.662 46.4561 163.283 46.849C163.515 46.98 163.671 46.718 163.671 46.3251C163.671 45.9321 163.36 45.9321 163.205 45.6702C163.438 45.5392 163.671 45.4082 163.904 45.4082C164.136 45.4082 164.369 45.4082 164.602 45.2772C164.835 45.2772 165.146 45.1462 165.068 44.7533C164.913 43.9674 165.378 43.5745 165.534 43.0505C165.611 42.9195 165.689 42.7886 165.844 42.6576C165.922 42.3956 165.999 42.1337 165.999 42.0027C165.689 40.8238 165.534 41.0858 165.378 41.2168ZM13.3864 43.0505C13.3864 43.0505 13.3088 43.0505 13.3864 43.0505V43.0505ZM22.6239 24.844C22.6239 24.844 22.7015 24.844 22.6239 24.844C22.7015 24.844 22.6239 24.844 22.6239 24.844ZM18.8979 7.68529C18.8979 7.68529 18.8979 7.81627 18.8979 7.68529C18.8979 7.81627 18.8979 7.81627 18.8979 7.68529C18.8202 7.81627 18.8979 7.81627 18.8979 7.68529ZM18.5097 5.32761C18.5097 5.19662 18.4321 5.19662 18.5097 5.32761C18.4321 5.19662 18.4321 5.19662 18.5097 5.32761C18.5097 5.19662 18.5097 5.19662 18.5097 5.32761ZM8.88408 35.9775C8.96171 35.9775 8.96171 35.9775 9.03934 35.8465C9.03934 35.9775 8.96171 35.9775 8.88408 35.9775ZM20.0623 6.37547C20.2175 6.50645 20.3728 6.37547 20.4504 6.37547C20.2175 6.37547 19.9846 6.50645 19.7517 6.63743C19.907 6.76841 20.0623 6.63743 20.0623 6.37547ZM136.89 12.0077C136.89 12.0077 136.967 12.0077 136.89 12.0077C136.89 12.1387 136.812 12.1387 136.812 12.2697C136.89 12.2697 136.89 12.1387 136.89 12.0077ZM95.903 44.7533H95.8254C95.903 44.7533 95.903 44.7533 95.903 44.7533ZM92.9532 8.20922C92.9532 8.20922 93.0309 8.20922 92.9532 8.20922V8.20922ZM133.474 12.2697L133.552 12.4007C133.552 12.4007 133.474 12.4007 133.474 12.2697ZM110.963 44.4913C110.885 44.4913 110.963 44.4913 110.963 44.4913C110.885 44.4913 110.885 44.4913 110.963 44.4913C111.04 44.4913 111.118 44.4913 111.195 44.4913C111.118 44.4913 111.04 44.4913 110.963 44.4913ZM64.6197 5.19662C64.5421 5.19662 64.6197 5.19662 64.6197 5.19662V5.19662ZM66.4051 6.24448C66.3275 6.24448 66.2498 6.24448 66.1722 6.24448C66.3275 6.1135 66.3275 6.1135 66.4051 6.24448ZM90.0034 7.94726C90.0811 7.94726 90.0811 7.94726 90.1587 7.94726C90.1587 7.94726 90.0811 7.94726 90.0034 7.94726ZM20.2175 35.0606C20.2951 35.0606 20.3728 35.0606 20.4504 35.0606H20.3728C20.2951 35.0606 20.2951 35.0606 20.2175 35.0606ZM35.1217 6.63743H35.1994C35.1994 6.63743 35.1994 6.63743 35.1217 6.63743ZM97.7661 8.60217C97.7661 8.60217 97.6884 8.60217 97.7661 8.60217C97.6884 8.60217 97.6884 8.60217 97.6884 8.60217C97.6884 8.60217 97.6884 8.60217 97.7661 8.60217ZM144.963 23.5342C145.196 23.5342 145.196 23.4032 145.196 23.1412H145.273C145.273 23.2722 145.118 23.4032 144.963 23.5342ZM24.2541 13.1865C24.3317 13.1865 24.3317 13.1865 24.3317 13.3175C24.2541 13.3175 24.2541 13.3175 24.1764 13.3175C24.2541 13.1865 24.1764 13.1865 24.2541 13.1865ZM27.9801 7.03038C27.9801 7.03038 27.9025 7.03038 27.9801 7.03038C27.9025 7.03038 27.9801 7.03038 27.9801 7.03038ZM70.2088 7.81627H70.2864C70.2864 7.81627 70.2864 7.81627 70.2088 7.81627C70.2864 7.81627 70.2088 7.81627 70.2088 7.81627ZM82.5513 7.42333C82.5513 7.42333 82.4737 7.42333 82.5513 7.42333C82.4737 7.42333 82.4737 7.42333 82.5513 7.42333C82.4737 7.42333 82.5513 7.42333 82.5513 7.42333ZM103.976 10.3049C103.976 10.4359 104.054 10.3049 103.976 10.3049C104.054 10.4359 103.976 10.4359 103.976 10.3049C103.976 10.4359 103.976 10.3049 103.976 10.3049ZM71.0627 11.0908C71.0627 11.0908 71.1403 11.0908 71.2179 11.0908C71.2955 11.0908 71.3732 11.0908 71.4508 11.0908C71.2955 11.0908 71.1403 11.0908 70.985 11.2218C70.985 11.2218 71.0627 11.2218 71.0627 11.0908ZM130.602 13.0556C130.602 13.0556 130.68 13.0556 130.68 13.1865C130.602 13.0556 130.602 13.0556 130.602 13.0556ZM138.054 41.7407C138.054 41.7407 138.132 41.7407 138.054 41.7407C138.132 41.7407 138.132 41.8717 138.054 41.7407C138.054 41.7407 138.054 41.8717 138.054 41.7407ZM33.4916 35.1916C33.4916 35.0606 33.4916 35.0606 33.414 34.9296C33.4916 34.9296 33.4916 35.0606 33.4916 35.1916C33.4916 35.0606 33.4916 35.0606 33.4916 35.1916ZM129.515 15.8062C129.515 15.6752 129.515 15.6752 129.515 15.8062C129.515 15.6752 129.515 15.6752 129.515 15.8062ZM140.693 42.1336C140.693 42.1336 140.771 42.1336 140.693 42.1336C140.693 42.2646 140.693 42.2646 140.693 42.1336ZM136.269 20.3906C136.269 20.5216 136.269 20.5216 136.269 20.3906C136.191 20.3906 136.269 20.3906 136.269 20.3906ZM137.899 34.5367C137.899 34.5367 137.976 34.5367 137.899 34.5367C137.976 34.5367 137.976 34.5367 137.899 34.5367ZM135.57 33.8818C135.57 34.0127 135.57 34.2747 135.648 34.4057C135.492 34.2747 135.415 34.1437 135.57 33.8818C135.492 33.8818 135.492 33.8818 135.57 33.8818ZM137.976 39.1211C137.976 39.1211 137.899 39.1211 137.976 39.1211V39.1211ZM138.287 34.5367C138.287 34.4057 138.287 34.4057 138.287 34.5367C138.365 34.4057 138.287 34.4057 138.287 34.5367ZM67.3366 14.3654C67.3366 14.4964 67.259 14.4964 67.259 14.6274C67.3366 14.4964 67.3366 14.3654 67.3366 14.3654ZM59.574 14.3654C59.4963 14.4964 59.3411 14.6274 59.2635 14.7583C59.3411 14.6274 59.4187 14.4964 59.574 14.3654ZM65.4736 22.8792C65.3959 22.8792 65.3959 22.8792 65.3959 22.8792H65.4736ZM101.337 23.0102C101.259 23.0102 101.259 23.1412 101.182 23.1412V23.0102C101.259 23.0102 101.337 23.0102 101.337 23.0102ZM108.711 22.0934C108.789 21.9624 108.789 22.0934 108.711 22.0934C108.789 22.0934 108.789 22.0934 108.711 22.0934C108.789 22.0934 108.711 22.0934 108.711 22.0934ZM106.46 28.7734C106.538 28.6425 106.383 28.5115 106.383 28.3805C106.46 28.5115 106.46 28.6425 106.46 28.7734C106.538 28.7734 106.46 28.7734 106.46 28.7734ZM104.131 32.179C104.131 32.31 104.131 32.31 104.131 32.179C104.131 32.31 104.054 32.31 104.131 32.179C104.054 32.31 104.131 32.31 104.131 32.179ZM109.798 32.7029C109.876 32.8339 109.876 32.9649 109.876 33.0959C109.876 32.9649 109.798 32.7029 109.798 32.7029ZM110.264 21.0455H110.186H110.264ZM109.177 21.0455C109.177 21.1765 109.177 21.0455 109.177 21.0455C109.099 21.0455 109.177 21.0455 109.177 21.0455ZM107.004 19.6047C106.926 19.6047 106.926 19.6047 107.004 19.6047C106.926 19.6047 106.926 19.6047 107.004 19.6047C106.926 19.6047 106.926 19.6047 107.004 19.6047ZM108.401 37.0253C108.401 37.1563 108.401 37.1563 108.401 37.0253C108.401 37.1563 108.401 37.1563 108.401 37.0253C108.401 37.1563 108.401 37.1563 108.401 37.0253ZM119.424 30.0833C119.346 30.0833 119.346 29.9523 119.269 30.0833H119.191C119.269 30.0833 119.346 30.0833 119.424 30.0833ZM116.707 26.4158C116.629 26.4158 116.629 26.4158 116.707 26.4158C116.629 26.4158 116.707 26.4158 116.707 26.4158ZM127.186 29.8213C127.186 29.8213 127.186 29.9523 127.186 29.8213C127.186 29.9523 127.186 29.9523 127.186 29.8213ZM132.775 17.378H132.853V17.509C132.853 17.509 132.853 17.509 132.775 17.378ZM116.94 20.9145C116.94 20.9145 116.94 21.0455 116.94 20.9145V20.9145ZM104.209 19.8666C104.287 19.9976 104.287 19.8666 104.364 19.9976C104.287 19.9976 104.209 19.8666 104.131 19.8666C104.131 19.8666 104.209 19.7357 104.209 19.8666ZM102.346 19.0808C102.424 19.0808 102.501 19.0808 102.579 19.0808C102.579 19.2117 102.424 19.0808 102.346 19.0808ZM75.4873 17.6399C75.565 17.509 75.6426 17.6399 75.6426 17.509C75.565 17.6399 75.4873 17.6399 75.4873 17.6399ZM87.2865 15.8062C87.2089 15.8062 87.0536 15.6752 86.976 15.5442C87.0536 15.6752 87.1313 15.6752 87.2865 15.8062ZM85.4235 14.6274C85.5788 14.6274 85.5787 14.7583 85.6564 14.7583C85.5787 14.7583 85.5011 14.7583 85.4235 14.6274ZM73.7019 17.6399C73.7796 17.6399 73.8572 17.7709 73.9348 17.7709C73.8572 17.7709 73.7796 17.6399 73.7019 17.6399ZM79.5239 17.509C79.5239 17.509 79.6015 17.509 79.6792 17.509C79.6015 17.509 79.5239 17.6399 79.5239 17.7709C79.5239 17.6399 79.4463 17.509 79.5239 17.509ZM85.8116 19.6047C85.8892 19.6047 85.8892 19.7357 85.8116 19.6047C85.8892 19.7357 85.8892 19.7357 85.8116 19.6047C85.8892 19.7357 85.8892 19.6047 85.8116 19.6047ZM115.931 31.0001C115.853 31.1311 115.853 31.0001 115.931 31.0001C115.853 31.0001 115.931 31.0001 115.931 31.0001ZM117.949 29.5593C117.949 29.4284 117.871 29.5593 117.871 29.4284C117.871 29.5593 117.949 29.5593 117.949 29.5593ZM131.145 16.7231C131.145 16.7231 131.223 16.7231 131.145 16.7231C131.223 16.7231 131.223 16.7231 131.145 16.7231ZM128.817 16.4611C128.894 16.3301 128.972 16.3301 128.972 16.4611C128.894 16.3301 128.894 16.3301 128.817 16.4611ZM105.063 16.1991C104.985 16.1991 104.985 16.1991 105.063 16.1991C104.985 16.1991 105.063 16.1991 105.063 16.1991ZM72.0718 17.116C71.9942 17.116 71.9165 17.116 71.9165 17.116C71.9165 17.116 71.9942 17.116 72.0718 17.116ZM60.0397 10.6979C59.9621 10.6979 59.8845 10.5669 59.8069 10.5669H59.8845C59.9621 10.5669 59.9621 10.6979 60.0397 10.6979ZM86.6655 26.5467C86.6655 26.9397 86.8984 27.0707 87.1313 27.2017C86.976 27.0707 86.8208 26.8087 86.6655 26.5467ZM99.0081 27.9876C98.9305 28.1185 98.9304 28.1185 98.8528 28.2495C98.7752 28.1185 98.6976 28.1185 98.6976 27.9876C98.6976 27.9876 98.8528 27.9876 99.0081 27.9876ZM129.593 28.1185C129.515 28.1185 129.36 27.9876 129.36 27.8566C129.438 27.9876 129.593 27.9876 129.67 28.1185C129.67 28.1185 129.67 28.1185 129.593 28.1185ZM140.46 39.1211C140.46 39.252 140.46 39.383 140.46 39.514C140.538 39.383 140.538 39.252 140.46 39.1211ZM140.15 20.3906C140.228 20.3906 140.228 20.3906 140.228 20.2596C140.305 20.3906 140.228 20.3906 140.15 20.3906C140.228 20.3906 140.228 20.3906 140.15 20.3906ZM140.849 18.6878C140.849 18.5568 140.849 18.5568 140.849 18.6878V18.6878ZM143.876 19.8666H143.798C143.876 19.8666 143.876 19.8666 143.876 19.8666ZM92.4099 14.8893C92.4099 14.8893 92.4875 14.8893 92.4099 14.8893C92.4875 14.8893 92.4099 14.8893 92.4099 14.8893ZM75.2545 9.1261C75.2545 8.99511 75.2545 9.1261 75.2545 9.1261V9.1261ZM69.2772 15.0203C69.2772 15.0203 69.2772 14.8893 69.2772 15.0203C69.3549 14.8893 69.3549 14.8893 69.4325 14.8893C69.3549 15.0203 69.2772 15.0203 69.2772 15.0203ZM59.2635 9.78101C59.1858 9.78101 59.1082 9.78101 59.1082 9.65003C59.3411 9.65003 59.4963 9.65003 59.7292 9.51904C59.4963 9.78101 59.4187 9.91199 59.2635 9.78101ZM48.3958 16.4611C48.3958 16.3301 48.3958 16.3301 48.3958 16.4611C48.3958 16.3301 48.3958 16.3301 48.3958 16.4611C48.3958 16.3301 48.3958 16.3301 48.3958 16.4611ZM31.318 27.8566C31.2404 27.8566 31.2404 27.8566 31.318 27.8566V27.8566ZM34.656 35.0606C34.656 35.0606 34.7336 35.0606 34.7336 35.1916C34.7336 35.0606 34.656 35.0606 34.656 35.0606ZM41.9528 13.3175C41.9528 13.3175 41.9528 13.1865 41.9528 13.3175C41.9528 13.1865 41.9528 13.1865 41.9528 13.3175C41.9528 13.1865 42.0305 13.3175 41.9528 13.3175ZM35.8204 13.8415C35.8204 13.8415 35.898 13.8415 35.8204 13.8415H35.7427H35.8204ZM31.5509 34.6677C31.5509 34.6677 31.4733 34.6677 31.5509 34.6677C31.4733 34.6677 31.5509 34.6677 31.5509 34.6677ZM92.2546 31.0001C92.3322 31.0001 92.2546 31.0001 92.2546 31.0001V31.0001ZM92.2546 31.0001C92.2546 30.8692 92.2546 30.6072 92.2546 30.4762C92.2546 30.6072 92.177 30.7382 92.2546 31.0001ZM104.908 37.2873C104.83 37.2873 104.83 37.1563 104.752 37.1563C104.83 37.2873 104.908 37.1563 104.908 37.2873ZM135.337 38.4661C135.337 38.4661 135.26 38.4661 135.337 38.4661C135.26 38.5971 135.26 38.5971 135.337 38.4661C135.26 38.4661 135.26 38.4661 135.337 38.4661ZM136.424 41.3478C136.346 41.3478 136.424 41.3478 136.424 41.3478V41.3478ZM142.168 37.6803C142.246 37.5493 142.479 37.5493 142.556 37.6803C142.556 37.6803 142.556 37.6803 142.634 37.6803C142.401 37.5493 142.246 37.5493 142.168 37.6803ZM142.479 34.0127C142.479 34.1437 142.479 34.1437 142.479 34.0127C142.479 34.1437 142.479 34.1437 142.479 34.0127C142.479 34.1437 142.479 34.0127 142.479 34.0127ZM137.278 28.6425C137.278 28.5115 137.278 28.5115 137.278 28.6425C137.278 28.5115 137.278 28.5115 137.278 28.6425C137.278 28.5115 137.278 28.5115 137.278 28.6425C137.278 28.5115 137.278 28.6425 137.278 28.6425ZM109.643 12.6626H109.565C109.643 12.5316 109.643 12.5316 109.643 12.6626C109.643 12.5316 109.643 12.5316 109.643 12.6626ZM106.227 14.7583C106.15 14.7583 106.227 14.7583 106.227 14.7583V14.7583ZM101.803 11.8767C101.88 11.8767 101.958 12.0077 102.035 12.1387C101.958 12.1387 101.88 12.1387 101.803 11.8767ZM72.7704 11.7457C72.7704 11.6148 72.8481 11.6148 72.9257 11.6148C72.8481 11.6148 72.8481 11.6148 72.7704 11.7457ZM42.962 24.451C43.0396 24.451 43.0396 24.451 42.962 24.451C43.0396 24.451 43.0396 24.582 42.962 24.451C42.962 24.582 42.962 24.582 42.962 24.713C42.962 24.582 43.0396 24.582 42.962 24.451ZM50.5693 15.2823C50.4917 15.4132 50.4917 15.4132 50.5693 15.2823C50.4917 15.4132 50.4917 15.2823 50.5693 15.2823C50.4917 15.2823 50.4917 15.4132 50.5693 15.2823C50.5693 15.1513 50.7246 14.8893 50.7246 15.0203C50.647 15.1513 50.4917 15.0203 50.5693 15.2823ZM57.7886 28.1185C57.7109 28.1185 57.7109 28.2495 57.6333 28.1185C57.7109 28.1185 57.7109 28.1185 57.7886 28.1185ZM66.4827 24.32C66.5603 24.32 66.638 24.32 66.638 24.451C66.4827 24.32 66.4051 24.32 66.2498 24.1891C66.3275 24.1891 66.4827 24.1891 66.4827 24.32ZM103.899 39.9069C103.899 39.776 103.899 39.776 103.899 39.9069C103.899 39.776 103.976 39.776 103.976 39.776C103.976 39.776 103.976 39.9069 103.899 39.9069ZM131.999 34.6677C132.077 34.6677 131.999 34.6677 131.999 34.6677C131.999 34.7986 131.999 34.7986 131.999 34.6677ZM134.483 35.9775C134.25 36.1085 134.173 36.3704 134.095 36.6324C134.25 36.3704 134.328 36.2394 134.483 35.9775ZM133.785 39.1211C133.785 39.1211 133.862 39.1211 133.785 39.1211C133.862 39.1211 133.785 39.1211 133.785 39.1211ZM143.41 37.5493C143.41 37.5493 143.488 37.5493 143.488 37.4183C143.488 37.5493 143.41 37.5493 143.41 37.5493ZM139.374 29.1664C139.374 29.1664 139.451 29.0354 139.451 28.9044C139.451 29.0354 139.374 29.0354 139.374 29.1664ZM136.113 24.32C136.191 24.32 136.191 24.32 136.113 24.32H136.036C136.113 24.32 136.113 24.32 136.113 24.32ZM140.616 23.4032C140.693 23.4032 140.693 23.5342 140.771 23.5342C140.693 23.5342 140.693 23.5342 140.616 23.4032ZM129.515 15.5442C129.515 15.5442 129.438 15.5442 129.515 15.5442C129.438 15.5442 129.438 15.5442 129.515 15.5442ZM75.7978 7.94726C75.7978 7.94726 75.7202 7.94726 75.7978 7.94726C75.7202 7.94726 75.7202 7.94726 75.7978 7.94726ZM64.0763 10.174H64.1539C64.1539 10.043 64.1539 10.043 64.0763 10.174ZM29.2998 8.86413C29.2998 8.86413 29.3774 8.86413 29.3774 8.73315C29.3774 8.73315 29.2998 8.73315 29.2998 8.86413ZM30.3865 8.20922H30.4642H30.3865ZM64.1539 24.582C64.0763 24.582 64.0763 24.582 64.1539 24.582C64.0763 24.582 64.0763 24.582 64.1539 24.582ZM143.41 37.8112C143.41 37.9422 143.41 37.9422 143.41 37.8112C143.41 37.9422 143.41 37.8112 143.41 37.8112ZM152.182 23.2722C152.182 23.2722 152.104 23.2722 152.182 23.2722C152.104 23.2722 152.182 23.2722 152.182 23.2722ZM142.945 14.8893C142.945 14.8893 142.867 15.0203 142.945 14.8893C142.867 14.8893 142.867 14.8893 142.945 14.8893ZM127.885 13.8415C127.885 13.9724 127.885 13.9724 127.885 13.8415V13.8415ZM117.638 13.3175C117.638 13.3175 117.716 13.3175 117.638 13.3175C117.716 13.3175 117.638 13.3175 117.638 13.3175ZM115.154 11.2218C115.232 11.2218 115.232 11.2218 115.31 11.2218C115.232 11.3528 115.154 11.3528 115.154 11.2218ZM108.789 11.4838C108.789 11.3528 108.789 11.4838 108.789 11.4838C108.867 11.4838 108.789 11.4838 108.789 11.4838ZM71.2955 8.3402C71.4508 8.3402 71.5284 8.3402 71.6837 8.3402C71.7613 8.3402 71.9165 8.3402 71.9942 8.3402C71.7613 8.3402 71.5284 8.3402 71.2955 8.3402ZM32.3272 8.47118C32.4048 8.47118 32.3272 8.60217 32.3272 8.47118V8.47118ZM77.2727 42.5266C77.2727 42.6576 77.2727 42.6576 77.2727 42.5266C77.2727 42.6576 77.2727 42.6576 77.2727 42.5266C77.2727 42.6576 77.2727 42.6576 77.2727 42.5266C77.2727 42.6576 77.2727 42.6576 77.2727 42.5266C77.2727 42.6576 77.2727 42.5266 77.2727 42.5266ZM87.597 33.2268C87.597 33.6198 87.4418 33.8818 87.597 34.2747C87.6747 33.8818 87.597 33.6198 87.597 33.2268ZM116.552 42.9195C116.552 42.9195 116.474 43.0505 116.552 42.9195C116.474 43.0505 116.396 43.0505 116.396 43.0505C116.396 42.9195 116.474 42.9195 116.552 42.9195ZM136.579 43.0505H136.502C136.502 43.0505 136.502 43.0505 136.579 43.0505ZM138.132 42.7886C138.209 42.7886 138.209 42.7886 138.287 42.7886C138.287 42.7886 138.287 42.7886 138.287 42.9195C138.132 42.7886 138.132 42.7886 138.132 42.7886ZM142.634 42.7886C142.712 42.7886 142.712 42.6576 142.789 42.6576C142.712 42.7886 142.712 42.7886 142.634 42.7886ZM145.273 39.514C145.273 39.645 145.351 39.514 145.273 39.514C145.351 39.645 145.351 39.514 145.273 39.514C145.273 39.645 145.273 39.514 145.273 39.514ZM143.798 23.9271C143.876 23.9271 143.876 23.9271 143.954 23.9271C143.876 23.9271 143.876 23.9271 143.798 23.9271ZM137.899 13.0556C137.976 13.0556 137.976 13.0556 137.899 13.0556C137.976 13.0556 137.899 13.0556 137.899 13.0556ZM135.958 13.3175C135.958 13.3175 135.881 13.3175 135.958 13.3175V13.3175ZM110.652 11.8767H110.73C110.73 11.8767 110.73 11.8767 110.652 11.8767ZM74.0124 7.29234C73.8572 6.8994 73.5467 6.8994 73.3138 6.76841C73.5467 6.76841 73.8572 6.8994 74.0124 7.29234ZM40.7108 8.47118L40.7884 8.3402C40.7884 8.3402 40.7884 8.47118 40.7108 8.47118ZM22.3134 8.07824C22.2358 8.07824 22.2358 8.07824 22.3134 8.07824C22.2358 8.07824 22.2358 8.07824 22.3134 8.07824ZM27.9801 29.1664C27.9801 29.2974 27.9801 29.2974 28.0578 29.4284C27.9801 29.4284 27.9801 29.4284 27.9025 29.4284C27.9801 29.2974 27.9801 29.2974 27.9801 29.1664ZM89.6153 43.4435C89.6929 43.4435 89.7706 43.4435 89.8482 43.4435C89.6929 43.4435 89.6153 43.4435 89.6153 43.4435C89.5377 43.4435 89.4601 43.4435 89.3824 43.4435C89.4601 43.4435 89.5377 43.4435 89.6153 43.4435ZM93.3414 39.9069C93.3414 39.9069 93.3414 40.0379 93.3414 39.9069V39.9069ZM134.017 43.9674C134.017 44.0984 134.017 44.0984 134.017 43.9674C134.017 44.0984 134.017 44.0984 134.017 43.9674ZM145.04 43.5745H145.118C145.118 43.7054 145.118 43.7054 145.04 43.5745C145.04 43.7054 145.04 43.7054 145.04 43.5745ZM147.369 23.9271C147.292 23.9271 147.292 23.9271 147.369 23.9271C147.292 23.9271 147.292 23.9271 147.292 23.9271C147.292 23.9271 147.292 23.7961 147.369 23.9271C147.292 23.9271 147.292 23.9271 147.369 23.9271ZM145.894 15.5442C145.894 15.4132 145.894 15.5442 145.894 15.5442V15.5442ZM111.584 11.2218C111.506 11.2218 111.506 11.2218 111.584 11.2218C111.506 11.2218 111.506 11.2218 111.584 11.2218C111.506 11.2218 111.506 11.2218 111.584 11.2218ZM60.9712 6.24448C60.9712 6.1135 60.9712 6.24448 60.9712 6.24448V6.1135C60.9712 6.1135 60.9712 6.1135 60.9712 6.24448ZM60.7384 5.58957H60.816C60.7384 5.58957 60.7384 5.58957 60.7384 5.58957ZM54.0625 5.85154C54.0625 5.85154 54.1401 5.85154 54.0625 5.85154V5.85154ZM21.6924 36.5014C21.6924 36.5014 21.77 36.5014 21.6924 36.5014C21.77 36.5014 21.6924 36.5014 21.6924 36.5014ZM62.4461 34.9296C62.4461 35.0606 62.4461 35.0606 62.5238 35.0606H62.4461C62.3685 34.9296 62.4461 35.0606 62.4461 34.9296ZM79.9897 37.6803C79.9897 37.6803 79.9897 37.5493 79.9897 37.6803V37.6803ZM88.6838 43.5745C88.6062 43.5745 88.6062 43.7054 88.6062 43.8364C88.6062 43.8364 88.6838 43.7054 88.6838 43.5745ZM96.4464 43.5745C96.4464 43.7054 96.3688 43.5745 96.4464 43.5745C96.3688 43.7054 96.3688 43.5745 96.4464 43.5745C96.3688 43.5745 96.4464 43.5745 96.4464 43.5745ZM114.844 45.1462C114.844 45.0153 114.766 45.0153 114.766 44.8843C114.844 44.8843 114.844 45.0153 114.921 45.1462C114.844 45.1462 114.844 45.1462 114.844 45.1462ZM140.072 43.7054C140.072 43.7054 139.995 43.7054 139.995 43.5745C139.995 43.5745 139.995 43.7054 140.072 43.7054ZM155.753 41.2168C155.675 41.2168 155.598 41.2168 155.598 41.2168C155.598 41.2168 155.598 41.2168 155.675 41.2168C155.675 41.2168 155.675 41.0858 155.753 41.2168ZM152.725 20.9145C152.648 20.9145 152.648 20.7835 152.725 20.9145C152.648 20.7835 152.648 20.7835 152.725 20.9145C152.725 20.7835 152.725 20.7835 152.725 20.9145ZM86.5879 6.8994C86.5879 6.8994 86.6655 6.8994 86.6655 7.03038C86.6655 7.03038 86.5879 7.03038 86.5879 6.8994ZM84.6472 6.63743H84.7249C84.7249 6.63743 84.7249 6.63743 84.6472 6.63743C84.7249 6.63743 84.6472 6.63743 84.6472 6.63743ZM65.0854 6.37547C65.1631 6.37547 65.1631 6.37547 65.0854 6.37547C65.1631 6.37547 65.1631 6.37547 65.0854 6.37547C65.1631 6.37547 65.1631 6.37547 65.0854 6.37547ZM63.1448 5.32761C63.1448 5.32761 63.0672 5.32761 63.1448 5.32761C63.0672 5.32761 63.1448 5.32761 63.1448 5.32761ZM33.3363 6.37547C33.414 6.24448 33.3363 6.24448 33.2587 6.24448C33.3363 6.24448 33.414 6.24448 33.4916 6.24448C33.414 6.37547 33.414 6.37547 33.3363 6.37547ZM31.4733 5.58957C31.4733 5.58957 31.5509 5.58957 31.4733 5.58957C31.5509 5.58957 31.5509 5.58957 31.4733 5.58957C31.5509 5.58957 31.4733 5.58957 31.4733 5.58957ZM27.1262 5.85154V5.98252V5.85154ZM21.4595 29.2974C21.4595 29.1664 21.4595 29.2974 21.4595 29.2974C21.4595 29.1664 21.4595 29.1664 21.4595 29.2974C21.4595 29.1664 21.4595 29.1664 21.4595 29.2974C21.4595 29.1664 21.4595 29.1664 21.4595 29.2974ZM16.4914 32.7029C16.5691 32.7029 16.6467 32.8339 16.6467 32.9649C16.6467 32.8339 16.6467 32.7029 16.4914 32.7029ZM20.6056 42.3956C20.6833 42.3956 20.6833 42.3956 20.7609 42.3956C20.6833 42.3956 20.7609 42.5266 20.7609 42.5266C20.6833 42.5266 20.6056 42.5266 20.6056 42.3956ZM128.118 44.0984C128.196 44.0984 128.196 44.0984 128.273 44.0984C128.273 44.0984 128.273 44.0984 128.196 44.0984C128.273 44.0984 128.196 44.0984 128.118 44.0984C128.196 44.0984 128.196 44.0984 128.118 44.0984ZM148.145 44.0984C148.068 44.0984 147.99 44.0984 147.913 44.0984C147.99 44.0984 148.068 44.0984 148.145 44.0984ZM147.757 33.3578C147.835 33.3578 147.835 33.3578 147.757 33.3578C147.835 33.3578 147.835 33.3578 147.757 33.3578ZM154.278 20.3906C154.278 20.3906 154.278 20.5216 154.278 20.3906C154.278 20.5216 154.278 20.3906 154.278 20.3906ZM140.616 13.0556C140.538 13.0556 140.538 13.0556 140.616 13.0556V13.0556ZM129.127 10.6979C129.049 10.6979 129.049 10.6979 129.127 10.6979C129.049 10.6979 129.049 10.6979 129.127 10.6979C129.049 10.6979 129.049 10.6979 129.127 10.6979ZM116.707 9.38806C116.707 9.38806 116.784 9.38806 116.707 9.38806C116.784 9.38806 116.784 9.38806 116.707 9.38806ZM92.7204 6.76841C92.7204 6.8994 92.798 6.8994 92.7204 6.76841C92.7204 6.8994 92.7204 6.8994 92.7204 6.76841ZM86.2774 6.63743C86.2774 6.63743 86.355 6.63743 86.4326 6.63743C86.4326 6.63743 86.355 6.63743 86.2774 6.63743ZM85.9669 5.72055C85.9669 5.85154 85.9669 5.72055 85.9669 5.72055V5.72055ZM65.5512 4.54171C65.5512 4.54171 65.4736 4.54171 65.5512 4.54171C65.5512 4.41073 65.5512 4.41073 65.5512 4.27975C65.4736 4.41073 65.4736 4.41073 65.5512 4.54171ZM42.5738 5.72055C42.6515 5.72055 42.6515 5.72055 42.5738 5.72055C42.6515 5.72055 42.5738 5.72055 42.5738 5.72055ZM24.4869 4.80368C24.4869 4.80368 24.5646 4.80368 24.4869 4.80368C24.5646 4.80368 24.5646 4.80368 24.4869 4.80368C24.5646 4.80368 24.5646 4.80368 24.4869 4.80368ZM16.6467 16.985C16.7243 16.985 16.7243 16.985 16.6467 16.985C16.7243 17.116 16.7243 17.116 16.7243 17.247C16.7243 17.116 16.7243 16.985 16.6467 16.985ZM21.4595 16.8541C21.6924 16.5921 21.8477 16.7231 22.0029 16.985C21.77 16.8541 21.6148 16.8541 21.4595 16.8541ZM23.3226 24.0581C23.3226 23.9271 23.2449 23.9271 23.2449 23.7961C23.2449 23.9271 23.2449 23.9271 23.3226 24.0581ZM14.1627 34.6677C14.085 34.6677 14.085 34.6677 14.1627 34.6677C14.085 34.6677 14.085 34.6677 14.1627 34.6677C14.085 34.6677 14.085 34.6677 14.1627 34.6677ZM149.853 27.0707C149.853 27.2017 149.853 27.2017 149.853 27.0707C149.776 27.0707 149.698 27.0707 149.698 27.0707C149.776 27.0707 149.853 27.0707 149.853 27.0707ZM156.451 25.2369C156.451 25.2369 156.374 25.3679 156.296 25.1059C156.296 25.2369 156.374 25.2369 156.451 25.2369ZM94.5834 6.1135C94.5834 6.24448 94.5834 6.24448 94.5834 6.1135C94.5834 6.24448 94.5834 6.24448 94.5834 6.1135C94.5834 6.24448 94.5834 6.1135 94.5834 6.1135ZM86.5103 5.98252C86.5103 5.98252 86.5879 5.98252 86.5103 5.98252C86.5879 5.98252 86.5879 5.98252 86.5103 5.98252C86.5879 5.98252 86.5879 5.98252 86.5103 5.98252ZM75.1768 4.6727C75.3321 4.6727 75.4097 4.6727 75.565 4.6727C75.4097 4.6727 75.2545 4.6727 75.1768 4.6727ZM20.528 4.41073C20.528 4.41073 20.528 4.27975 20.528 4.41073C20.528 4.27975 20.6056 4.41073 20.528 4.41073C20.6056 4.41073 20.528 4.41073 20.528 4.41073ZM17.3453 17.6399C17.2677 17.6399 17.1901 17.6399 17.1901 17.6399C17.1901 17.6399 17.2677 17.6399 17.3453 17.6399ZM10.4366 37.0253C10.4366 37.1563 10.4366 37.1563 10.4366 37.0253C10.359 37.0253 10.4366 37.0253 10.4366 37.0253ZM18.9755 43.3125C18.9755 43.3125 18.8979 43.1815 18.9755 43.1815C18.9755 43.0505 18.9755 43.1815 18.9755 43.3125C18.9755 43.1815 18.9755 43.1815 18.9755 43.3125ZM69.5877 44.2294C69.6654 44.2294 69.6654 44.2294 69.5877 44.2294C69.6654 44.2294 69.5877 44.2294 69.5877 44.2294ZM69.8983 44.2294C69.8983 44.2294 69.8206 44.2294 69.8983 44.2294C69.8206 44.2294 69.8206 44.2294 69.8983 44.2294ZM103.51 44.3604C103.588 44.3604 103.666 44.3604 103.666 44.3604C103.743 44.4913 103.899 44.4913 104.054 44.4913C103.743 44.4913 103.51 44.4913 103.122 44.4913C103.278 44.4913 103.433 44.3604 103.51 44.3604ZM149.853 44.0984C149.853 44.0984 149.776 44.0984 149.853 44.0984C149.776 44.0984 149.853 44.0984 149.853 44.0984ZM161.109 45.4082C161.264 45.1462 161.187 45.0153 161.109 44.7533C161.187 45.0153 161.187 45.2772 161.109 45.4082ZM154.744 35.0606C154.821 35.0606 154.821 35.0606 154.744 35.0606C154.821 35.0606 154.821 35.0606 154.744 35.0606C154.821 35.0606 154.821 35.0606 154.744 35.0606ZM157.15 25.4989C157.15 25.4989 157.15 25.3679 157.15 25.4989C157.15 25.3679 157.15 25.3679 157.15 25.4989C157.228 25.3679 157.228 25.4989 157.15 25.4989ZM121.597 10.174C121.597 10.3049 121.597 10.3049 121.597 10.174C121.753 10.174 121.83 10.174 121.985 10.043H122.063C121.985 10.174 121.753 10.043 121.597 10.174C121.597 10.3049 121.597 10.3049 121.597 10.174C121.597 10.3049 121.597 10.3049 121.597 10.174ZM111.584 6.76841C111.584 6.8994 111.661 6.8994 111.584 6.76841C111.584 6.8994 111.584 6.8994 111.584 6.76841C111.584 6.76841 111.584 6.8994 111.584 6.76841ZM16.3362 12.6626C16.2586 12.7936 16.2586 12.9246 16.2586 13.1865C16.3362 12.9246 16.3362 12.7936 16.3362 12.6626C16.2586 12.6626 16.3362 12.6626 16.3362 12.6626ZM16.6467 13.7105C16.5691 13.7105 16.6467 13.7105 16.6467 13.7105V13.7105ZM18.1216 18.0329C18.2768 18.0329 18.3545 18.1639 18.3545 18.4258C18.3545 18.2949 18.1992 18.1639 18.1216 18.0329ZM8.80646 38.4661C8.88408 38.4661 8.88408 38.4661 8.80646 38.4661C8.88408 38.4661 8.88408 38.4661 8.80646 38.4661ZM10.1261 38.2042C10.1261 38.0732 10.1261 38.2042 10.1261 38.2042V38.2042ZM14.9389 20.9145H15.0166C15.0166 20.7835 15.0166 20.9145 14.9389 20.9145ZM18.4321 18.8188C18.4321 18.8188 18.3545 18.8188 18.4321 18.8188C18.3545 18.8188 18.4321 18.8188 18.4321 18.8188ZM10.7471 39.645C10.6695 39.383 10.5142 39.252 10.359 39.1211C10.5142 39.252 10.6695 39.383 10.7471 39.645ZM73.6243 45.4082C73.5467 45.4082 73.5467 45.4082 73.4691 45.5392C73.2362 45.8012 73.2362 45.5392 73.2362 45.4082C73.3138 45.4082 73.4691 45.5392 73.6243 45.4082ZM82.0856 46.3251C82.1632 46.3251 82.0856 46.3251 82.0856 46.3251V46.3251ZM158.625 26.5467C158.703 26.4158 158.703 26.4158 158.703 26.2848C158.703 26.4158 158.625 26.4158 158.625 26.5467ZM153.967 15.1513V15.2823C153.967 15.2823 153.89 15.2823 153.967 15.1513C153.967 15.2823 153.967 15.2823 153.967 15.1513ZM57.4004 1.26715H57.3228C57.2452 1.26715 57.3228 1.26715 57.4004 1.26715C57.3228 1.26715 57.3228 1.26715 57.4004 1.26715ZM12.1444 9.78101C12.0668 9.91199 12.1444 9.91199 12.1444 9.78101C12.0668 9.91199 12.1444 9.91199 12.1444 9.78101C12.0668 9.78101 12.1444 9.78101 12.1444 9.78101ZM17.3453 27.3326C17.3453 27.4636 17.3453 27.4636 17.3453 27.3326C17.3453 27.4636 17.3453 27.4636 17.3453 27.3326ZM40.2451 46.1941C40.2451 46.3251 40.2451 46.1941 40.2451 46.1941V46.1941ZM109.72 46.3251H109.798C109.798 46.3251 109.798 46.3251 109.72 46.3251ZM123.538 46.4561C123.616 46.4561 123.616 46.4561 123.538 46.4561C123.616 46.4561 123.616 46.4561 123.538 46.4561C123.616 46.4561 123.616 46.4561 123.538 46.4561Z" fill="white" fill-opacity="0.8"/>
</svg>
