<svg width="234" height="52" viewBox="0 0 234 52" fill="none" xmlns="http://www.w3.org/2000/svg">
<path fill-rule="evenodd" clip-rule="evenodd" d="M233.126 41.2168C232.907 40.4309 232.362 40.9548 232.034 40.8238C231.925 40.4309 231.598 40.4309 231.27 40.4309C230.725 40.5619 230.288 40.5619 229.742 40.4309C229.742 40.2999 229.742 40.2999 229.742 40.1689C229.961 39.776 229.742 39.645 229.415 39.514C229.088 39.514 228.76 39.383 228.433 39.252C227.669 38.9901 227.669 38.9901 227.123 39.645H226.905C225.814 39.252 224.722 38.8591 223.522 39.1211C223.522 39.1211 223.413 38.9901 223.304 38.9901C223.74 38.5971 224.177 38.2042 224.395 37.6803C224.613 37.1563 224.831 37.0253 225.377 37.2873C226.578 37.6802 227.123 37.2873 226.905 36.1085C226.905 35.9775 226.905 35.9775 226.905 35.8465C227.232 35.8465 227.451 35.9775 227.778 35.9775C229.524 36.2394 229.088 36.6324 229.524 34.7986C229.633 34.5367 229.633 34.2747 229.742 34.0127C229.852 33.7508 229.961 34.0127 230.07 34.0127C230.506 34.1437 230.943 34.5367 231.052 33.6198C231.161 33.6198 231.27 33.6198 231.489 33.6198C231.816 33.6198 232.143 33.7508 232.471 33.4888C232.362 32.7029 231.816 32.7029 231.27 32.8339L231.379 32.9649C231.379 32.9649 231.27 32.9649 231.27 32.8339C231.052 32.8339 230.725 32.8339 230.506 32.8339C230.397 32.5719 230.288 32.8339 230.07 32.8339C229.852 32.7029 229.633 32.7029 229.524 32.7029C229.524 32.5719 229.742 32.31 229.524 32.179C229.306 32.048 229.088 32.048 228.869 32.31C228.324 32.31 227.778 32.31 227.123 32.31C226.796 31.917 227.232 30.2143 225.923 31.5241H225.595C225.159 30.7382 224.831 31.5241 224.395 31.6551C224.286 31.6551 224.286 31.6551 224.177 31.6551C223.304 31.786 222.321 31.3931 221.557 32.048C221.339 32.179 220.903 32.048 220.575 31.917C219.156 31.3931 217.629 31.5241 216.21 31.786C215.228 32.048 214.682 31.917 214.136 31.0001C214.355 31.0001 214.682 31.0001 214.9 31.0001C215.228 31.5241 215.555 31.5241 215.882 31.0001C216.865 31.1311 217.738 30.6072 218.72 31.0001C219.266 31.0001 219.375 30.4762 219.484 30.0833C219.484 29.8213 219.593 29.5593 219.92 29.6903C220.793 29.9523 221.012 29.2974 221.23 28.6425C221.994 28.5115 222.649 27.9876 223.304 27.5946C223.849 26.8087 224.613 26.5467 225.486 26.2848C225.486 26.2848 225.595 26.2848 225.595 26.1538H225.704C225.704 26.1538 225.704 26.1538 225.814 26.1538C226.032 26.6777 226.25 26.9397 226.796 26.4158C226.905 26.4158 226.905 26.4158 227.014 26.4158C227.451 26.4158 227.996 26.4158 227.56 25.6299C227.451 25.4989 227.451 25.3679 227.342 25.2369C226.905 24.844 226.359 24.713 225.814 24.844C225.05 24.844 224.286 24.844 223.522 24.713C221.557 24.32 221.557 24.3201 222.43 22.3553C222.867 22.2243 223.304 22.4863 223.74 22.0934C223.849 22.0934 223.958 22.0934 224.067 22.0934C224.395 21.9624 224.504 21.7004 224.831 21.4384C225.05 21.3075 225.268 21.3075 225.377 21.1765C225.705 21.5694 226.032 21.9624 226.359 21.1765C226.468 21.1765 226.468 21.1765 226.578 21.1765C226.905 21.1765 227.342 21.1765 227.669 21.0455C227.887 21.0455 228.105 20.9145 228.105 20.5216C227.996 20.2596 227.887 20.1286 227.56 20.2596C227.232 20.3906 226.905 20.2596 226.578 20.1286C226.578 19.9976 226.578 19.8666 226.796 19.7357C227.669 19.4737 228.651 19.0808 228.869 17.9019C228.979 17.9019 228.979 17.9019 229.088 17.9019C229.742 18.1639 230.07 17.509 230.397 17.116C230.506 16.985 230.725 16.8541 230.725 16.7231C230.506 16.3301 230.07 16.3301 229.633 16.3301C229.415 15.9372 228.979 16.1991 228.651 16.0682C228.215 16.0682 227.778 16.1991 227.342 15.8062C227.014 15.4132 226.578 15.6752 226.25 15.5442C226.032 15.0203 225.595 15.4132 225.268 15.2823C225.159 15.2823 225.159 15.2823 225.05 15.2823C224.722 15.1513 224.177 15.4132 223.631 15.2823C223.522 14.7583 223.194 15.0203 222.867 15.0203C222.758 15.0203 222.758 15.0203 222.649 15.0203C222.43 14.8893 222.212 14.7583 222.103 14.6274C221.885 14.6274 221.667 14.6274 221.557 14.6274C221.339 14.6274 221.23 14.4964 221.012 14.4964C219.811 14.6274 218.72 14.3654 217.519 13.8415C217.192 13.7105 216.756 13.7105 216.428 13.5795C215.992 13.4485 215.664 13.5795 215.228 13.3175C215.009 13.1865 214.9 13.0556 214.682 12.9246C214.245 12.5316 213.7 12.7936 213.154 12.6626C213.154 12.1387 212.936 12.1387 212.499 12.2697C211.735 12.4007 210.971 12.2697 210.098 11.8767C209.116 11.4838 208.134 11.2218 207.043 11.4838C206.17 12.0077 205.296 11.3528 204.423 11.4838C203.769 10.5669 202.896 11.2218 202.132 11.0908C201.695 10.9598 201.149 10.8289 200.604 10.8289C200.058 10.4359 199.512 10.6979 198.858 10.5669C197.221 10.3049 195.584 10.043 193.947 9.78101C193.837 9.51904 193.619 9.25708 193.292 9.38806C192.855 9.65003 192.31 9.51904 191.873 9.51904V9.65003V9.78101C191.873 9.65003 191.982 9.65003 191.873 9.51904C191.655 9.25708 191.436 9.38806 191.109 9.25708C190.454 8.60217 189.581 8.99511 188.817 8.86413C188.708 8.86413 188.708 8.86413 188.599 8.86413C187.835 8.47118 187.071 8.73315 186.307 8.60217C186.198 8.60217 186.198 8.60217 186.089 8.60217C185.652 8.20922 185.216 8.47118 184.779 8.3402C184.67 8.3402 184.67 8.3402 184.561 8.3402C184.234 7.81627 183.906 7.55431 183.361 7.81627C183.142 7.94726 182.706 8.07824 182.597 7.94726C181.724 7.03038 180.741 7.42333 179.759 7.55431C179.65 7.29234 179.432 7.29234 179.214 7.29234C178.45 6.8994 177.577 7.16136 176.813 7.03038C176.703 7.03038 176.703 6.8994 176.594 6.8994C174.302 6.8994 172.011 5.72055 169.719 6.24448C169.61 6.24448 169.501 6.24448 169.391 6.24448C168.955 5.45859 168.3 5.58957 167.645 5.72055C166.991 5.85154 166.336 5.85154 165.681 5.72055C163.717 5.58957 161.97 4.6727 159.897 4.80368C158.587 4.93466 157.278 4.6727 156.077 5.19662C155.859 5.19662 155.641 5.32761 155.422 5.19662C155.313 5.06564 155.204 5.06564 155.095 4.93466C154.658 4.6727 154.222 4.14877 153.785 4.14877C152.039 4.01778 150.402 3.49385 148.656 3.62484C147.674 3.75582 146.801 3.49385 145.819 3.23189C145.273 3.10091 144.509 3.10091 144.182 3.8868C144.182 3.8868 144.072 3.8868 143.963 3.8868C143.854 3.49385 143.636 3.23189 143.308 3.10091C142.763 2.96992 142.217 2.70796 141.781 2.83894C140.689 2.96992 139.598 3.10091 138.507 2.83894C138.288 2.83894 138.07 3.10091 137.852 3.23189C137.743 3.23189 137.634 3.23189 137.524 3.23189C136.651 2.446 135.778 2.83894 134.905 3.23189C134.578 2.96992 134.25 3.23189 133.923 3.10091H133.814C133.268 3.10091 132.832 2.96992 132.286 2.96992C132.177 2.96992 132.068 2.96992 131.959 2.96992C130.54 2.96992 129.121 1.79108 127.593 2.31501C127.484 2.31501 127.484 2.31501 127.375 2.31501C126.284 2.31501 125.301 1.26715 124.101 2.05305C123.883 2.18403 123.664 2.05305 123.446 1.92207C122.573 1.6601 121.809 1.13617 120.827 1.39814C120.609 1.39814 120.39 1.39814 120.172 1.26715C119.626 0.874207 119.299 1.00519 118.972 1.52912C118.535 2.05305 118.099 2.18403 117.444 1.79108C116.898 1.52912 116.243 1.39814 116.025 2.31501C115.807 2.31501 115.589 2.18403 115.479 2.18403C115.479 1.79108 116.243 1.79108 115.807 1.39814C115.479 1.52912 115.261 2.18403 115.043 2.31501L114.934 2.446C114.388 2.18403 113.952 1.92207 113.406 2.18403C113.078 2.31501 112.642 2.31501 112.424 2.05305C111.987 1.6601 111.441 1.79108 111.005 1.79108C110.132 1.79108 109.259 2.70796 108.495 1.6601C108.495 1.52912 108.277 1.6601 108.167 1.6601C107.622 1.6601 106.967 1.6601 106.421 1.6601C105.766 1.52912 105.003 0.350278 104.348 1.6601C104.239 1.6601 104.129 1.6601 103.911 1.6601C103.693 1.52912 103.584 1.13617 103.256 1.52912C103.038 1.79108 102.82 1.6601 102.492 1.6601C102.274 1.6601 101.947 1.6601 101.729 1.6601C101.183 1.00519 100.746 1.00519 100.201 1.6601C99.9824 1.6601 99.655 1.6601 99.4367 1.6601C99.3276 1.39814 99.1093 1.39814 98.891 1.26715C98.018 0.874207 97.254 1.26715 96.381 1.26715C94.9622 1.26715 93.4344 1.26715 92.0156 1.26715C92.0156 0.743225 91.5791 0.48126 91.1425 0.48126C89.2873 0.350278 87.5411 0.219295 85.6859 0.48126C84.8128 0.612242 83.8306 1.00519 82.8484 0.350278C82.7392 0.219295 82.521 0.350278 82.4118 0.48126C81.8662 1.00519 81.3205 0.612242 80.9931 0.350278C80.0109 -0.304634 79.247 0.0883128 78.483 0.48126C78.3739 0.48126 78.3739 0.48126 78.2648 0.48126C77.7191 0.612242 77.1734 0.743225 76.6278 0.350278C76.5186 0.219295 76.3003 0.350278 76.0821 0.48126C75.8638 0.743225 75.4273 0.612242 75.0999 0.743225C73.7903 1.00519 72.2624 0.48126 70.9528 1.00519C70.1889 1.26715 69.3158 0.874207 68.661 1.26715C67.3514 0.874207 65.9326 1.00519 64.5139 1.00519C62.4404 0.743225 60.476 1.13617 58.5115 1.79108C57.9659 1.92207 57.4202 1.6601 56.9837 2.05305C56.7654 2.05305 56.6563 1.92207 56.5471 1.6601C56.6563 1.00519 56.438 0.612242 56.0015 1.00519C55.3467 1.52912 54.6919 1.52912 53.9279 1.52912C52.5092 1.52912 51.0905 2.18403 49.5626 1.52912C49.4534 1.52912 49.3443 1.52912 49.3443 1.52912C48.6895 2.18403 48.0347 1.79108 47.489 1.6601C46.5068 1.52912 45.4155 1.6601 44.4333 1.79108C43.8876 1.79108 43.4511 1.92207 43.2328 1.26715C43.1237 1.52912 43.1237 1.6601 43.0146 1.79108C42.578 2.57698 42.3598 2.57698 41.9232 1.79108C41.5958 1.39814 41.3775 1.52912 41.1593 1.79108C40.6136 2.05305 39.9588 2.31501 39.304 2.31501C37.8853 2.31501 36.5757 1.79108 35.1569 2.18403C33.9564 2.446 32.6468 2.18403 31.4464 2.31501C30.355 2.446 29.2637 3.23189 28.0632 2.96992C27.9541 2.96992 27.845 2.96992 27.7358 2.96992C27.2993 2.96992 26.8628 2.96992 26.4262 2.83894C25.5531 2.57698 25.0075 2.83894 24.6801 3.75582C24.4618 3.75582 24.3527 3.75582 24.1344 3.75582C24.1344 3.8868 24.1344 3.8868 24.1344 4.01778C24.1344 3.8868 24.1344 3.8868 24.1344 3.75582C23.6979 4.01778 23.2613 3.8868 23.0431 3.8868C22.3883 3.49385 22.4974 4.01778 22.3883 4.41073C22.0609 4.6727 22.2791 4.80368 22.3883 5.06564C23.3705 5.45859 23.5887 6.8994 25.0075 6.76841C24.1344 7.29234 23.2613 7.29234 22.4974 7.55431C21.4061 7.94725 20.3147 7.94725 19.3325 8.47118C18.896 8.47118 18.5686 8.47118 18.2412 8.47118C17.9138 8.47118 18.0229 8.73315 18.0229 8.86413C17.4772 9.25708 16.9316 9.78101 16.7133 10.4359C16.7133 10.5669 16.6042 10.6979 16.495 10.8289C16.2768 10.8289 16.1676 10.8289 15.9494 10.8289C15.622 10.4359 15.4037 10.8289 15.0763 10.9598C14.858 10.9598 14.6398 11.0908 14.6398 11.3528C14.7489 11.6148 14.858 11.6148 15.0763 11.6148C15.2946 11.6148 15.5128 11.6148 15.622 11.3528C15.9494 11.3528 16.2768 11.3528 16.6042 11.3528C17.0407 11.8767 17.5864 11.7457 18.132 11.7457C19.0051 11.7457 19.7691 12.2697 20.533 12.2697V12.1387V12.2697C20.533 12.5316 20.6421 12.6626 20.9695 12.6626C20.9695 12.7936 21.1878 12.9246 21.2969 13.0556C21.5152 13.7105 21.4061 13.9724 20.7513 13.9724C20.4239 13.9724 20.0965 13.8415 19.7691 14.2344H19.6599C19.2234 14.2344 18.7869 13.8415 18.6777 14.4964C18.6777 14.8893 19.1143 14.7583 19.3325 14.7583C19.4417 15.2823 20.7513 15.0203 19.8782 15.9372C18.7869 16.1991 17.4772 16.4611 16.6042 17.247C15.8402 17.9019 15.0763 18.0329 14.2032 18.1639C13.4393 18.2949 13.221 18.4258 13.7667 19.2117C12.1297 19.2117 10.711 19.3427 9.40135 19.7357C9.18308 19.7357 8.85568 19.7357 8.63741 19.7357C8.52828 19.7357 8.52828 19.6047 8.41914 19.6047C7.10954 19.7357 5.79993 19.9976 4.49033 19.6047C3.94466 19.4737 3.94466 20.1286 3.83553 20.3906C3.72639 20.6525 3.28986 21.0455 3.94466 21.1765H4.05379C4.81773 21.4384 5.47253 22.0933 6.23647 21.7004C6.3456 21.7004 6.56387 21.7004 6.673 21.8314C7.87348 22.7483 9.40135 22.4863 10.711 22.3553C13.5484 22.3553 16.495 21.9624 19.3325 21.9624C21.5152 21.9624 23.6979 21.7004 25.7714 21.9624C25.7714 21.8314 25.7714 21.8314 25.7714 21.7004C25.7714 21.7004 25.7714 21.8314 25.7714 21.9624C25.7714 21.9624 25.8805 21.9624 25.9897 21.9624C26.3171 22.3553 26.6445 22.7483 27.081 23.0102C27.9541 23.5342 28.6089 24.713 29.8094 24.0581C30.0276 24.0581 29.9185 24.582 30.1368 24.713C29.9185 24.713 29.7002 24.713 29.7002 24.975C29.8094 25.3679 30.1368 25.1059 30.355 25.2369C29.0454 25.7609 28.9363 25.7609 29.7002 26.6777V26.8087L29.8094 26.6777C29.1546 26.8087 28.4998 26.5467 28.0632 26.9397C26.6445 26.5467 25.3349 27.3326 23.9161 27.2017C23.807 27.2017 23.807 27.3326 23.6979 27.3326C23.2613 27.5946 22.8248 27.5946 22.3883 27.5946C21.5152 27.8566 20.533 27.7256 19.7691 28.3805C19.0051 28.5115 18.2412 27.7256 17.4772 28.1185C17.0407 27.7256 16.6042 27.9876 16.1676 27.9876C15.9494 27.9876 15.8402 28.1185 15.622 28.1185C13.7667 27.9876 11.8023 27.8566 9.94702 27.9876C9.94702 28.1185 9.94702 28.1185 9.94702 28.2495V28.1185C9.40135 27.8566 8.85568 28.2495 8.41914 28.5115C8.09174 28.7734 7.32781 29.0354 7.65521 29.5593C8.09174 30.2143 8.74655 30.7382 9.51048 30.2143C9.61962 30.2143 9.61962 30.2143 9.72875 30.2143C9.40135 30.8692 8.85568 30.8692 8.31001 30.6072C7.76434 30.3452 7.32781 30.2143 6.89127 30.8692C6.56387 31.2621 5.90907 31.3931 5.47253 31.3931C4.81773 31.2621 4.16293 30.4762 4.05379 31.917C4.05379 31.917 3.83553 31.917 3.72639 31.917C3.07159 31.917 3.07159 31.3931 2.85332 30.8692C2.63505 31.3931 2.41679 31.6551 2.19852 32.048C2.08938 32.31 2.19852 32.7029 2.41679 32.8339C2.96245 32.9649 2.96245 33.2268 2.96245 33.7508C2.96245 34.2747 3.28986 34.7986 3.72639 34.9296C4.27206 34.9296 4.7086 34.5367 4.81773 34.0127C5.036 33.6198 5.14513 33.7508 5.47253 33.7508C6.3456 34.1437 6.78214 35.0606 7.43694 35.3226C7.76434 35.4535 8.09174 35.4535 8.09174 35.9775C8.09174 36.2394 7.98261 36.3704 7.76434 36.3704C7.43694 36.5014 7.21867 36.3704 6.89127 35.9775C6.23647 35.3226 5.25426 35.4535 4.59946 36.3704C4.38119 36.6324 4.38119 37.1563 4.05379 37.2873C3.50812 37.6802 2.96245 37.5493 2.52592 37.0253C2.30765 36.8944 1.76198 36.8944 1.98025 37.2873C2.30765 38.3352 1.43458 38.0732 0.998047 38.3352C1.54372 38.5971 2.08938 38.4661 2.41679 38.8591C2.63505 39.252 3.07159 39.252 3.39899 38.9901C3.83552 38.5971 3.07159 38.4661 3.07159 38.0732C3.94466 38.3352 4.7086 38.5971 5.47253 37.9422C5.79993 37.9422 6.23647 37.9422 6.56387 37.9422C6.45473 38.8591 5.3634 37.9422 5.14513 38.8591C5.90907 38.4661 6.45474 38.8591 7.0004 39.1211C7.43694 39.252 7.98261 39.252 8.31001 38.9901C8.85568 38.5971 9.29221 38.7281 9.83788 38.7281C10.0562 38.7281 10.3836 38.5971 10.6018 38.5971C10.8201 38.8591 11.0384 38.7281 11.2566 38.8591C11.3658 38.8591 11.4749 38.8591 11.3658 38.9901C11.3658 38.9901 11.2566 38.9901 11.1475 38.9901C11.0384 39.514 11.584 39.252 11.6932 39.514C11.0384 40.2999 11.1475 41.3478 11.9114 41.6097C12.6754 41.8717 13.5484 42.1336 14.4215 42.2646C15.0763 42.3956 15.8402 42.9195 16.495 42.0027C16.6042 42.0027 16.7133 42.0027 16.8224 42.0027C17.0407 42.1337 17.3681 42.3956 17.5864 42.5266C17.9138 42.6576 18.132 42.7886 17.9138 43.0505C17.259 43.8364 18.0229 43.5745 18.2412 43.5745C18.3503 43.7054 18.4595 43.7054 18.5686 43.8364C19.0051 43.8364 19.1143 45.2772 19.8782 44.2294C20.0965 44.2294 20.2056 44.2294 20.4239 44.2294C20.9695 44.6223 21.5152 44.3604 22.17 44.3604C22.0609 44.7533 21.7335 44.4913 21.6243 44.7533C22.8248 45.5392 22.8248 45.5392 22.9339 44.6223C23.1522 44.7533 23.4796 44.7533 23.6979 44.6223C24.1344 44.7533 24.5709 44.7533 25.0075 44.6223C25.1166 44.6223 25.1166 44.6223 25.2257 44.6223C25.5531 45.0153 26.0988 44.7533 26.5354 44.8843C27.2993 45.0153 28.0632 45.0153 28.8272 45.2772C28.4998 45.2772 28.1724 45.2772 27.845 45.2772C27.7358 45.2772 27.4084 45.2772 27.4084 45.4082C27.2993 45.6702 27.6267 45.6702 27.7358 45.6702C28.1724 45.6702 28.4998 45.6702 28.9363 45.6702C29.0454 45.8012 29.1546 45.8012 29.3728 45.8012C30.9007 45.5392 32.4286 45.9321 33.8473 46.0631C33.9564 46.0631 33.9564 46.0631 34.0656 46.0631C34.5021 46.0631 34.9387 46.0631 35.3752 46.0631C35.8117 47.111 36.5757 47.111 37.4487 46.849C37.3396 46.587 37.2305 46.3251 37.0122 46.0631C37.3396 46.0631 37.667 46.0631 37.9944 46.0631C37.8853 46.587 38.6492 46.587 38.4309 47.242C38.8675 46.98 38.9766 46.587 39.0857 46.3251C39.7405 46.3251 40.3953 46.3251 40.941 46.3251C41.1593 46.0631 42.1415 46.849 41.4867 45.6702C41.9232 45.6702 42.3597 45.6702 42.7963 45.6702C42.9054 45.9321 42.578 46.1941 42.6871 46.1941C43.342 46.1941 43.8876 46.849 44.5424 46.4561C45.1972 46.4561 45.7429 46.4561 46.3977 46.4561C47.0525 46.4561 47.7073 46.4561 48.253 46.4561C49.3443 46.849 49.89 46.5871 49.89 45.8012C50.5448 45.8012 51.1996 46.0631 51.9635 45.6702C52.0727 45.6702 52.1818 45.6702 52.2909 45.6702C52.4001 45.9321 52.7275 46.0631 52.9457 46.0631C53.9279 46.0631 53.9279 46.0631 53.6005 47.242C54.3645 46.0631 54.4736 47.3729 54.9101 47.3729C55.0193 46.98 55.0193 46.718 55.3467 46.4561C56.1106 46.3251 56.7654 46.718 57.5293 46.718C57.6385 46.4561 57.5293 46.4561 57.3111 46.3251C57.4202 46.4561 57.5293 46.4561 57.5293 46.718C57.9659 46.98 58.4024 47.3729 58.8389 46.718C59.0572 46.718 59.1663 46.718 59.3846 46.718C59.4938 46.98 59.712 47.242 60.0394 46.98C60.476 46.718 60.8034 46.3251 60.8034 45.6702C61.349 45.2772 61.8947 45.5392 62.5495 45.6702C62.5495 46.0631 61.6764 46.587 62.5495 46.849C62.986 46.98 63.6408 47.111 64.1865 46.4561C64.4048 46.1941 64.623 46.1941 64.8413 46.4561C65.2778 47.242 66.0418 46.849 66.5874 47.111C66.9148 47.111 67.1331 46.849 67.1331 46.4561C67.1331 46.1941 67.024 45.9321 67.024 45.6702C67.1331 45.4082 67.3514 45.5392 67.5696 45.4082C67.6788 45.1462 67.897 45.0153 68.1153 44.8843C68.3336 44.8843 68.661 44.8843 68.8793 44.8843C68.8793 44.7533 68.8793 44.7533 68.7701 44.6223C68.7701 44.6223 68.7701 44.6223 68.8793 44.6223C68.8793 44.7533 68.8793 44.7533 68.8793 44.8843C69.2067 45.4082 69.2067 45.2772 69.7523 45.0153C70.0797 44.8843 70.5163 44.8843 70.9528 44.8843C71.4985 44.8843 70.9528 45.2772 71.0619 45.4082C71.1711 45.8012 71.3893 45.6702 71.6076 45.6702C71.935 45.6702 72.3715 45.8012 72.5898 45.5392C72.8081 45.2772 72.2624 45.1462 72.3715 44.8843C72.6989 44.8843 73.1355 44.8843 73.572 44.8843C73.0263 45.1462 73.1355 45.1462 73.1355 45.2772C73.3537 45.9321 73.7903 45.5392 74.1177 45.4082C74.4451 45.1462 74.6633 45.0153 75.0999 45.1462C75.5364 45.2772 75.973 45.4082 76.4095 45.1462C76.5186 45.0153 76.7369 45.0153 76.846 45.1462C77.1734 45.9321 77.61 45.4082 77.9374 45.2772C78.1556 45.1462 78.3739 45.0153 78.7013 45.0153C79.7926 45.0153 80.884 45.2772 82.0844 45.2772C82.521 45.2772 82.7393 45.5392 82.521 45.9321C82.3027 46.3251 82.4118 46.98 81.8662 47.242C82.6301 47.3729 83.1758 47.7659 83.7215 47.3729C84.158 47.111 84.3762 47.242 84.8128 47.3729C85.9041 47.7659 86.9955 47.242 88.0868 47.111C88.1959 47.111 88.1959 46.98 88.3051 46.849C88.4142 46.718 88.5233 46.587 88.6325 46.849C89.069 47.3729 89.7238 46.718 90.2695 46.98C91.2517 47.5039 91.3608 47.3729 91.2517 46.1941C91.2517 46.0631 91.1425 45.8012 91.0334 45.6702C91.5791 45.5392 92.1247 45.2772 92.6704 45.6702C92.7795 45.6702 92.8887 45.6702 93.1069 45.5392C92.9978 45.5392 92.7795 45.5392 92.6704 45.6702C92.8887 45.9321 93.2161 46.0631 93.4344 46.0631C94.6348 46.1941 95.7262 46.1941 96.9266 46.3251C97.1449 46.3251 97.3632 46.0631 97.4723 46.4561C97.5814 46.849 97.254 46.849 97.0358 46.98C97.0358 46.98 96.8175 46.98 96.8175 47.242C97.4723 47.5039 98.018 47.7659 98.7819 47.242C98.5636 47.242 98.1271 47.3729 98.1271 46.98C98.018 46.718 98.2362 46.587 98.4545 46.4561C98.6728 46.3251 98.7819 46.0631 99.0002 45.8012C99.1093 45.9321 99.1093 45.9321 99.2184 46.0631C99.2184 46.1941 98.891 46.3251 99.0002 46.587C99.3276 46.4561 99.4367 46.3251 99.5458 46.0631C99.655 45.8012 100.092 45.9321 100.31 45.6702C100.965 45.6702 101.51 46.587 102.383 46.1941C102.492 46.0631 102.711 46.4561 102.711 46.718C102.711 47.111 102.383 47.111 102.056 47.111C101.838 47.111 101.51 46.718 101.51 47.242C101.51 47.6349 101.838 47.3729 102.056 47.3729C102.383 47.3729 102.82 47.3729 103.147 47.3729C103.256 47.6349 103.475 47.7659 103.693 47.7659C104.675 47.7659 105.657 47.7659 106.64 47.8969C107.185 48.0279 107.84 47.8969 108.277 47.3729C108.495 47.242 108.822 47.242 109.04 47.3729C108.822 48.1588 108.386 48.4208 107.731 48.6828C107.185 48.9447 106.749 49.4687 107.076 50.1236C107.294 50.6475 108.713 51.1714 109.04 50.9095C109.15 50.7785 109.368 50.6475 109.368 50.5165C109.15 49.5996 110.132 49.2067 110.241 48.4208C110.241 48.1588 110.459 48.0279 110.677 48.0279C111.223 48.0279 111.66 47.8969 112.205 47.8969C112.751 47.8969 113.406 47.8969 113.733 48.6828C114.061 49.3377 114.825 49.3377 115.152 48.6828C115.37 48.1588 115.698 48.1588 116.025 48.1588C116.571 48.1588 117.007 48.1588 117.553 48.0279C117.989 47.8969 118.317 48.1588 118.099 48.6828C117.989 49.2067 117.989 49.7306 117.989 50.2546C117.989 50.6475 117.88 50.9095 118.317 51.1714C118.644 51.3024 118.863 51.0405 119.081 50.7785C119.299 50.5165 119.408 50.3855 119.626 50.7785C119.845 51.0405 120.063 51.3024 120.281 50.9095C120.5 50.6475 120.718 50.1236 120.5 49.7306C120.39 49.4687 120.281 49.0757 119.954 49.0757C119.626 49.2067 119.299 49.2067 119.408 48.6828C119.408 48.1588 119.736 48.0279 120.063 48.0279C120.609 48.1588 121.045 48.1588 121.591 48.1588C122.027 48.1588 122.355 48.2898 122.573 48.6828C123.119 49.5996 123.555 49.4687 124.101 48.5518C124.428 48.0279 124.974 47.3729 125.52 47.6349C126.72 48.1588 128.357 48.2898 129.339 47.5039C129.558 47.3729 129.667 47.3729 129.776 47.5039C131.195 48.8138 132.613 47.7659 134.032 47.3729C134.469 47.242 134.469 47.111 134.796 47.6349C135.014 48.1588 135.451 48.2898 135.669 47.6349C135.778 47.6349 135.887 47.6349 135.997 47.6349C135.997 48.0279 136.433 48.1588 136.651 48.0279C137.197 47.7659 137.634 48.0279 138.07 48.0279C138.834 48.1588 139.598 48.0279 140.362 47.7659C141.453 47.5039 142.217 48.2898 142.872 49.2067C143.527 49.7306 143.854 49.4687 144.291 48.6828C144.618 47.8969 145.164 47.5039 146.146 47.8969C147.019 48.1588 148.11 48.6828 148.874 47.8969C149.42 47.3729 149.747 47.6349 150.184 47.7659C151.275 48.2898 152.367 48.5518 153.458 47.7659C153.676 47.6349 153.894 47.5039 154.113 47.7659C154.44 48.0279 154.877 48.0279 155.204 48.1588C155.75 48.2898 156.186 47.8969 156.623 47.8969C157.605 47.8969 158.696 48.1588 159.679 48.0279C160.333 47.8969 161.097 48.4208 161.752 47.6349C161.861 47.3729 161.97 47.5039 162.189 47.6349C162.298 48.1588 162.625 48.0279 162.843 47.8969C163.171 47.7659 163.498 47.6349 163.935 47.8969C164.808 48.2898 165.79 48.4208 166.663 47.6349C167.318 48.4208 167.536 48.4208 168.191 47.6349C168.409 47.6349 168.628 47.6349 168.955 47.6349C169.064 48.2898 169.501 48.1588 169.937 48.2898C170.81 48.2898 171.574 48.0279 172.447 48.1588C173.32 48.2898 173.648 48.0279 173.648 47.111C173.866 47.111 173.975 47.111 174.193 47.111C174.302 47.242 174.412 47.242 174.521 46.98C174.521 46.98 174.521 46.98 174.521 47.111C174.412 47.111 174.302 47.111 174.084 47.111C174.084 47.3729 174.084 47.6349 174.302 47.6349C174.521 47.6349 174.739 47.5039 174.848 47.242C174.739 47.111 174.739 47.111 174.63 46.98C174.63 47.111 174.63 47.242 174.739 47.242C175.066 47.242 175.503 47.242 175.83 47.242C176.267 48.1588 178.231 48.5518 178.777 47.7659C178.886 47.6349 178.886 47.5039 178.886 47.3729C178.995 47.3729 179.104 47.3729 179.214 47.3729C179.323 47.8969 179.977 48.2898 179.541 48.9447C179.432 49.2067 179.759 49.5996 180.196 49.5996C181.178 49.7306 182.16 49.3377 182.924 48.9447C183.797 48.5518 184.561 48.6828 185.216 49.0757C185.871 49.4687 186.416 49.5996 186.962 48.8138C187.508 48.1588 187.944 48.4208 188.162 49.2067C188.272 49.4687 188.272 49.8616 188.272 50.2546C188.162 50.7785 188.053 51.1714 188.708 51.3024C189.254 51.3024 189.69 50.9095 189.69 50.3855C189.799 49.4687 190.018 49.2067 190.782 49.0757C191 49.0757 191.327 48.8138 191.546 49.2067C191.655 49.5996 191.218 49.4687 191 49.5996C190.673 49.7306 190.673 49.9926 190.673 50.2546C190.673 50.5165 190.782 50.6475 191.109 50.7785C191.327 50.7785 191.655 50.7785 191.655 50.6475C191.764 50.1236 192.31 49.8616 192.31 49.4687C192.419 48.9447 192.528 48.8138 193.074 48.8138C193.51 48.8138 193.728 49.2067 193.728 49.5996C193.728 49.9926 193.947 50.1236 194.274 50.2546C194.601 50.2546 194.82 50.1236 194.82 49.7306C195.038 48.8137 195.584 48.8138 196.129 49.4687C196.457 49.8616 196.675 50.1236 197.221 49.7306C197.439 49.5996 197.657 49.5996 197.985 49.7306C198.639 49.9926 198.967 49.5996 199.076 48.8138C199.076 48.4208 199.185 48.0279 199.294 47.7659C199.403 47.7659 199.403 47.7659 199.512 47.7659C199.84 48.4208 200.276 48.5518 200.822 48.2898C201.259 48.1588 201.695 48.0279 202.132 48.4208C203.114 49.0757 203.223 49.0757 203.55 47.8969C203.769 47.8969 203.987 47.8969 204.096 47.8969C204.096 48.2898 204.314 48.6828 204.096 49.2067C203.987 49.4687 204.096 49.8616 204.314 49.8616C205.078 49.8616 205.624 50.6475 206.279 50.5165C207.152 50.3855 208.243 50.6475 208.789 49.4687C208.898 49.3377 209.007 49.0757 209.334 49.0757C209.334 49.4687 209.225 49.9926 209.88 49.9926C210.535 49.9926 210.426 49.4687 210.535 48.8138C210.753 49.7306 211.081 50.1236 211.735 49.9926C212.499 49.8616 213.045 50.2546 213.154 51.1714C213.263 51.5644 213.482 51.6954 213.918 51.6954C214.245 51.6954 214.573 51.6954 214.682 51.1714C214.791 50.7785 215.009 50.3855 215.119 49.9926C215.228 49.7306 215.337 49.5996 215.555 49.5996C216.319 49.4687 217.301 50.5165 217.41 51.3024C217.41 51.6954 217.629 51.8263 217.956 51.8263C218.174 51.8263 218.393 51.6954 218.611 51.6954C219.811 51.9573 219.811 51.9573 219.702 50.6475C219.702 50.5165 219.702 50.3855 219.811 50.2546C219.92 50.1236 220.139 50.2546 220.248 50.3855C220.357 50.5165 220.357 50.7785 220.575 50.9095C221.121 51.6954 222.212 51.8263 222.758 51.0405C223.085 50.6475 223.194 51.0405 223.304 51.1714C223.631 51.4334 223.958 51.8263 224.395 51.1714C224.613 50.7785 224.831 51.0405 224.831 51.4334C224.831 51.6954 224.941 51.9573 225.268 51.9573C225.595 51.9573 225.595 51.6954 225.595 51.4334C225.595 50.6475 226.141 50.3855 226.905 50.3855C227.56 50.3855 228.979 50.5165 228.76 49.7306C228.433 48.5518 229.633 48.5518 229.415 47.7659C229.415 47.7659 229.415 47.7659 229.415 47.6349C229.415 47.111 229.306 46.4561 230.179 46.849C230.506 46.98 230.725 46.718 230.725 46.3251C230.725 45.9321 230.288 45.9321 230.07 45.6702C230.397 45.5392 230.725 45.4082 231.052 45.4082C231.379 45.4082 231.707 45.4082 232.034 45.2772C232.362 45.2772 232.798 45.1462 232.689 44.7533C232.471 43.9674 233.126 43.5745 233.344 43.0505C233.453 42.9195 233.562 42.7886 233.78 42.6576C233.89 42.3956 233.999 42.1337 233.999 42.0027C233.562 40.8238 233.344 41.0858 233.126 41.2168ZM19.4417 43.0505C19.4417 43.0505 19.3325 43.0505 19.4417 43.0505V43.0505ZM32.4286 24.844C32.4286 24.844 32.5377 24.844 32.4286 24.844C32.5377 24.844 32.4286 24.844 32.4286 24.844ZM27.1902 7.68529C27.1902 7.68529 27.1902 7.81627 27.1902 7.68529C27.1902 7.81627 27.1902 7.81627 27.1902 7.68529C27.081 7.81627 27.1902 7.81627 27.1902 7.68529ZM26.6445 5.32761C26.6445 5.19662 26.5354 5.19662 26.6445 5.32761C26.5354 5.19662 26.5354 5.19662 26.6445 5.32761C26.6445 5.19662 26.6445 5.19662 26.6445 5.32761ZM13.1119 35.9775C13.221 35.9775 13.221 35.9775 13.3302 35.8465C13.3302 35.9775 13.221 35.9775 13.1119 35.9775ZM28.8272 6.37547C29.0454 6.50645 29.2637 6.37547 29.3728 6.37547C29.0454 6.37547 28.718 6.50645 28.3906 6.63743C28.6089 6.76841 28.8272 6.63743 28.8272 6.37547ZM193.074 12.0077C193.074 12.0077 193.183 12.0077 193.074 12.0077C193.074 12.1387 192.964 12.1387 192.964 12.2697C193.074 12.2697 193.074 12.1387 193.074 12.0077ZM135.451 44.7533H135.342C135.451 44.7533 135.451 44.7533 135.451 44.7533ZM131.304 8.20922C131.304 8.20922 131.413 8.20922 131.304 8.20922V8.20922ZM188.272 12.2697L188.381 12.4007C188.381 12.4007 188.272 12.4007 188.272 12.2697ZM156.623 44.4913C156.514 44.4913 156.623 44.4913 156.623 44.4913C156.514 44.4913 156.514 44.4913 156.623 44.4913C156.732 44.4913 156.841 44.4913 156.95 44.4913C156.841 44.4913 156.732 44.4913 156.623 44.4913ZM91.4699 5.19662C91.3608 5.19662 91.4699 5.19662 91.4699 5.19662V5.19662ZM93.98 6.24448C93.8709 6.24448 93.7618 6.24448 93.6526 6.24448C93.8709 6.1135 93.8709 6.1135 93.98 6.24448ZM127.157 7.94726C127.266 7.94726 127.266 7.94726 127.375 7.94726C127.375 7.94726 127.266 7.94726 127.157 7.94726ZM29.0454 35.0606C29.1546 35.0606 29.2637 35.0606 29.3728 35.0606H29.2637C29.1546 35.0606 29.1546 35.0606 29.0454 35.0606ZM49.9991 6.63743H50.1082C50.1082 6.63743 50.1082 6.63743 49.9991 6.63743ZM138.07 8.60217C138.07 8.60217 137.961 8.60217 138.07 8.60217C137.961 8.60217 137.961 8.60217 137.961 8.60217C137.961 8.60217 137.961 8.60217 138.07 8.60217ZM204.423 23.5342C204.751 23.5342 204.751 23.4032 204.751 23.1412H204.86C204.86 23.2722 204.642 23.4032 204.423 23.5342ZM34.7204 13.1865C34.8295 13.1865 34.8295 13.1865 34.8295 13.3175C34.7204 13.3175 34.7204 13.3175 34.6113 13.3175C34.7204 13.1865 34.6113 13.1865 34.7204 13.1865ZM39.9588 7.03038C39.9588 7.03038 39.8497 7.03038 39.9588 7.03038C39.8497 7.03038 39.9588 7.03038 39.9588 7.03038ZM99.3276 7.81627H99.4367C99.4367 7.81627 99.4367 7.81627 99.3276 7.81627C99.4367 7.81627 99.3276 7.81627 99.3276 7.81627ZM116.68 7.42333C116.68 7.42333 116.571 7.42333 116.68 7.42333C116.571 7.42333 116.571 7.42333 116.68 7.42333C116.571 7.42333 116.68 7.42333 116.68 7.42333ZM146.801 10.3049C146.801 10.4359 146.91 10.3049 146.801 10.3049C146.91 10.4359 146.801 10.4359 146.801 10.3049C146.801 10.4359 146.801 10.3049 146.801 10.3049ZM100.528 11.0908C100.528 11.0908 100.637 11.0908 100.746 11.0908C100.855 11.0908 100.965 11.0908 101.074 11.0908C100.855 11.0908 100.637 11.0908 100.419 11.2218C100.419 11.2218 100.528 11.2218 100.528 11.0908ZM184.234 13.0556C184.234 13.0556 184.343 13.0556 184.343 13.1865C184.234 13.0556 184.234 13.0556 184.234 13.0556ZM194.71 41.7407C194.71 41.7407 194.82 41.7407 194.71 41.7407C194.82 41.7407 194.82 41.8717 194.71 41.7407C194.71 41.7407 194.71 41.8717 194.71 41.7407ZM47.7073 35.1916C47.7073 35.0606 47.7073 35.0606 47.5982 34.9296C47.7073 34.9296 47.7073 35.0606 47.7073 35.1916C47.7073 35.0606 47.7073 35.0606 47.7073 35.1916ZM182.706 15.8062C182.706 15.6752 182.706 15.6752 182.706 15.8062C182.706 15.6752 182.706 15.6752 182.706 15.8062ZM198.421 42.1336C198.421 42.1336 198.53 42.1336 198.421 42.1336C198.421 42.2646 198.421 42.2646 198.421 42.1336ZM192.2 20.3906C192.2 20.5216 192.2 20.5216 192.2 20.3906C192.091 20.3906 192.2 20.3906 192.2 20.3906ZM194.492 34.5367C194.492 34.5367 194.601 34.5367 194.492 34.5367C194.601 34.5367 194.601 34.5367 194.492 34.5367ZM191.218 33.8818C191.218 34.0127 191.218 34.2747 191.327 34.4057C191.109 34.2747 191 34.1437 191.218 33.8818C191.109 33.8818 191.109 33.8818 191.218 33.8818ZM194.601 39.1211C194.601 39.1211 194.492 39.1211 194.601 39.1211V39.1211ZM195.038 34.5367C195.038 34.4057 195.038 34.4057 195.038 34.5367C195.147 34.4057 195.038 34.4057 195.038 34.5367ZM95.2896 14.3654C95.2896 14.4964 95.1805 14.4964 95.1805 14.6274C95.2896 14.4964 95.2896 14.3654 95.2896 14.3654ZM84.3762 14.3654C84.2671 14.4964 84.0488 14.6274 83.9397 14.7583C84.0488 14.6274 84.158 14.4964 84.3762 14.3654ZM92.6704 22.8792C92.5613 22.8792 92.5613 22.8792 92.5613 22.8792H92.6704ZM143.09 23.0102C142.981 23.0102 142.981 23.1412 142.872 23.1412V23.0102C142.981 23.0102 143.09 23.0102 143.09 23.0102ZM153.458 22.0934C153.567 21.9624 153.567 22.0934 153.458 22.0934C153.567 22.0934 153.567 22.0934 153.458 22.0934C153.567 22.0934 153.458 22.0934 153.458 22.0934ZM150.293 28.7734C150.402 28.6425 150.184 28.5115 150.184 28.3805C150.293 28.5115 150.293 28.6425 150.293 28.7734C150.402 28.7734 150.293 28.7734 150.293 28.7734ZM147.019 32.179C147.019 32.31 147.019 32.31 147.019 32.179C147.019 32.31 146.91 32.31 147.019 32.179C146.91 32.31 147.019 32.31 147.019 32.179ZM154.986 32.7029C155.095 32.8339 155.095 32.9649 155.095 33.0959C155.095 32.9649 154.986 32.7029 154.986 32.7029ZM155.641 21.0455H155.531H155.641ZM154.113 21.0455C154.113 21.1765 154.113 21.0455 154.113 21.0455C154.004 21.0455 154.113 21.0455 154.113 21.0455ZM151.057 19.6047C150.948 19.6047 150.948 19.6047 151.057 19.6047C150.948 19.6047 150.948 19.6047 151.057 19.6047C150.948 19.6047 150.948 19.6047 151.057 19.6047ZM153.021 37.0253C153.021 37.1563 153.021 37.1563 153.021 37.0253C153.021 37.1563 153.021 37.1563 153.021 37.0253C153.021 37.1563 153.021 37.1563 153.021 37.0253ZM168.518 30.0833C168.409 30.0833 168.409 29.9523 168.3 30.0833H168.191C168.3 30.0833 168.409 30.0833 168.518 30.0833ZM164.699 26.4158C164.59 26.4158 164.59 26.4158 164.699 26.4158C164.59 26.4158 164.699 26.4158 164.699 26.4158ZM179.432 29.8213C179.432 29.8213 179.432 29.9523 179.432 29.8213C179.432 29.9523 179.432 29.9523 179.432 29.8213ZM187.289 17.378H187.399V17.509C187.399 17.509 187.399 17.509 187.289 17.378ZM165.026 20.9145C165.026 20.9145 165.026 21.0455 165.026 20.9145V20.9145ZM147.128 19.8666C147.237 19.9976 147.237 19.8666 147.346 19.9976C147.237 19.9976 147.128 19.8666 147.019 19.8666C147.019 19.8666 147.128 19.7357 147.128 19.8666ZM144.509 19.0808C144.618 19.0808 144.727 19.0808 144.836 19.0808C144.836 19.2117 144.618 19.0808 144.509 19.0808ZM106.749 17.6399C106.858 17.509 106.967 17.6399 106.967 17.509C106.858 17.6399 106.749 17.6399 106.749 17.6399ZM123.337 15.8062C123.228 15.8062 123.01 15.6752 122.9 15.5442C123.01 15.6752 123.119 15.6752 123.337 15.8062ZM120.718 14.6274C120.936 14.6274 120.936 14.7583 121.045 14.7583C120.936 14.7583 120.827 14.7583 120.718 14.6274ZM104.239 17.6399C104.348 17.6399 104.457 17.7709 104.566 17.7709C104.457 17.7709 104.348 17.6399 104.239 17.6399ZM112.424 17.509C112.424 17.509 112.533 17.509 112.642 17.509C112.533 17.509 112.424 17.6399 112.424 17.7709C112.424 17.6399 112.314 17.509 112.424 17.509ZM121.263 19.6047C121.373 19.6047 121.373 19.7357 121.263 19.6047C121.373 19.7357 121.373 19.7357 121.263 19.6047C121.373 19.7357 121.373 19.6047 121.263 19.6047ZM163.607 31.0001C163.498 31.1311 163.498 31.0001 163.607 31.0001C163.498 31.0001 163.607 31.0001 163.607 31.0001ZM166.445 29.5593C166.445 29.4284 166.336 29.5593 166.336 29.4284C166.336 29.5593 166.445 29.5593 166.445 29.5593ZM184.998 16.7231C184.998 16.7231 185.107 16.7231 184.998 16.7231C185.107 16.7231 185.107 16.7231 184.998 16.7231ZM181.724 16.4611C181.833 16.3301 181.942 16.3301 181.942 16.4611C181.833 16.3301 181.833 16.3301 181.724 16.4611ZM148.329 16.1991C148.22 16.1991 148.22 16.1991 148.329 16.1991C148.22 16.1991 148.329 16.1991 148.329 16.1991ZM101.947 17.116C101.838 17.116 101.729 17.116 101.729 17.116C101.729 17.116 101.838 17.116 101.947 17.116ZM85.0311 10.6979C84.9219 10.6979 84.8128 10.5669 84.7037 10.5669H84.8128C84.9219 10.5669 84.9219 10.6979 85.0311 10.6979ZM122.464 26.5467C122.464 26.9397 122.791 27.0707 123.119 27.2017C122.9 27.0707 122.682 26.8087 122.464 26.5467ZM139.816 27.9876C139.707 28.1185 139.707 28.1185 139.598 28.2495C139.489 28.1185 139.38 28.1185 139.38 27.9876C139.38 27.9876 139.598 27.9876 139.816 27.9876ZM182.815 28.1185C182.706 28.1185 182.488 27.9876 182.488 27.8566C182.597 27.9876 182.815 27.9876 182.924 28.1185C182.924 28.1185 182.924 28.1185 182.815 28.1185ZM198.094 39.1211C198.094 39.252 198.094 39.383 198.094 39.514C198.203 39.383 198.203 39.252 198.094 39.1211ZM197.657 20.3906C197.766 20.3906 197.766 20.3906 197.766 20.2596C197.875 20.3906 197.766 20.3906 197.657 20.3906C197.766 20.3906 197.766 20.3906 197.657 20.3906ZM198.639 18.6878C198.639 18.5568 198.639 18.5568 198.639 18.6878V18.6878ZM202.896 19.8666H202.786C202.896 19.8666 202.896 19.8666 202.896 19.8666ZM130.54 14.8893C130.54 14.8893 130.649 14.8893 130.54 14.8893C130.649 14.8893 130.54 14.8893 130.54 14.8893ZM106.421 9.1261C106.421 8.99511 106.421 9.1261 106.421 9.1261V9.1261ZM98.018 15.0203C98.018 15.0203 98.018 14.8893 98.018 15.0203C98.1271 14.8893 98.1271 14.8893 98.2362 14.8893C98.1271 15.0203 98.018 15.0203 98.018 15.0203ZM83.9397 9.78101C83.8306 9.78101 83.7215 9.78101 83.7215 9.65003C84.0489 9.65003 84.2671 9.65003 84.5945 9.51904C84.2671 9.78101 84.158 9.91199 83.9397 9.78101ZM68.661 16.4611C68.661 16.3301 68.661 16.3301 68.661 16.4611C68.661 16.3301 68.661 16.3301 68.661 16.4611C68.661 16.3301 68.661 16.3301 68.661 16.4611ZM44.6516 27.8566C44.5424 27.8566 44.5424 27.8566 44.6516 27.8566V27.8566ZM49.3443 35.0606C49.3443 35.0606 49.4534 35.0606 49.4534 35.1916C49.4534 35.0606 49.3443 35.0606 49.3443 35.0606ZM59.6029 13.3175C59.6029 13.3175 59.6029 13.1865 59.6029 13.3175C59.6029 13.1865 59.6029 13.1865 59.6029 13.3175C59.6029 13.1865 59.712 13.3175 59.6029 13.3175ZM50.9813 13.8415C50.9813 13.8415 51.0905 13.8415 50.9813 13.8415H50.8722H50.9813ZM44.979 34.6677C44.979 34.6677 44.8698 34.6677 44.979 34.6677C44.8698 34.6677 44.979 34.6677 44.979 34.6677ZM130.322 31.0001C130.431 31.0001 130.322 31.0001 130.322 31.0001V31.0001ZM130.322 31.0001C130.322 30.8692 130.322 30.6072 130.322 30.4762C130.322 30.6072 130.212 30.7382 130.322 31.0001ZM148.11 37.2873C148.001 37.2873 148.001 37.1563 147.892 37.1563C148.001 37.2873 148.11 37.1563 148.11 37.2873ZM190.891 38.4661C190.891 38.4661 190.782 38.4661 190.891 38.4661C190.782 38.5971 190.782 38.5971 190.891 38.4661C190.782 38.4661 190.782 38.4661 190.891 38.4661ZM192.419 41.3478C192.31 41.3478 192.419 41.3478 192.419 41.3478V41.3478ZM200.495 37.6803C200.604 37.5493 200.931 37.5493 201.04 37.6803C201.04 37.6803 201.04 37.6803 201.149 37.6803C200.822 37.5493 200.604 37.5493 200.495 37.6803ZM200.931 34.0127C200.931 34.1437 200.931 34.1437 200.931 34.0127C200.931 34.1437 200.931 34.1437 200.931 34.0127C200.931 34.1437 200.931 34.0127 200.931 34.0127ZM193.619 28.6425C193.619 28.5115 193.619 28.5115 193.619 28.6425C193.619 28.5115 193.619 28.5115 193.619 28.6425C193.619 28.5115 193.619 28.5115 193.619 28.6425C193.619 28.5115 193.619 28.6425 193.619 28.6425ZM154.768 12.6626H154.658C154.768 12.5316 154.768 12.5316 154.768 12.6626C154.768 12.5316 154.768 12.5316 154.768 12.6626ZM149.966 14.7583C149.857 14.7583 149.966 14.7583 149.966 14.7583V14.7583ZM143.745 11.8767C143.854 11.8767 143.963 12.0077 144.072 12.1387C143.963 12.1387 143.854 12.1387 143.745 11.8767ZM102.929 11.7457C102.929 11.6148 103.038 11.6148 103.147 11.6148C103.038 11.6148 103.038 11.6148 102.929 11.7457ZM61.0216 24.451C61.1308 24.451 61.1308 24.451 61.0216 24.451C61.1308 24.451 61.1308 24.582 61.0216 24.451C61.0216 24.582 61.0216 24.582 61.0216 24.713C61.0216 24.582 61.1308 24.582 61.0216 24.451ZM71.7167 15.2823C71.6076 15.4132 71.6076 15.4132 71.7167 15.2823C71.6076 15.4132 71.6076 15.2823 71.7167 15.2823C71.6076 15.2823 71.6076 15.4132 71.7167 15.2823C71.7167 15.1513 71.935 14.8893 71.935 15.0203C71.8259 15.1513 71.6076 15.0203 71.7167 15.2823ZM81.8662 28.1185C81.757 28.1185 81.757 28.2495 81.6479 28.1185C81.757 28.1185 81.757 28.1185 81.8662 28.1185ZM94.0892 24.32C94.1983 24.32 94.3074 24.32 94.3074 24.451C94.0892 24.32 93.98 24.32 93.7618 24.1891C93.8709 24.1891 94.0892 24.1891 94.0892 24.32ZM146.692 39.9069C146.692 39.776 146.692 39.776 146.692 39.9069C146.692 39.776 146.801 39.776 146.801 39.776C146.801 39.776 146.801 39.9069 146.692 39.9069ZM186.198 34.6677C186.307 34.6677 186.198 34.6677 186.198 34.6677C186.198 34.7986 186.198 34.7986 186.198 34.6677ZM189.69 35.9775C189.363 36.1085 189.254 36.3704 189.145 36.6324C189.363 36.3704 189.472 36.2394 189.69 35.9775ZM188.708 39.1211C188.708 39.1211 188.817 39.1211 188.708 39.1211C188.817 39.1211 188.708 39.1211 188.708 39.1211ZM202.241 37.5493C202.241 37.5493 202.35 37.5493 202.35 37.4183C202.35 37.5493 202.241 37.5493 202.241 37.5493ZM196.566 29.1664C196.566 29.1664 196.675 29.0354 196.675 28.9044C196.675 29.0354 196.566 29.0354 196.566 29.1664ZM191.982 24.32C192.091 24.32 192.091 24.32 191.982 24.32H191.873C191.982 24.32 191.982 24.32 191.982 24.32ZM198.312 23.4032C198.421 23.4032 198.421 23.5342 198.53 23.5342C198.421 23.5342 198.421 23.5342 198.312 23.4032ZM182.706 15.5442C182.706 15.5442 182.597 15.5442 182.706 15.5442C182.597 15.5442 182.597 15.5442 182.706 15.5442ZM107.185 7.94726C107.185 7.94726 107.076 7.94726 107.185 7.94726C107.076 7.94726 107.076 7.94726 107.185 7.94726ZM90.706 10.174H90.8151C90.8151 10.043 90.8151 10.043 90.706 10.174ZM41.8141 8.86413C41.8141 8.86413 41.9232 8.86413 41.9232 8.73315C41.9232 8.73315 41.8141 8.73315 41.8141 8.86413ZM43.3419 8.20922H43.4511H43.3419ZM90.8151 24.582C90.706 24.582 90.706 24.582 90.8151 24.582C90.706 24.582 90.706 24.582 90.8151 24.582ZM202.241 37.8112C202.241 37.9422 202.241 37.9422 202.241 37.8112C202.241 37.9422 202.241 37.8112 202.241 37.8112ZM214.573 23.2722C214.573 23.2722 214.464 23.2722 214.573 23.2722C214.464 23.2722 214.573 23.2722 214.573 23.2722ZM201.586 14.8893C201.586 14.8893 201.477 15.0203 201.586 14.8893C201.477 14.8893 201.477 14.8893 201.586 14.8893ZM180.414 13.8415C180.414 13.9724 180.414 13.9724 180.414 13.8415V13.8415ZM166.008 13.3175C166.008 13.3175 166.117 13.3175 166.008 13.3175C166.117 13.3175 166.008 13.3175 166.008 13.3175ZM162.516 11.2218C162.625 11.2218 162.625 11.2218 162.734 11.2218C162.625 11.3528 162.516 11.3528 162.516 11.2218ZM153.567 11.4838C153.567 11.3528 153.567 11.4838 153.567 11.4838C153.676 11.4838 153.567 11.4838 153.567 11.4838ZM100.855 8.3402C101.074 8.3402 101.183 8.3402 101.401 8.3402C101.51 8.3402 101.729 8.3402 101.838 8.3402C101.51 8.3402 101.183 8.3402 100.855 8.3402ZM46.0703 8.47118C46.1794 8.47118 46.0703 8.60217 46.0703 8.47118V8.47118ZM109.259 42.5266C109.259 42.6576 109.259 42.6576 109.259 42.5266C109.259 42.6576 109.259 42.6576 109.259 42.5266C109.259 42.6576 109.259 42.6576 109.259 42.5266C109.259 42.6576 109.259 42.6576 109.259 42.5266C109.259 42.6576 109.259 42.5266 109.259 42.5266ZM123.774 33.2268C123.774 33.6198 123.555 33.8818 123.774 34.2747C123.883 33.8818 123.774 33.6198 123.774 33.2268ZM164.48 42.9195C164.48 42.9195 164.371 43.0505 164.48 42.9195C164.371 43.0505 164.262 43.0505 164.262 43.0505C164.262 42.9195 164.371 42.9195 164.48 42.9195ZM192.637 43.0505H192.528C192.528 43.0505 192.528 43.0505 192.637 43.0505ZM194.82 42.7886C194.929 42.7886 194.929 42.7886 195.038 42.7886C195.038 42.7886 195.038 42.7886 195.038 42.9195C194.82 42.7886 194.82 42.7886 194.82 42.7886ZM201.149 42.7886C201.259 42.7886 201.259 42.6576 201.368 42.6576C201.259 42.7886 201.259 42.7886 201.149 42.7886ZM204.86 39.514C204.86 39.645 204.969 39.514 204.86 39.514C204.969 39.645 204.969 39.514 204.86 39.514C204.86 39.645 204.86 39.514 204.86 39.514ZM202.786 23.9271C202.896 23.9271 202.896 23.9271 203.005 23.9271C202.896 23.9271 202.896 23.9271 202.786 23.9271ZM194.492 13.0556C194.601 13.0556 194.601 13.0556 194.492 13.0556C194.601 13.0556 194.492 13.0556 194.492 13.0556ZM191.764 13.3175C191.764 13.3175 191.655 13.3175 191.764 13.3175V13.3175ZM156.186 11.8767H156.295C156.295 11.8767 156.295 11.8767 156.186 11.8767ZM104.675 7.29234C104.457 6.8994 104.02 6.8994 103.693 6.76841C104.02 6.76841 104.457 6.8994 104.675 7.29234ZM57.8567 8.47118L57.9659 8.3402C57.9659 8.3402 57.9659 8.47118 57.8567 8.47118ZM31.992 8.07824C31.8829 8.07824 31.8829 8.07824 31.992 8.07824C31.8829 8.07824 31.8829 8.07824 31.992 8.07824ZM39.9588 29.1664C39.9588 29.2974 39.9588 29.2974 40.0679 29.4284C39.9588 29.4284 39.9588 29.4284 39.8497 29.4284C39.9588 29.2974 39.9588 29.2974 39.9588 29.1664ZM126.611 43.4435C126.72 43.4435 126.829 43.4435 126.938 43.4435C126.72 43.4435 126.611 43.4435 126.611 43.4435C126.502 43.4435 126.393 43.4435 126.284 43.4435C126.393 43.4435 126.502 43.4435 126.611 43.4435ZM131.849 39.9069C131.849 39.9069 131.849 40.0379 131.849 39.9069V39.9069ZM189.036 43.9674C189.036 44.0984 189.036 44.0984 189.036 43.9674C189.036 44.0984 189.036 44.0984 189.036 43.9674ZM204.533 43.5745H204.642C204.642 43.7054 204.642 43.7054 204.533 43.5745C204.533 43.7054 204.533 43.7054 204.533 43.5745ZM207.807 23.9271C207.697 23.9271 207.697 23.9271 207.807 23.9271C207.697 23.9271 207.697 23.9271 207.697 23.9271C207.697 23.9271 207.697 23.7961 207.807 23.9271C207.697 23.9271 207.697 23.9271 207.807 23.9271ZM205.733 15.5442C205.733 15.4132 205.733 15.5442 205.733 15.5442V15.5442ZM157.496 11.2218C157.387 11.2218 157.387 11.2218 157.496 11.2218C157.387 11.2218 157.387 11.2218 157.496 11.2218C157.387 11.2218 157.387 11.2218 157.496 11.2218ZM86.3407 6.24448C86.3407 6.1135 86.3407 6.24448 86.3407 6.24448V6.1135C86.3407 6.1135 86.3407 6.1135 86.3407 6.24448ZM86.0133 5.58957H86.1224C86.0133 5.58957 86.0133 5.58957 86.0133 5.58957ZM76.6278 5.85154C76.6278 5.85154 76.7369 5.85154 76.6278 5.85154V5.85154ZM31.119 36.5014C31.119 36.5014 31.2281 36.5014 31.119 36.5014C31.2281 36.5014 31.119 36.5014 31.119 36.5014ZM88.4142 34.9296C88.4142 35.0606 88.4142 35.0606 88.5233 35.0606H88.4142C88.3051 34.9296 88.4142 35.0606 88.4142 34.9296ZM113.078 37.6803C113.078 37.6803 113.078 37.5493 113.078 37.6803V37.6803ZM125.301 43.5745C125.192 43.5745 125.192 43.7054 125.192 43.8364C125.192 43.8364 125.301 43.7054 125.301 43.5745ZM136.215 43.5745C136.215 43.7054 136.106 43.5745 136.215 43.5745C136.106 43.7054 136.106 43.5745 136.215 43.5745C136.106 43.5745 136.215 43.5745 136.215 43.5745ZM162.079 45.1462C162.079 45.0153 161.97 45.0153 161.97 44.8843C162.079 44.8843 162.079 45.0153 162.189 45.1462C162.079 45.1462 162.079 45.1462 162.079 45.1462ZM197.548 43.7054C197.548 43.7054 197.439 43.7054 197.439 43.5745C197.439 43.5745 197.439 43.7054 197.548 43.7054ZM219.593 41.2168C219.484 41.2168 219.375 41.2168 219.375 41.2168C219.375 41.2168 219.375 41.2168 219.484 41.2168C219.484 41.2168 219.484 41.0858 219.593 41.2168ZM215.337 20.9145C215.228 20.9145 215.228 20.7835 215.337 20.9145C215.228 20.7835 215.228 20.7835 215.337 20.9145C215.337 20.7835 215.337 20.7835 215.337 20.9145ZM122.355 6.8994C122.355 6.8994 122.464 6.8994 122.464 7.03038C122.464 7.03038 122.355 7.03038 122.355 6.8994ZM119.626 6.63743H119.736C119.736 6.63743 119.736 6.63743 119.626 6.63743C119.736 6.63743 119.626 6.63743 119.626 6.63743ZM92.1247 6.37547C92.2339 6.37547 92.2339 6.37547 92.1247 6.37547C92.2339 6.37547 92.2339 6.37547 92.1247 6.37547C92.2339 6.37547 92.2339 6.37547 92.1247 6.37547ZM89.3964 5.32761C89.3964 5.32761 89.2873 5.32761 89.3964 5.32761C89.2873 5.32761 89.3964 5.32761 89.3964 5.32761ZM47.489 6.37547C47.5982 6.24448 47.489 6.24448 47.3799 6.24448C47.489 6.24448 47.5982 6.24448 47.7073 6.24448C47.5982 6.37547 47.5982 6.37547 47.489 6.37547ZM44.8698 5.58957C44.8698 5.58957 44.979 5.58957 44.8698 5.58957C44.979 5.58957 44.979 5.58957 44.8698 5.58957C44.979 5.58957 44.8698 5.58957 44.8698 5.58957ZM38.7583 5.85154V5.98252V5.85154ZM30.7916 29.2974C30.7916 29.1664 30.7916 29.2974 30.7916 29.2974C30.7916 29.1664 30.7916 29.1664 30.7916 29.2974C30.7916 29.1664 30.7916 29.1664 30.7916 29.2974C30.7916 29.1664 30.7916 29.1664 30.7916 29.2974ZM23.807 32.7029C23.9161 32.7029 24.0253 32.8339 24.0253 32.9649C24.0253 32.8339 24.0253 32.7029 23.807 32.7029ZM29.5911 42.3956C29.7002 42.3956 29.7002 42.3956 29.8094 42.3956C29.7002 42.3956 29.8094 42.5266 29.8094 42.5266C29.7002 42.5266 29.5911 42.5266 29.5911 42.3956ZM180.741 44.0984C180.851 44.0984 180.851 44.0984 180.96 44.0984C180.96 44.0984 180.96 44.0984 180.851 44.0984C180.96 44.0984 180.851 44.0984 180.741 44.0984C180.851 44.0984 180.851 44.0984 180.741 44.0984ZM208.898 44.0984C208.789 44.0984 208.68 44.0984 208.57 44.0984C208.68 44.0984 208.789 44.0984 208.898 44.0984ZM208.352 33.3578C208.461 33.3578 208.461 33.3578 208.352 33.3578C208.461 33.3578 208.461 33.3578 208.352 33.3578ZM217.519 20.3906C217.519 20.3906 217.519 20.5216 217.519 20.3906C217.519 20.5216 217.519 20.3906 217.519 20.3906ZM198.312 13.0556C198.203 13.0556 198.203 13.0556 198.312 13.0556V13.0556ZM182.16 10.6979C182.051 10.6979 182.051 10.6979 182.16 10.6979C182.051 10.6979 182.051 10.6979 182.16 10.6979C182.051 10.6979 182.051 10.6979 182.16 10.6979ZM164.699 9.38806C164.699 9.38806 164.808 9.38806 164.699 9.38806C164.808 9.38806 164.808 9.38806 164.699 9.38806ZM130.976 6.76841C130.976 6.8994 131.086 6.8994 130.976 6.76841C130.976 6.8994 130.976 6.8994 130.976 6.76841ZM121.918 6.63743C121.918 6.63743 122.027 6.63743 122.137 6.63743C122.137 6.63743 122.027 6.63743 121.918 6.63743ZM121.482 5.72055C121.482 5.85154 121.482 5.72055 121.482 5.72055V5.72055ZM92.7795 4.54171C92.7795 4.54171 92.6704 4.54171 92.7795 4.54171C92.7795 4.41073 92.7795 4.41073 92.7795 4.27975C92.6704 4.41073 92.6704 4.41073 92.7795 4.54171ZM60.476 5.72055C60.5851 5.72055 60.5851 5.72055 60.476 5.72055C60.5851 5.72055 60.476 5.72055 60.476 5.72055ZM35.0478 4.80368C35.0478 4.80368 35.1569 4.80368 35.0478 4.80368C35.1569 4.80368 35.1569 4.80368 35.0478 4.80368C35.1569 4.80368 35.1569 4.80368 35.0478 4.80368ZM24.0253 16.985C24.1344 16.985 24.1344 16.985 24.0253 16.985C24.1344 17.116 24.1344 17.116 24.1344 17.247C24.1344 17.116 24.1344 16.985 24.0253 16.985ZM30.7916 16.8541C31.119 16.5921 31.3372 16.7231 31.5555 16.985C31.2281 16.8541 31.0098 16.8541 30.7916 16.8541ZM33.4108 24.0581C33.4108 23.9271 33.3016 23.9271 33.3016 23.7961C33.3016 23.9271 33.3016 23.9271 33.4108 24.0581ZM20.533 34.6677C20.4239 34.6677 20.4239 34.6677 20.533 34.6677C20.4239 34.6677 20.4239 34.6677 20.533 34.6677C20.4239 34.6677 20.4239 34.6677 20.533 34.6677ZM211.299 27.0707C211.299 27.2017 211.299 27.2017 211.299 27.0707C211.19 27.0707 211.081 27.0707 211.081 27.0707C211.19 27.0707 211.299 27.0707 211.299 27.0707ZM220.575 25.2369C220.575 25.2369 220.466 25.3679 220.357 25.1059C220.357 25.2369 220.466 25.2369 220.575 25.2369ZM133.596 6.1135C133.596 6.24448 133.596 6.24448 133.596 6.1135C133.596 6.24448 133.596 6.24448 133.596 6.1135C133.596 6.24448 133.596 6.1135 133.596 6.1135ZM122.246 5.98252C122.246 5.98252 122.355 5.98252 122.246 5.98252C122.355 5.98252 122.355 5.98252 122.246 5.98252C122.355 5.98252 122.355 5.98252 122.246 5.98252ZM106.312 4.6727C106.53 4.6727 106.64 4.6727 106.858 4.6727C106.64 4.6727 106.421 4.6727 106.312 4.6727ZM29.482 4.41073C29.482 4.41073 29.482 4.27975 29.482 4.41073C29.482 4.27975 29.5911 4.41073 29.482 4.41073C29.5911 4.41073 29.482 4.41073 29.482 4.41073ZM25.0075 17.6399C24.8983 17.6399 24.7892 17.6399 24.7892 17.6399C24.7892 17.6399 24.8983 17.6399 25.0075 17.6399ZM15.2946 37.0253C15.2946 37.1563 15.2946 37.1563 15.2946 37.0253C15.1854 37.0253 15.2946 37.0253 15.2946 37.0253ZM27.2993 43.3125C27.2993 43.3125 27.1902 43.1815 27.2993 43.1815C27.2993 43.0505 27.2993 43.1815 27.2993 43.3125C27.2993 43.1815 27.2993 43.1815 27.2993 43.3125ZM98.4545 44.2294C98.5636 44.2294 98.5636 44.2294 98.4545 44.2294C98.5636 44.2294 98.4545 44.2294 98.4545 44.2294ZM98.891 44.2294C98.891 44.2294 98.7819 44.2294 98.891 44.2294C98.7819 44.2294 98.7819 44.2294 98.891 44.2294ZM146.146 44.3604C146.255 44.3604 146.364 44.3604 146.364 44.3604C146.473 44.4913 146.692 44.4913 146.91 44.4913C146.473 44.4913 146.146 44.4913 145.6 44.4913C145.819 44.4913 146.037 44.3604 146.146 44.3604ZM211.299 44.0984C211.299 44.0984 211.19 44.0984 211.299 44.0984C211.19 44.0984 211.299 44.0984 211.299 44.0984ZM227.123 45.4082C227.342 45.1462 227.232 45.0153 227.123 44.7533C227.232 45.0153 227.232 45.2772 227.123 45.4082ZM218.174 35.0606C218.283 35.0606 218.283 35.0606 218.174 35.0606C218.283 35.0606 218.283 35.0606 218.174 35.0606C218.283 35.0606 218.283 35.0606 218.174 35.0606ZM221.557 25.4989C221.557 25.4989 221.557 25.3679 221.557 25.4989C221.557 25.3679 221.557 25.3679 221.557 25.4989C221.667 25.3679 221.667 25.4989 221.557 25.4989ZM171.574 10.174C171.574 10.3049 171.574 10.3049 171.574 10.174C171.792 10.174 171.902 10.174 172.12 10.043H172.229C172.12 10.174 171.792 10.043 171.574 10.174C171.574 10.3049 171.574 10.3049 171.574 10.174C171.574 10.3049 171.574 10.3049 171.574 10.174ZM157.496 6.76841C157.496 6.8994 157.605 6.8994 157.496 6.76841C157.496 6.8994 157.496 6.8994 157.496 6.76841C157.496 6.76841 157.496 6.8994 157.496 6.76841ZM23.5887 12.6626C23.4796 12.7936 23.4796 12.9246 23.4796 13.1865C23.5887 12.9246 23.5887 12.7936 23.5887 12.6626C23.4796 12.6626 23.5887 12.6626 23.5887 12.6626ZM24.0253 13.7105C23.9161 13.7105 24.0253 13.7105 24.0253 13.7105V13.7105ZM26.0988 18.0329C26.3171 18.0329 26.4262 18.1639 26.4262 18.4258C26.4262 18.2949 26.2079 18.1639 26.0988 18.0329ZM13.0028 38.4661C13.1119 38.4661 13.1119 38.4661 13.0028 38.4661C13.1119 38.4661 13.1119 38.4661 13.0028 38.4661ZM14.858 38.2042C14.858 38.0732 14.858 38.2042 14.858 38.2042V38.2042ZM21.6243 20.9145H21.7335C21.7335 20.7835 21.7335 20.9145 21.6243 20.9145ZM26.5354 18.8188C26.5354 18.8188 26.4262 18.8188 26.5354 18.8188C26.4262 18.8188 26.5354 18.8188 26.5354 18.8188ZM15.7311 39.645C15.622 39.383 15.4037 39.252 15.1854 39.1211C15.4037 39.252 15.622 39.383 15.7311 39.645ZM104.129 45.4082C104.02 45.4082 104.02 45.4082 103.911 45.5392C103.584 45.8012 103.584 45.5392 103.584 45.4082C103.693 45.4082 103.911 45.5392 104.129 45.4082ZM116.025 46.3251C116.134 46.3251 116.025 46.3251 116.025 46.3251V46.3251ZM223.631 26.5467C223.74 26.4158 223.74 26.4158 223.74 26.2848C223.74 26.4158 223.631 26.4158 223.631 26.5467ZM217.083 15.1513V15.2823C217.083 15.2823 216.974 15.2823 217.083 15.1513C217.083 15.2823 217.083 15.2823 217.083 15.1513ZM81.3205 1.26715H81.2114C81.1022 1.26715 81.2114 1.26715 81.3205 1.26715C81.2114 1.26715 81.2114 1.26715 81.3205 1.26715ZM17.6955 9.78101C17.5864 9.91199 17.6955 9.91199 17.6955 9.78101C17.5864 9.91199 17.6955 9.91199 17.6955 9.78101C17.5864 9.78101 17.6955 9.78101 17.6955 9.78101ZM25.0075 27.3326C25.0075 27.4636 25.0075 27.4636 25.0075 27.3326C25.0075 27.4636 25.0075 27.4636 25.0075 27.3326ZM57.2019 46.1941C57.2019 46.3251 57.2019 46.1941 57.2019 46.1941V46.1941ZM154.877 46.3251H154.986C154.986 46.3251 154.986 46.3251 154.877 46.3251ZM174.302 46.4561C174.412 46.4561 174.412 46.4561 174.302 46.4561C174.412 46.4561 174.412 46.4561 174.302 46.4561C174.412 46.4561 174.412 46.4561 174.302 46.4561Z" fill="white" fill-opacity="0.4"/>
</svg>
